<svg id="logo_color.svg" xmlns="http://www.w3.org/2000/svg" xmlns:xlink="http://www.w3.org/1999/xlink" width="130" height="29" viewBox="0 0 130 29">
  <defs>
    <style>
      .cls-1 {
        fill: #fff;
      }

      .cls-1, .cls-2 {
        fill-rule: evenodd;
      }

      .cls-2 {
        fill: url(#linear-gradient);
      }
    </style>
    <linearGradient id="linear-gradient" x1="317.031" y1="43.481" x2="291.75" y2="67.894" gradientUnits="userSpaceOnUse">
      <stop offset="0.11" stop-color="#318f75"/>
      <stop offset="0.436" stop-color="#318f75"/>
      <stop offset="0.876" stop-color="#244f43"/>
      <stop offset="0.89" stop-color="#244f43"/>
    </linearGradient>
  </defs>
  <path id="logo" class="cls-1" d="M255.447,46.8l-0.007-5.981a0.869,0.869,0,0,1,.169-0.59h0A0.7,0.7,0,0,1,256.2,40h0l1.258,0.041h0.016a0.515,0.515,0,0,1,.371.227h0a1.539,1.539,0,0,1,.118.189v0a0.535,0.535,0,0,1,.056.354,0.21,0.21,0,0,0,0,.028h0l0.007,20.872a0.978,0.978,0,0,1-.129.539,0.916,0.916,0,0,1-.426.349,14.218,14.218,0,0,1-4.287,1.254,11.046,11.046,0,0,1-4.452-.38,7.666,7.666,0,0,1-3.772-2.364,8.481,8.481,0,0,1-1.825-4.224,10.549,10.549,0,0,1,.343-4.961,8.383,8.383,0,0,1,2.564-3.84,7.748,7.748,0,0,1,1.967-1.205,9.426,9.426,0,0,1,2.359-.646,10.566,10.566,0,0,1,2.536-.072,8.6,8.6,0,0,1,2.5.621l0.047,0.02h0Zm68.768,0.172v0.534q0,1.209,0,2.42c0,2.251,0,4.5.014,6.751a9.2,9.2,0,0,0,.061.968,8.956,8.956,0,0,0,.161.946,3.362,3.362,0,0,0,.98,1.785,3.733,3.733,0,0,0,1.941.871,10.08,10.08,0,0,0,2.921.059,11.636,11.636,0,0,0,2.825-.734V60.52q0-1.283,0-2.567V57.108h0c0-1.9,0,.167,0-2.176q0-3.755-.009-7.511a0.879,0.879,0,0,1,.2-0.634h0a0.757,0.757,0,0,1,.613-0.222c0.328,0.005.655,0,.992,0,0.361,0,.179,0,0.45,0h0.369V47.4h0v2.569q0,5.871.008,11.743a0.932,0.932,0,0,1-.133.528,0.883,0.883,0,0,1-.419.329,16.33,16.33,0,0,1-3.614,1.1,16.732,16.732,0,0,1-3.8.239,8.2,8.2,0,0,1-1.857-.294,6.114,6.114,0,0,1-1.745-.8,5.455,5.455,0,0,1-1.858-2.066,6.513,6.513,0,0,1-.67-2.858c-0.056-2.695-.046-5.393-0.035-8.092q0-1.261.008-2.521a0.759,0.759,0,0,1,.147-0.406,0.583,0.583,0,0,1,.412-0.26c0.411-.019.829-0.017,1.26-0.015h0.782v0.38h0Zm48.314,8.761H360.568c0.013,0.087.025,0.176,0.037,0.262a10.793,10.793,0,0,0,.251,1.366,5.177,5.177,0,0,0,5.715,4.011,7.7,7.7,0,0,0,2.13-.462,6.639,6.639,0,0,0,1.87-1.089,0.683,0.683,0,0,1,.466-0.18,0.663,0.663,0,0,1,.45.206c0.045,0.044.065,0.062,0.085,0.08a2.961,2.961,0,0,1,.223.218,1.4,1.4,0,0,1,.521,1.039,1.38,1.38,0,0,1-.721.9,9.312,9.312,0,0,1-3.7,1.655,9.534,9.534,0,0,1-4.076-.114,7.257,7.257,0,0,1-3.242-1.64,7.352,7.352,0,0,1-2-3.054,11.387,11.387,0,0,1-.7-4.4,10.393,10.393,0,0,1,1.111-4.186,7.65,7.65,0,0,1,4.317-3.862,7.469,7.469,0,0,1,5.729.352,6.393,6.393,0,0,1,2.544,2.158,8.212,8.212,0,0,1,1.246,3.108A9.361,9.361,0,0,1,373,53.731a9.835,9.835,0,0,1-.111,1.681l-0.049.322h-0.315Zm-2.255-2.41c-0.01-.161-0.019-0.314-0.03-0.444a5.745,5.745,0,0,0-.127-0.793,4.6,4.6,0,0,0-1.714-2.7,4.365,4.365,0,0,0-3.034-.815,5.2,5.2,0,0,0-.764.13,5.033,5.033,0,0,0-2.759,1.792,5.657,5.657,0,0,0-1.157,2.833h9.585Zm-29.58-13.315h2.2v7.169a8.5,8.5,0,0,1,5.088-1.055A8.15,8.15,0,0,1,352.84,48.3a7.616,7.616,0,0,1,1.6,2.224,8.982,8.982,0,0,1,.766,2.63,11.939,11.939,0,0,1,.06,3.006,9.678,9.678,0,0,1-.793,2.911,7.9,7.9,0,0,1-2.517,3.2,8.232,8.232,0,0,1-3.846,1.48,12.868,12.868,0,0,1-3.794-.037,12.13,12.13,0,0,1-3.544-1.16,0.849,0.849,0,0,1-.373-0.326,0.894,0.894,0,0,1-.114-0.483q0.025-9.059.038-18.117l0-2.8V40.008h0.368Zm2.185,15.619c0,0.6,0,.794,0,0.986,0,1.224.008,2.448-.016,3.67a0.493,0.493,0,0,0,.047.274,0.457,0.457,0,0,0,.219.137,9.089,9.089,0,0,0,2.6.606,8.887,8.887,0,0,0,2.637-.19,5.2,5.2,0,0,0,2.471-1.245,5.5,5.5,0,0,0,1.461-2.414,8.173,8.173,0,0,0,.386-2.227,8.765,8.765,0,0,0-.236-2.308,5.967,5.967,0,0,0-.652-1.673,4.869,4.869,0,0,0-1.147-1.336,6.1,6.1,0,0,0-3.757-1.246,6.449,6.449,0,0,0-3.872,1.179,0.333,0.333,0,0,0-.1.1h0a0.288,0.288,0,0,0-.02.13c0.008,1.306.007,2.612,0.006,3.919,0,0.593,0-1.188,0,1.257v0.379h-0.022Zm-63.6,7.53V62.715h0v-2.54q0-5.638-.007-11.278a1.023,1.023,0,0,1,.465-0.907,9.909,9.909,0,0,1,2.373-1.248,10.78,10.78,0,0,1,2.593-.587,11.383,11.383,0,0,1,2.066-.036,9.914,9.914,0,0,1,2.052.371,0.9,0.9,0,0,1,.53.347,0.783,0.783,0,0,1,.074.683c-0.045.158-.089,0.318-0.141,0.5-0.046.154-.1,0.318-0.155,0.5a0.672,0.672,0,0,1-.351.436,0.772,0.772,0,0,1-.526.029,10.943,10.943,0,0,0-2.61-.309,8.445,8.445,0,0,0-2.568.423,6.279,6.279,0,0,0-.7.294c-0.146.068-.291,0.136-0.438,0.2a0.171,0.171,0,0,0-.039.018h0a0.319,0.319,0,0,0-.014.12q0.009,5.346.006,10.693v2.225h0c0,0.872,0,.9-0.877.916-0.32.007-.633,0-0.952-0.016l-0.428-.014-0.361-.009V63.156h0Zm-6.8-9.407,0-.289a6.593,6.593,0,0,0-.325-2.648,3.174,3.174,0,0,0-1.073-1.387,3.963,3.963,0,0,0-1.643-.654,7.461,7.461,0,0,0-2.96.035,7.371,7.371,0,0,0-2.684,1.218,0.738,0.738,0,0,1-.422.156,0.639,0.639,0,0,1-.459-0.19h0c-0.026-.024-0.06-0.052-0.093-0.08h0a2.038,2.038,0,0,1-.224-0.21,1.359,1.359,0,0,1-.467-1.008,1.283,1.283,0,0,1,.657-0.885,8.925,8.925,0,0,1,2.956-1.4,9.9,9.9,0,0,1,3.231-.279,8.886,8.886,0,0,1,1.568.246,6.759,6.759,0,0,1,1.5.578,5.281,5.281,0,0,1,1.975,1.773,6.132,6.132,0,0,1,.908,2.5c0.036,0.248.06,0.5,0.075,0.761,0.014,0.243.02,0.5,0.02,0.754q0.006,2.049,0,4.1,0,2.428.006,4.857v0a0.953,0.953,0,0,1-.133.532,0.914,0.914,0,0,1-.408.338,13.091,13.091,0,0,1-2.326.829,16.874,16.874,0,0,1-2.409.423,14.1,14.1,0,0,1-2.19.075,9.5,9.5,0,0,1-2.191-.356,6.3,6.3,0,0,1-2.19-1.079,4.548,4.548,0,0,1-1.465-2.051c-0.036-.1-0.066-0.187-0.091-0.266A5.653,5.653,0,0,1,261.7,56.3a5.071,5.071,0,0,1,3.024-2.82c0.1-.04.2-0.075,0.286-0.1a9.822,9.822,0,0,1,3.843-.49,12.055,12.055,0,0,1,3.623.866h0Zm0,4.841v-0.6c0-.515,0-1.03.007-1.542a0.2,0.2,0,0,0,0-.06,0.268,0.268,0,0,0-.065-0.037,10.159,10.159,0,0,0-2.206-.756,10.312,10.312,0,0,0-2.315-.232,7.225,7.225,0,0,0-1.166.1,4.987,4.987,0,0,0-1.1.321,2.68,2.68,0,0,0-1.391,1.242,2.777,2.777,0,0,0-.175,1.88,2.875,2.875,0,0,0,.8,1.481,3.356,3.356,0,0,0,1.6.808,9.435,9.435,0,0,0,3.04.191,12.9,12.9,0,0,0,2.978-.674c0-.521,0-1.044,0-1.566V58.59h0Zm-17.017-8.614a0.63,0.63,0,0,0-.071-0.357,0.753,0.753,0,0,0-.295-0.226,6.089,6.089,0,0,0-1.3-.487,7.3,7.3,0,0,0-1.363-.205,8.029,8.029,0,0,0-2.476.2,5.49,5.49,0,0,0-1.948.917,5.871,5.871,0,0,0-2.043,2.886,7.807,7.807,0,0,0-.212,3.937,5.96,5.96,0,0,0,1.286,2.811,5.235,5.235,0,0,0,2.492,1.566,8.22,8.22,0,0,0,2.926.346,9.977,9.977,0,0,0,2.91-.648,0.561,0.561,0,0,0,.08-0.033,0.514,0.514,0,0,0,0-.083v0l0.008-10.616V49.976h0Z" transform="translate(-243 -40)"/>
  <path id="qube" class="cls-2" d="M304.378,42.377a12.5,12.5,0,0,1,8.94,3.765,12.979,12.979,0,0,1-.373,18.541l2.034,2.067v0a1.331,1.331,0,0,1,0,1.859,1.281,1.281,0,0,1-1.83,0h0l-2.3-2.337a12.481,12.481,0,0,1-15.41-1.954,13.007,13.007,0,0,1,0-18.178,12.5,12.5,0,0,1,8.939-3.765h0Zm4.776,4.454-3.066-1.8,0,0a3.278,3.278,0,0,0-3.373-.023l-2.788,1.637,0,0.006-0.321.189-2.8,1.643-0.017.01-0.013.005a3.374,3.374,0,0,0-1.422,1.255,3.416,3.416,0,0,0-.526,1.83v6.923h0.014v0.376a3.441,3.441,0,0,0,.449,1.694,3.335,3.335,0,0,0,1.217,1.233l2.9,1.7,0.02,0.011,0.085,0.056,0.087,0.053,3.065,1.8,0,0a3.274,3.274,0,0,0,3.372.022l2.789-1.637,0-.006,0.322-.188,2.8-1.643,0.017-.01,0.013-.006a3.367,3.367,0,0,0,1.422-1.255,3.413,3.413,0,0,0,.526-1.83V51.958h-0.013V51.582a3.44,3.44,0,0,0-.448-1.694,3.33,3.33,0,0,0-1.217-1.233l-2.9-1.7-0.02-.012c-0.024-.017-0.052-0.035-0.085-0.056l-0.086-.053h0Z" transform="translate(-243 -40)"/>
</svg>
