<svg xmlns="http://www.w3.org/2000/svg" width="7.43" height="8.31" viewBox="0 0 7.43 8.31"><path d="M37.4,24.437l-1.192-.7h0a1.284,1.284,0,0,0-.656-.186,1.27,1.27,0,0,0-.656.177l-1.085.637v0l-.125.073-1.089.639-.007,0-.005,0a1.313,1.313,0,0,0-.553.488,1.329,1.329,0,0,0-.2.712v2.693h.005v.146a1.336,1.336,0,0,0,.175.659,1.3,1.3,0,0,0,.473.479l1.13.663.008,0,.033.022.034.021,1.192.7h0a1.282,1.282,0,0,0,.656.186,1.269,1.269,0,0,0,.656-.177l1.085-.637v0l.125-.073,1.089-.639.007,0,.005,0a1.31,1.31,0,0,0,.553-.488,1.328,1.328,0,0,0,.2-.712V26.432h-.005v-.146a1.336,1.336,0,0,0-.175-.659,1.293,1.293,0,0,0-.473-.479l-1.13-.663-.008,0-.033-.022-.033-.021Z" transform="translate(-31.827 -23.55)" fill="#30836d"/></svg>