<svg xmlns="http://www.w3.org/2000/svg" width="48.441" height="37.81" viewBox="0 0 48.441 37.81"><g transform="translate(-698.775 -2810.641)"><path d="M43.864,20.5a1.013,1.013,0,0,1-1.013,1.013H20.665a1.013,1.013,0,0,1,0-2.026H42.85A1.013,1.013,0,0,1,43.864,20.5Zm-23.2,6.53h6.676a1.013,1.013,0,1,0,0-2.026H20.665a1.013,1.013,0,1,0,0,2.026Zm0,5.5h6.676a1.013,1.013,0,1,0,0-2.026H20.665a1.013,1.013,0,1,0,0,2.026Zm0,5.5h6.676a1.013,1.013,0,1,0,0-2.026H20.665a1.013,1.013,0,1,0,0,2.026ZM2.18,44.121V24.366a1.013,1.013,0,0,1,2.026,0V44.121a4.341,4.341,0,0,0,8.677,0V13.693A1.014,1.014,0,0,1,13.9,12.679H49.608a1.013,1.013,0,0,1,1.013,1.013V45.024a5.462,5.462,0,0,1-5.475,5.465H8.548A6.371,6.371,0,0,1,2.18,44.122ZM13.2,48.462H45.146a3.434,3.434,0,0,0,3.435-3.435V14.706H14.915V44.121A6.348,6.348,0,0,1,13.2,48.462ZM7.534,24.579V44.105a1.013,1.013,0,0,0,2.026,0V24.579a1.013,1.013,0,0,0-2.026,0Z" transform="translate(696.595 2797.962)" fill="#fff" opacity="0.8"/><path d="M42.852,41.5H20.665a1.013,1.013,0,1,0,0,2.026H42.851a1.013,1.013,0,0,0,0-2.026Zm1.013-15.5,0,11a1.013,1.013,0,0,1-1.013,1.013H32.988A1.013,1.013,0,0,1,31.975,37V26.012A1.013,1.013,0,0,1,32.988,25H42.85a1.013,1.013,0,0,1,1.013,1.013Zm-2.026,1.013H34V35.99h7.836Z" transform="translate(696.595 2797.962)" fill="#30836d"/></g></svg>