<svg xmlns="http://www.w3.org/2000/svg" width="58.482" height="39.567" viewBox="0 0 58.482 39.567"><g transform="translate(-696.518 -2808.433)"><g transform="translate(668.097 2775.917)" opacity="0.8"><path d="M69.132,39.6h2.711V32.516H28.421v29.2H53.812v-2.58H31.134V35.09h38Z" transform="translate(0)" fill="#fff"/><path d="M46,53.533v-2.1a4.516,4.516,0,0,0,.622-.164,3.713,3.713,0,0,0,1.326-.846,3.549,3.549,0,0,0,.813-1.277,4.563,4.563,0,0,0,.278-1.615,3.186,3.186,0,0,0-.224-1.255,2.776,2.776,0,0,0-.589-.895,3.282,3.282,0,0,0-.829-.616,9.368,9.368,0,0,0-.949-.436c-.322-.125-.638-.24-.949-.349a4.679,4.679,0,0,1-.829-.36,2.07,2.07,0,0,1-.589-.469,1.007,1.007,0,0,1-.224-.66,1.2,1.2,0,0,1,.431-.96,1.767,1.767,0,0,1,1.184-.366,2.578,2.578,0,0,1,.84.12,4.329,4.329,0,0,1,.633.267c.185.1.349.185.491.267a.793.793,0,0,0,.4.12.53.53,0,0,0,.289-.076.755.755,0,0,0,.218-.267l.578-1.058a4.36,4.36,0,0,0-2.924-1.451V37.074H44.175V39.2a4.233,4.233,0,0,0-.469.131,3.788,3.788,0,0,0-1.249.8,3.443,3.443,0,0,0-.758,1.178,3.878,3.878,0,0,0-.256,1.424,3.779,3.779,0,0,0,.224,1.375,2.969,2.969,0,0,0,.589.96,3.437,3.437,0,0,0,.835.649,8.021,8.021,0,0,0,.96.442c.327.125.644.24.96.349a5.99,5.99,0,0,1,.835.36,2.163,2.163,0,0,1,.589.475,1.069,1.069,0,0,1,.218.7,1.564,1.564,0,0,1-.1.551,1.219,1.219,0,0,1-.311.469,1.444,1.444,0,0,1-.535.322,2.228,2.228,0,0,1-.78.125,2.517,2.517,0,0,1-.955-.153,4.06,4.06,0,0,1-.655-.333c-.185-.12-.349-.229-.491-.333a.739.739,0,0,0-.447-.153.65.65,0,0,0-.387.1.894.894,0,0,0-.267.311l-.589,1.113a4.308,4.308,0,0,0,.715.595,5.523,5.523,0,0,0,1.882.791,3.943,3.943,0,0,0,.436.044v2.029Z" transform="translate(5.047 1.81)" fill="#fff"/></g><path d="M11.009,8.188a3.77,3.77,0,0,0-1.287-.56,3.511,3.511,0,0,0,.9-.742,2.819,2.819,0,0,0,.415-1.244,2.6,2.6,0,0,0-.9-2.269,4.917,4.917,0,0,0-2.778-.85V0H5.8V2.494H4.617V0H3.061V2.494H0V4.11H.9a1.286,1.286,0,0,1,.867.235c.185.207.218.316.218.72V11.5a.63.63,0,0,1-.16.465c-.131.124-.262.153-.574.153H.32L0,13.99H3.061v2.487H4.617V13.99H5.8v2.487H7.359V13.949c.4-.023.777-.054,1-.083a5.175,5.175,0,0,0,2.385-.829,3.122,3.122,0,0,0,1.171-2.712,2.489,2.489,0,0,0-.9-2.138ZM4.617,4.254s.494-.044.982-.036a4.951,4.951,0,0,1,1.556.218A1.345,1.345,0,0,1,8.188,5.679a1.219,1.219,0,0,1-.669,1.185,3.791,3.791,0,0,1-1.607.392c-.567.022-1.294,0-1.294,0ZM8.1,11.692a4.94,4.94,0,0,1-1.76.422c-.691.051-1.723.029-1.723.029V8.806s.989-.051,1.76,0A4.982,4.982,0,0,1,8.086,9.2,1.377,1.377,0,0,1,8.1,11.692Z" transform="matrix(0.985, 0.174, -0.174, 0.985, 736.959, 2824.694)" fill="#22a180" opacity="0.75"/><g transform="translate(726 2819)" fill="none" stroke="#30836d" stroke-width="2"><circle cx="14.5" cy="14.5" r="14.5" stroke="none"/><circle cx="14.5" cy="14.5" r="13.5" fill="none"/></g></g></svg>