<svg xmlns="http://www.w3.org/2000/svg" width="39.321" height="55.829" viewBox="0 0 39.321 55.829"><g transform="translate(-16.526 -2.5)"><g transform="translate(28.251 2.5)"><path d="M64.975,35.084H67.91a1.176,1.176,0,0,0,1.174-1.174V30.975a1.174,1.174,0,0,0-2.348,0v1.761H64.975a1.174,1.174,0,1,0,0,2.348Z" transform="translate(-47.775 -13.775)" fill="#22a180"/><path d="M37.674,7.783a1.176,1.176,0,0,0,1.174-1.174V4.848h1.761a1.174,1.174,0,1,0,0-2.348H37.674A1.176,1.176,0,0,0,36.5,3.674V6.609A1.176,1.176,0,0,0,37.674,7.783Z" transform="translate(-36.5 -2.5)" fill="#22a180"/><path d="M51.072,4.848H54.36a1.174,1.174,0,0,0,0-2.348H51.072a1.174,1.174,0,1,0,0,2.348Z" transform="translate(-42.033 -2.5)" fill="#22a180"/><path d="M64.975,4.848h1.761V6.609a1.174,1.174,0,0,0,2.348,0V3.674A1.176,1.176,0,0,0,67.91,2.5H64.975a1.174,1.174,0,1,0,0,2.348Z" transform="translate(-47.775 -2.5)" fill="#22a180"/><path d="M69.975,15.9A1.176,1.176,0,0,0,68.8,17.072V20.36a1.174,1.174,0,0,0,2.348,0V17.072A1.179,1.179,0,0,0,69.975,15.9Z" transform="translate(-49.84 -8.033)" fill="#22a180"/></g><path d="M55.84,49.34a4.46,4.46,0,0,0-4.462-4.462,4.372,4.372,0,0,0-2.465.764,4.523,4.523,0,0,0-4.109-2.7,4.372,4.372,0,0,0-2.465.764A4.523,4.523,0,0,0,38.23,41a4.361,4.361,0,0,0-2.114.527V36.423h4.99a1.176,1.176,0,0,0,1.174-1.174V16.174A1.176,1.176,0,0,0,41.105,15H22.088a1.176,1.176,0,0,0-1.174,1.174V35.135a1.176,1.176,0,0,0,1.174,1.174h5.049v17.55L24.2,50.984a4.506,4.506,0,0,0-7.631,2.584,4.553,4.553,0,0,0,1,3.522l5.049,5.987a1.132,1.132,0,0,0,.881.41,1.238,1.238,0,0,0,.764-.294,1.138,1.138,0,0,0,.117-1.644l-4.99-5.93a1.976,1.976,0,0,1-.47-1.7,2.2,2.2,0,0,1,3.7-1.234l3.639,3.582a2,2,0,0,0,2.114.41,1.944,1.944,0,0,0,1.174-1.821l0-23.361a2.106,2.106,0,0,1,2.114-2.114,1.9,1.9,0,0,1,1.468.647,2.136,2.136,0,0,1,.647,1.527V47.58a1.174,1.174,0,1,0,2.348,0V45.409a2.114,2.114,0,0,1,4.228,0v4.169a1.174,1.174,0,0,0,2.348,0V47.406a2.114,2.114,0,1,1,4.228,0v4.169a1.174,1.174,0,0,0,2.348,0V49.4a2.114,2.114,0,0,1,4.228,0V62.317a1.174,1.174,0,1,0,2.348,0ZM31.6,27.034A4.46,4.46,0,0,0,27.134,31.5v2.465H23.261V17.348H39.874V33.961H36.058V31.5a4.536,4.536,0,0,0-1.291-3.169A4.434,4.434,0,0,0,31.6,27.034Z" transform="translate(0 -5.163)" fill="#fff" opacity="0.8"/></g></svg>