<svg xmlns="http://www.w3.org/2000/svg" xmlns:xlink="http://www.w3.org/1999/xlink" width="60.121" height="44.48" viewBox="0 0 60.121 44.48"><defs><clipPath id="a"><path d="M1041.214,2799.3v15.33H1067.3v9.914h-38.859V2799.3Z" transform="translate(-1028.439 -2799.303)" fill="none" stroke="#707070" stroke-width="1"/></clipPath></defs><g transform="translate(-1041.439 -2803.382)"><g transform="translate(1063.399 2809.701)"><path d="M40.413,35.551a4.79,4.79,0,1,0,3.381,1.4,4.78,4.78,0,0,0-3.381-1.4Zm0,8.326h0a3.54,3.54,0,1,1,3.545-3.544,3.54,3.54,0,0,1-3.545,3.544Z" transform="translate(-13.808 -13.751)" fill="#30836d"/><path d="M37.541,24.1H34.972a8.676,8.676,0,0,0-.7-1.7l1.824-1.816a.62.62,0,0,0,0-.876l-2.639-2.639a.62.62,0,0,0-.876,0l-1.816,1.82a8.694,8.694,0,0,0-1.7-.7V15.62a.621.621,0,0,0-.62-.62H24.719a.621.621,0,0,0-.62.62V18.2a8.609,8.609,0,0,0-1.688.7l-1.828-1.833a.637.637,0,0,0-.876,0l-2.639,2.639a.62.62,0,0,0,0,.876L18.9,22.42a8.633,8.633,0,0,0-.679,1.679H15.62a.621.621,0,0,0-.62.62v3.722a.621.621,0,0,0,.62.62h2.613a8.71,8.71,0,0,0,.691,1.654l-1.857,1.861a.62.62,0,0,0,0,.876l2.639,2.639a.62.62,0,0,0,.876,0l1.861-1.857a8.707,8.707,0,0,0,1.654.691v2.613a.621.621,0,0,0,.62.62h3.722a.621.621,0,0,0,.62-.62v-2.6a8.607,8.607,0,0,0,1.675-.69l1.84,1.844a.62.62,0,0,0,.876,0l2.639-2.639a.62.62,0,0,0,0-.876l-1.824-1.824a8.788,8.788,0,0,0,.69-1.692h2.581a.621.621,0,0,0,.62-.62V24.719a.621.621,0,0,0-.62-.62Zm-.62,3.722H34.488a.621.621,0,0,0-.6.476,7.627,7.627,0,0,1-.927,2.226.622.622,0,0,0,.088.765l1.724,1.724L33.016,34.77l-1.733-1.733a.62.62,0,0,0-.765-.09,7.452,7.452,0,0,1-2.217.91.62.62,0,0,0-.479.583V36.92H25.34V34.439a.621.621,0,0,0-.476-.6,7.5,7.5,0,0,1-2.2-.914.62.62,0,0,0-.765.087l-1.749,1.762-1.754-1.754,1.75-1.75h0a.621.621,0,0,0,.087-.765,7.429,7.429,0,0,1-.914-2.2.62.62,0,0,0-.592-.476H16.241V25.34h2.482a.619.619,0,0,0,.6-.479,7.486,7.486,0,0,1,.91-2.217.62.62,0,0,0-.09-.765l-1.754-1.733,1.754-1.754,1.724,1.724a.622.622,0,0,0,.765.088,7.447,7.447,0,0,1,2.226-.927.621.621,0,0,0,.48-.6V16.241h2.482v2.423a.619.619,0,0,0,.479.6,7.437,7.437,0,0,1,2.237.923A.619.619,0,0,0,31.3,20.1l1.713-1.713,1.754,1.754-1.713,1.713a.619.619,0,0,0-.087.765,7.437,7.437,0,0,1,.923,2.237.619.619,0,0,0,.6.479H36.92Z" fill="#30836d"/></g><g opacity="0.8"><g transform="translate(1041.439 2809.184)" clip-path="url(#a)"><g transform="translate(5.284 2.583)" fill="none" stroke="#fff" stroke-width="2"><rect width="27.952" height="19.566" rx="4" stroke="none"/><rect x="1" y="1" width="25.952" height="17.566" rx="3" fill="none"/></g></g><g transform="translate(1057.204 2803.382)" fill="none" stroke="#fff" stroke-width="2"><rect width="27.952" height="19.566" rx="4" stroke="none"/><rect x="1" y="1" width="25.952" height="17.566" rx="3" fill="none"/></g></g></g></svg>