<svg xmlns="http://www.w3.org/2000/svg" width="10" height="14" viewBox="0 0 10 14">
  <defs>
    <style>
      .cls-1 {
        fill: #545454;
        fill-rule: evenodd;
      }
    </style>
  </defs>
  <path id="twitter.svg" class="cls-1" d="M953.321,106.791h-3.314a1.63,1.63,0,0,1-1.174-.463,1.5,1.5,0,0,1-.484-1.126v-1.127h4.723a1.533,1.533,0,0,0,1.1-.436,1.43,1.43,0,0,0,0-2.1,1.54,1.54,0,0,0-1.1-.437h-4.718V97.6a1.513,1.513,0,0,0-.491-1.131A1.633,1.633,0,0,0,946.683,96a1.678,1.678,0,0,0-1.194.463A1.511,1.511,0,0,0,945,97.605v7.6a4.519,4.519,0,0,0,1.468,3.387A4.933,4.933,0,0,0,950.009,110h3.313a1.652,1.652,0,0,0,1.183-.472,1.545,1.545,0,0,0,0-2.263A1.657,1.657,0,0,0,953.321,106.791Z" transform="translate(-945 -96)"/>
</svg>
