<svg id="logo" xmlns="http://www.w3.org/2000/svg" xmlns:xlink="http://www.w3.org/1999/xlink" width="25.285" height="26.618" viewBox="0 0 25.285 26.618">
  <defs>
    <linearGradient id="linear-gradient" x1="1" y1="0.192" x2="0" y2="0.808" gradientUnits="objectBoundingBox">
      <stop offset="0" stop-color="#30836d"/>
      <stop offset="0.315" stop-color="#30836d"/>
      <stop offset="1" stop-color="#224f43"/>
    </linearGradient>
  </defs>
  <path id="logo.svg" d="M51.063,48a1.276,1.276,0,0,1-.914-.384l-2.3-2.337a12.483,12.483,0,0,1-15.411-1.953,13.008,13.008,0,0,1,0-18.179,12.5,12.5,0,0,1,17.879,0,12.981,12.981,0,0,1-.373,18.541l2.033,2.067a1.335,1.335,0,0,1,0,1.861A1.274,1.274,0,0,1,51.063,48ZM41.372,23.55a3.276,3.276,0,0,0-1.66.455l-2.789,1.637,0,.006-.321.189-2.8,1.642-.016.011-.014.005a3.358,3.358,0,0,0-1.422,1.255,3.416,3.416,0,0,0-.527,1.83v6.924h.014v.376a3.427,3.427,0,0,0,.449,1.694,3.346,3.346,0,0,0,1.217,1.232l2.9,1.7.02.012.035.023.05.033c.032.021.061.038.086.052l3.065,1.8,0,0a3.29,3.29,0,0,0,1.686.479h.025a3.273,3.273,0,0,0,1.661-.456l2.788-1.637,0-.006.321-.188,2.8-1.643.017-.01.014-.006A3.368,3.368,0,0,0,50.4,39.712a3.428,3.428,0,0,0,.526-1.83V30.958h-.014v-.376a3.428,3.428,0,0,0-.448-1.693,3.342,3.342,0,0,0-1.217-1.233l-2.9-1.7-.021-.012c-.024-.017-.052-.035-.085-.056l-.011-.007-.076-.046-3.065-1.8,0,0A3.3,3.3,0,0,0,41.4,23.55Z" transform="translate(-28.736 -21.378)" fill="url(#linear-gradient)"/>
</svg>
