<svg xmlns="http://www.w3.org/2000/svg" width="16" height="10.312" viewBox="0 0 16 10.312">
  <defs>
    <style>
      .cls-1 {
        fill: #545454;
        fill-rule: evenodd;
      }
    </style>
  </defs>
  <path id="tube.svg" class="cls-1" d="M958.89,131.713a2.249,2.249,0,0,1-2.31,2.182c-1.821.074-3.684,0.1-5.582,0.1s-3.764-.029-5.584-0.1a2.248,2.248,0,0,1-2.309-2.182c-0.077-.957-0.111-1.91-0.108-2.865s0.031-1.909.108-2.865a2.249,2.249,0,0,1,2.309-2.183q2.6-.1,5.3-0.1h0.565q2.7,0,5.3.1a2.249,2.249,0,0,1,2.31,2.183c0.077,0.956.109,1.911,0.108,2.865S958.967,130.756,958.89,131.713ZM950,127v4l4-2Z" transform="translate(-943 -123.688)"/>
</svg>
