<svg xmlns="http://www.w3.org/2000/svg" width="14" height="12" viewBox="0 0 14 12">
  <defs>
    <style>
      .cls-1 {
        fill: #545454;
        fill-rule: evenodd;
      }
    </style>
  </defs>
  <path id="linkedin.svg" class="cls-1" d="M947.081,251h-2.729v-8.152h2.729V251Zm-1.434-9.17h-0.019A1.474,1.474,0,0,1,944,240.414,1.677,1.677,0,1,1,945.647,241.828ZM958,251h-3.094V246.78c0-1.1-.484-1.858-1.549-1.858a1.557,1.557,0,0,0-1.478,1,1.754,1.754,0,0,0-.066.666V251h-3.065s0.039-7.472,0-8.152h3.065v1.279a2.835,2.835,0,0,1,2.724-1.357c1.938,0,3.463,1.173,3.463,3.7V251Z" transform="translate(-944 -239)"/>
</svg>
