<svg xmlns="http://www.w3.org/2000/svg" width="15.031" height="15" viewBox="0 0 15.031 15">
  <defs>
    <style>
      .cls-1 {
        fill: #545454;
        fill-rule: evenodd;
      }
    </style>
  </defs>
  <path id="telegram.svg" class="cls-1" d="M957.724,283.516a1.284,1.284,0,0,0-1.041-.515,1.753,1.753,0,0,0-.828.228l-11.96,6.437a1.459,1.459,0,0,0,.14,2.743l1.528,0.62a2.545,2.545,0,0,0,.964.178c0.054,0,.108-0.007.162-0.01-0.021.027-.046,0.049-0.065,0.077a1.788,1.788,0,0,0-.041,1.669,0.126,0.126,0,0,0,.012.029c0.452,1.028.955,2.188,1.015,2.35a1.029,1.029,0,0,0,.95.676c0.645,0,.837-0.318,1.892-2.082a1.82,1.82,0,0,0,.3-0.813l0.338,0.141,1.693,0.708c0.339,0.142.637,0.267,0.793,0.334a0.972,0.972,0,0,0,.154.079,1,1,0,0,0,.374.073,1.135,1.135,0,0,0,1.054-1.052c0.049-.181.117-0.432,0.189-0.71l2.583-9.739A1.617,1.617,0,0,0,957.724,283.516ZM949.6,295.362a17.906,17.906,0,0,1-1.04,1.6,0.005,0.005,0,0,1,0,0c-0.094-.26-1.041-2.413-1.041-2.413-0.174-.431-0.143-0.8.157-0.8a0.621,0.621,0,0,1,.237.057l0.735,0.393a2.062,2.062,0,0,0,.4.22l0.038,0.015,0.069,0.036C949.722,294.774,949.9,294.885,949.6,295.362Zm7.353-10.7-2.581,9.741c-0.146.549-.268,1-0.27,1a0.021,0.021,0,0,1,0-.013s-0.421-.181-0.936-0.4l-1.694-.709c-0.515-.213-1.359-0.56-1.876-0.764l-0.086-.035-0.317-.169a0.643,0.643,0,0,1-.025-1l5.242-5.762a0.529,0.529,0,0,0,.244-0.349,1.192,1.192,0,0,0-.347.234l-6.633,5.369a1.9,1.9,0,0,1-1.142.361,1.571,1.571,0,0,1-.592-0.106l-1.527-.62c-0.517-.21-0.536-0.6-0.045-0.862l11.961-6.437a0.786,0.786,0,0,1,.359-0.109C956.941,284.037,957.058,284.267,956.953,284.664Z" transform="translate(-943 -283)"/>
</svg>
