<svg xmlns="http://www.w3.org/2000/svg" width="16" height="16" viewBox="0 0 16 16">
  <defs>
    <style>
      .cls-1 {
        fill: #545454;
        fill-rule: evenodd;
      }
    </style>
  </defs>
  <path id="instagram.svg" class="cls-1" d="M954.352,194h-6.7A4.653,4.653,0,0,0,943,198.648v6.705A4.653,4.653,0,0,0,947.648,210h6.7A4.653,4.653,0,0,0,959,205.353v-6.705A4.653,4.653,0,0,0,954.352,194Zm3.4,11.353a3.4,3.4,0,0,1-3.4,3.4h-6.7a3.4,3.4,0,0,1-3.4-3.4v-6.705a3.4,3.4,0,0,1,3.4-3.4h6.7a3.4,3.4,0,0,1,3.4,3.4v6.705ZM951,197.687A4.313,4.313,0,1,0,955.312,202,4.317,4.317,0,0,0,951,197.687Zm0,7.376A3.063,3.063,0,1,1,954.062,202,3.066,3.066,0,0,1,951,205.063Zm4.437-8.219a0.75,0.75,0,1,1-.75.749A0.749,0.749,0,0,1,955.437,196.844Z" transform="translate(-943 -194)"/>
</svg>
