<svg xmlns="http://www.w3.org/2000/svg" width="44.078" height="33.783" viewBox="0 0 44.078 33.783"><g transform="translate(1 1)"><path d="M44.128,338.774l-1.089-.612,0,0a1.219,1.219,0,0,0-.6-.163,1.2,1.2,0,0,0-.6.156l-.99.557v0l-1.108.622-.006,0,0,0a1.183,1.183,0,0,0-.5.427,1.126,1.126,0,0,0-.187.623v2.354a4.631,4.631,0,0,0,.6,1.122l1.031.58.007,0,.03.019.031.019,1.089.612h0a1.219,1.219,0,0,0,.6.163,1.2,1.2,0,0,0,.6-.155l.99-.557v0l.114-.064.994-.559.006,0,0,0a1.183,1.183,0,0,0,.5-.427,1.124,1.124,0,0,0,.187-.622v-2.354a4.649,4.649,0,0,0-.6-1.123l-1.031-.58-.007,0-.03-.018-.031-.019Z" transform="translate(-31.106 -337.998)" fill="none" stroke="#fff" stroke-width="2"/><path d="M984.531,232h-3.442s-3.089.158-3.089,3.861V245.9a3.9,3.9,0,0,0,3.862,2.317h6.445" transform="translate(-978 -228.656)" fill="none" stroke="#fff" stroke-width="2"/><path d="M987,250l4.79,4.79L987,259.58" transform="translate(-980.592 -235.071)" fill="none" stroke="#fff" stroke-width="2"/><path d="M4.542,23.32V11.735A7.229,7.229,0,0,1,2.032,0H3.8l1.1,4.62,1.3,1.3,3.126-.4.363-1.089L10.862,0h1.56A7.229,7.229,0,0,1,10.6,11.417v11.9c0,1.024-3.028,1.853-3.028,1.853S4.542,24.345,4.542,23.32Z" transform="translate(13.617 13.542) rotate(-45)" fill="none" stroke="#fff" stroke-width="2"/></g></svg>