<svg xmlns="http://www.w3.org/2000/svg" width="32.388" height="32.252" viewBox="0 0 32.388 32.252"><g transform="translate(0.624 0.513)"><path d="M45.919,36.7v.539a2.524,2.524,0,0,0,.416,5.016h.086a1.695,1.695,0,1,1-1.7,1.695.416.416,0,1,0-.831,0,2.534,2.534,0,0,0,2.032,2.477v.552a.416.416,0,1,0,.831,0v-.526a2.525,2.525,0,0,0-.33-5.029h-.086a1.695,1.695,0,1,1,1.7-1.695.416.416,0,1,0,.831,0,2.532,2.532,0,0,0-2.118-2.49V36.7a.416.416,0,1,0-.831,0Z" transform="translate(-30.757 -26.351)" fill="#fff" stroke="#fff" stroke-width="1"/><path d="M30.48,38.092a7.612,7.612,0,1,0,7.612-7.612A7.621,7.621,0,0,0,30.48,38.092Zm14.443,0a6.832,6.832,0,1,1-6.832-6.832A6.84,6.84,0,0,1,44.923,38.092Z" transform="translate(-22.472 -22.472)" fill="#fff" stroke="#fff" stroke-width="1"/><path d="M10.391,21.691a.377.377,0,0,0,.226-.076c.119-.091,11.974-8.887,23.369-3.886v2.31a.419.419,0,0,0,.21.368.374.374,0,0,0,.4-.028l6.474-4.811a.431.431,0,0,0,0-.682L34.6,10.075a.37.37,0,0,0-.4-.028.419.419,0,0,0-.21.368v1.446c-6.5-1.357-17.789-1.781-23.93,9.2a.437.437,0,0,0,.07.518.379.379,0,0,0,.265.109Zm16.984-9.735a31.762,31.762,0,0,1,6.922.821.37.37,0,0,0,.326-.084.428.428,0,0,0,.145-.323V11.213l5.4,4.014-5.4,4.014V17.452a.417.417,0,0,0-.236-.381c-9.427-4.3-19.174.612-22.847,2.862,2.776-4.1,7.552-7.977,15.69-7.977Z" transform="translate(-10 -10)" fill="#fff" stroke="#fff" stroke-width="1"/><path d="M10.168,68.67l6.474,4.811a.373.373,0,0,0,.223.075.378.378,0,0,0,.18-.047.419.419,0,0,0,.211-.368V71.694c6.5,1.359,17.791,1.781,23.93-9.2a.437.437,0,0,0-.07-.518.375.375,0,0,0-.491-.034c-.119.089-11.974,8.887-23.369,3.886v-2.31a.419.419,0,0,0-.211-.368.37.37,0,0,0-.4.028l-6.472,4.813a.43.43,0,0,0,0,.682Zm6.306-4.355V66.1a.417.417,0,0,0,.236.381c9.425,4.3,19.173-.614,22.846-2.862-3.486,5.151-10.124,9.941-22.612,7.155a.37.37,0,0,0-.326.084.428.428,0,0,0-.145.323v1.157l-5.4-4.014Z" transform="translate(-10 -42.316)" fill="#fff" stroke="#fff" stroke-width="1"/></g></svg>