<svg xmlns="http://www.w3.org/2000/svg" xmlns:xlink="http://www.w3.org/1999/xlink" width="228.193" height="63.958" viewBox="0 0 228.193 63.958"><defs><linearGradient id="a" x1="0.5" y1="0.326" x2="0.5" y2="1.142" gradientUnits="objectBoundingBox"><stop offset="0" stop-color="#399c82" stop-opacity="0.51"/><stop offset="1" stop-color="#16483a" stop-opacity="0"/></linearGradient></defs><g transform="translate(-1181.516 -266.034)" opacity="0.75"><path d="M-3235.029,1486.6s24.15-40.988,36.133-41.692c4.686-.275-.881,11.92,7.4,18.074,1.71,1.271,5.944-13.277,8.81-11.915,3.217,1.536,4.91,6.941,9.159,10.049,3.84,2.805,11.772-30.889,16.562-28.187,6.116,3.455,8.878,42.636,12.353,42.556,3.806-.088,8.335-13.326,11.965-14.368,7.927-2.259,9.308,11.739,25.017,8.106,10.572-15.858,18.81-19.78,25.722-12.334,2.667,2.874,9.007,9.518,16.916,9.514,10.808,0,12.958-26.9,19.731-33.474,4.534-4.4,11.474,3.916,17.974,2.466,7.731-1.735,19.739-11.615,19.739-11.615v62.82Z" transform="translate(4417.191 -1156.992)" opacity="0.226" fill="url(#a)"/><path d="M-3235.029,1486.61s24.15-40.988,36.133-41.692c4.686-.275-.881,11.92,7.4,18.074,1.71,1.271,5.944-13.276,8.81-11.915,3.217,1.536,4.91,6.941,9.159,10.048,3.84,2.805,11.772-30.889,16.562-28.187,6.116,3.454,8.878,42.636,12.353,42.556,3.806-.088,8.335-13.326,11.965-14.369,7.927-2.259,9.308,11.739,25.017,8.106,10.572-15.858,18.81-19.78,25.722-12.334,2.667,2.874,9.007,9.518,16.916,9.514,10.808,0,12.958-26.9,19.731-33.473,4.534-4.4,11.474,3.916,17.974,2.466,7.731-1.735,15.043-12.035,19.739-11.615" transform="translate(4417.191 -1156.998)" fill="none" stroke="#30836d" stroke-width="1.5"/></g></svg>