<svg xmlns="http://www.w3.org/2000/svg" width="28.531" height="29.317" viewBox="0 0 28.531 29.317"><g transform="translate(-21.25 -22.542)"><path d="M25.406,51.859a3.99,3.99,0,0,1-2.171-.62,3.91,3.91,0,0,1-1.985-3.349v-21.4a3.836,3.836,0,0,1,1.985-3.349,4.188,4.188,0,0,1,4.094-.124L47.672,33.686a3.94,3.94,0,0,1-.062,7.009l-.558-1.116A2.775,2.775,0,0,0,48.541,37.1a2.645,2.645,0,0,0-1.427-2.357L26.708,24.072a2.778,2.778,0,0,0-2.853.124,2.635,2.635,0,0,0-1.365,2.295v21.4a2.635,2.635,0,0,0,1.365,2.295,2.783,2.783,0,0,0,2.853.124l5.458-2.853.558,1.116-5.458,2.853A4.558,4.558,0,0,1,25.406,51.859Z" transform="translate(0 0)" fill="#fff"/><path d="M51.823,64.9a6.823,6.823,0,1,1,6.823-6.823A6.8,6.8,0,0,1,51.823,64.9Zm0-12.4A5.582,5.582,0,1,0,57.4,58.073,5.559,5.559,0,0,0,51.823,52.49Z" transform="translate(-11.965 -14.463)" fill="#fff"/><path d="M61.221,62.471H57.5V58.75h1.24v2.481h2.481Z" transform="translate(-18.263 -18.242)" fill="#fff"/></g></svg>