<svg xmlns="http://www.w3.org/2000/svg" width="40.32" height="11.52" viewBox="0 0 40.32 11.52">
  <path id="Path_606" data-name="Path 606" d="M5.664-.576A3.084,3.084,0,0,1,3.4.16Q1.872.16.16,0V-2.16q1.248.08,2.56.08A.789.789,0,0,0,3.3-2.3.789.789,0,0,0,3.52-2.88V-8.96H1.44V-11.2H6.4v8.32A3.145,3.145,0,0,1,5.664-.576ZM7.984-2.32q4.384.24,5.936.24A.789.789,0,0,0,14.5-2.3a.789.789,0,0,0,.216-.584V-4.32H11.04A3.344,3.344,0,0,1,8.6-5.08a3.344,3.344,0,0,1-.76-2.44V-8a3.344,3.344,0,0,1,.76-2.44,3.344,3.344,0,0,1,2.44-.76h5.616v2.24H11.68a.849.849,0,0,0-.96.96v.32a.849.849,0,0,0,.96.96h2.88a3.145,3.145,0,0,1,2.3.736,3.145,3.145,0,0,1,.736,2.3v.8a3.145,3.145,0,0,1-.736,2.3,3.145,3.145,0,0,1-2.3.736q-.816,0-1.728-.032L11.36.064Q9.728-.016,7.984-.16ZM26.24-8.16a.849.849,0,0,0-.96-.96H22.56a.849.849,0,0,0-.96.96v5.12a.849.849,0,0,0,.96.96h2.72a.849.849,0,0,0,.96-.96Zm2.88,5.12A3.344,3.344,0,0,1,28.36-.6a3.344,3.344,0,0,1-2.44.76h-4A3.344,3.344,0,0,1,19.48-.6a3.344,3.344,0,0,1-.76-2.44V-8.16a3.344,3.344,0,0,1,.76-2.44,3.344,3.344,0,0,1,2.44-.76h4a3.344,3.344,0,0,1,2.44.76,3.344,3.344,0,0,1,.76,2.44ZM40.48,0H37.44L33.6-6.72V0H30.72V-11.2h3.04L37.6-4.48V-11.2h2.88Z" transform="translate(-0.16 11.36)" fill="#fff"/>
</svg>
