<svg xmlns="http://www.w3.org/2000/svg" width="33.361" height="43.834" viewBox="0 0 33.361 43.834"><g transform="translate(-13.801 -2.475)"><path d="M13.8,8.66V40.041c0,4.1,8.386,6.268,16.68,6.268s16.68-2.165,16.68-6.268V8.66C47.162.413,13.8.413,13.8,8.66Zm16.68-3.64c9.263,0,14.054,2.534,14.054,3.64s-4.791,3.595-14.054,3.595S16.427,9.72,16.427,8.615,21.218,5.02,30.481,5.02Zm0,38.615c-9.263,0-14.054-2.534-14.054-3.64V33.082c3.134,1.8,8.616,2.718,14.054,2.718s10.92-.922,14.054-2.718v6.959c0,1.06-4.791,3.595-14.054,3.595Zm0-10.46c-9.263,0-14.054-2.534-14.054-3.64V22.623c3.134,1.8,8.616,2.718,14.054,2.718s10.92-.922,14.054-2.718v6.959c0,1.06-4.791,3.595-14.054,3.595Zm0-10.461c-9.263,0-14.054-2.534-14.054-3.64V12.163c3.134,1.8,8.616,2.718,14.054,2.718s10.92-.922,14.054-2.718v6.959c0,1.058-4.791,3.593-14.054,3.593Z" transform="translate(0 0)" fill="#fff"/><path d="M68.5,34.252a1.751,1.751,0,0,1-3.5,0,1.751,1.751,0,0,1,3.5,0" transform="translate(-27.607 -16.191)" fill="#fff"/><path d="M68.5,56.951a1.751,1.751,0,0,1-3.5,0,1.751,1.751,0,0,1,3.5,0" transform="translate(-27.607 -28.43)" fill="#fff"/><path d="M68.5,79.65a1.751,1.751,0,0,1-3.5,0,1.751,1.751,0,0,1,3.5,0" transform="translate(-27.607 -40.669)" fill="#fff"/></g></svg>