<svg xmlns="http://www.w3.org/2000/svg" width="34.162" height="28.383" viewBox="0 0 34.162 28.383"><g transform="translate(-5.611 -13.332)"><path d="M80.857,19.9a16.329,16.329,0,0,1,0,23.094" transform="translate(-46.617 -3.642)" fill="none" stroke="#fff" stroke-linecap="round" stroke-linejoin="round" stroke-miterlimit="10" stroke-width="1.5"/><path d="M75.035,18.438V14.081h4.356" transform="translate(-42.974 0)" fill="none" stroke="#fff" stroke-linecap="round" stroke-linejoin="round" stroke-miterlimit="10" stroke-width="1.5"/><path d="M77.215,16.26l-2.178-2.178" transform="translate(-42.975 0)" fill="none" stroke="#fff" stroke-linecap="round" stroke-linejoin="round" stroke-miterlimit="10" stroke-width="1.5"/><path d="M11.145,19.9a16.329,16.329,0,0,0,0,23.094l1.627,1.611" transform="translate(0 -3.642)" fill="none" stroke="#fff" stroke-linecap="round" stroke-linejoin="round" stroke-miterlimit="10" stroke-width="1.5"/><path d="M16.754,75.144v4.032h-4.03" transform="translate(-3.981 -38.212)" fill="none" stroke="#fff" stroke-linecap="round" stroke-linejoin="round" stroke-miterlimit="10" stroke-width="1.5"/><path d="M58.891,61.854a1.4,1.4,0,1,0,1.4-1.4,1.4,1.4,0,1,1,1.4-1.4" transform="translate(-32.872 -27.265)" fill="none" stroke="#fff" stroke-linecap="round" stroke-linejoin="round" stroke-miterlimit="10" stroke-width="1.5"/><path d="M62.633,56.787v-.52" transform="translate(-35.213 -26.398)" fill="none" stroke="#fff" stroke-linecap="round" stroke-linejoin="round" stroke-miterlimit="10" stroke-width="1.5"/><path d="M62.633,73.141v-.52" transform="translate(-35.213 -36.633)" fill="none" stroke="#fff" stroke-linecap="round" stroke-linejoin="round" stroke-miterlimit="10" stroke-width="1.5"/><path d="M59.206,56.619a5.1,5.1,0,1,1-5.094-5.1,5.094,5.094,0,0,1,5.094,5.1" transform="translate(-26.692 -23.43)" fill="none" stroke="#fff" stroke-linecap="round" stroke-linejoin="round" stroke-miterlimit="10" stroke-width="1.5"/><path d="M36.149,38.051H33.055s.748-.341.816-2.313V33.889a1.362,1.362,0,0,1,.364-.953,1,1,0,0,1,.743-.319,1.3,1.3,0,0,1,1.31.952" transform="translate(-16.704 -11.599)" fill="none" stroke="#fff" stroke-linecap="round" stroke-linejoin="round" stroke-miterlimit="10" stroke-width="1.5"/><path d="M33.511,41.595h1.965" transform="translate(-16.99 -17.217)" fill="none" stroke="#fff" stroke-linecap="round" stroke-linejoin="round" stroke-miterlimit="10" stroke-width="1.5"/><path d="M33.944,31.357a5.1,5.1,0,1,1-5.1-5.1,5.1,5.1,0,0,1,5.1,5.1" transform="translate(-10.883 -7.622)" fill="none" stroke="#fff" stroke-linecap="round" stroke-linejoin="round" stroke-miterlimit="10" stroke-width="1.5"/></g></svg>