<svg xmlns="http://www.w3.org/2000/svg" xmlns:xlink="http://www.w3.org/1999/xlink" width="228.015" height="45.164" viewBox="0 0 228.015 45.164"><defs><linearGradient id="a" x1="0.5" y1="0.326" x2="0.5" y2="1.142" gradientUnits="objectBoundingBox"><stop offset="0" stop-color="#399c82" stop-opacity="0.51"/><stop offset="1" stop-color="#16483a" stop-opacity="0"/></linearGradient></defs><g transform="translate(-1181.628 -276.622)" opacity="0.75"><path d="M-3235.029,1473.939s8.742-8.868,24.85-20.369c5.4-.854,15.024,8.176,23.006,9.2,5.6.719,10.8,6.109,15.189,6.442,15.805,1.206,15.726-6.164,27.785-6.442,14.76-.34,21.919-22.827,32.041-24.529,3.978-.669,9.065,7.408,18.4,8.884,12.71,2.006,30.6-1.455,34.811,3.085,6.943,7.48,15.34-1.211,26.422-11.969s22.986,4.372,24.362,4.741,0,35.77,0,35.77h-226.869Z" transform="translate(4417.191 -1156.969)" opacity="0.226" fill="url(#a)"/><path d="M-3235.029,1473.968s8.742-8.868,24.85-20.369c5.4-.854,15.024,8.176,23.006,9.2,5.6.719,10.8,6.109,15.189,6.442,15.805,1.206,15.726-6.164,27.785-6.442,14.76-.34,21.919-22.827,32.041-24.529,3.978-.669,9.065,7.408,18.4,8.884,12.71,2.006,30.6-1.455,34.811,3.085,6.943,7.48,15.34-1.211,26.422-11.969s16.353,4.024,24.362,4.741" transform="translate(4417.191 -1156.998)" fill="none" stroke="#30836d" stroke-width="1.5"/></g></svg>