<svg xmlns="http://www.w3.org/2000/svg" xmlns:xlink="http://www.w3.org/1999/xlink" width="229.099" height="64.122" viewBox="0 0 229.099 64.122"><defs><linearGradient id="a" x1="0.5" y1="0.326" x2="0.5" y2="1.142" gradientUnits="objectBoundingBox"><stop offset="0" stop-color="#399c82" stop-opacity="0.51"/><stop offset="1" stop-color="#16483a" stop-opacity="0"/></linearGradient></defs><g transform="translate(-1181.517 -266.034)" opacity="0.75"><path d="M-3235.029,1486.773s16.361-27.6,46.873-23.674,29.03,12.871,43.758,12.532,20.127-7.618,41.377-12.532,36.763-7.464,43.691,0,15.307-1.208,26.365-11.943,24.982-28.271,25.957-27.352,0,62.969,0,62.969Z" transform="translate(4417.191 -1157)" opacity="0.226" fill="url(#a)"/><path d="M-3235.029,1486.764s16.361-27.6,46.873-23.674,29.03,12.871,43.758,12.532,20.127-7.618,41.377-12.532,36.763-7.464,43.691,0,15.307-1.208,26.365-11.943,17.965-28.068,25.957-27.352" transform="translate(4417.191 -1156.991)" fill="none" stroke="#30836d" stroke-width="1.5"/></g></svg>