<svg xmlns="http://www.w3.org/2000/svg" width="34.164" height="30.509" viewBox="0 0 34.164 30.509"><g transform="translate(-3.656 -10.984)"><path d="M16.436,33.915a3.6,3.6,0,0,1-3.6-3.6V10.984h7.2V30.314a3.6,3.6,0,0,1-3.6,3.6Zm-2.471-21.8v18.2a2.471,2.471,0,1,0,4.941,0v-18.2Z" transform="translate(-5.796 0)" fill="#fff"/><path d="M10.371,10.984h9.018v1.129H10.371Z" transform="translate(-4.24)" fill="#fff"/><path d="M44.014,33.915a3.6,3.6,0,0,1-3.6-3.6V10.984h7.2V30.314a3.6,3.6,0,0,1-3.6,3.6Zm-2.471-21.8v18.2a2.471,2.471,0,1,0,4.941,0v-18.2Z" transform="translate(-23.21 0)" fill="#fff"/><path d="M37.949,10.984h9.018v1.129H37.949Z" transform="translate(-21.653)" fill="#fff"/><path d="M71.589,33.915a3.6,3.6,0,0,1-3.6-3.6V10.984h7.2V30.314a3.6,3.6,0,0,1-3.6,3.6Zm-2.471-21.8v18.2a2.471,2.471,0,1,0,4.941,0v-18.2Z" transform="translate(-40.62 0)" fill="#fff"/><path d="M65.523,10.984h9.018v1.129H65.523Z" transform="translate(-39.063)" fill="#fff"/><path d="M20.258,87.95H13.684V84.563H20.26Zm-5.445-1.13H19.13V85.691H14.813Z" transform="translate(-6.332 -46.458)" fill="#fff"/><path d="M75.408,87.95H68.832V84.563h6.576Zm-5.445-1.13h4.317V85.691H69.962Z" transform="translate(-41.153 -46.458)" fill="#fff"/><path d="M37.82,54.625H3.656V35.363H37.819ZM4.786,53.5h31.9v-17H4.787Z" transform="translate(0 -15.393)" fill="#fff"/><path d="M24.168,58.785H25.3v1H24.168Z" transform="translate(-12.951 -30.182)" fill="#fff"/><path d="M24.168,42.09H25.3v4.884H24.168Z" transform="translate(-12.951 -19.641)" fill="#fff"/><path d="M79.316,58.785h1.129v1H79.316Z" transform="translate(-47.772 -30.182)" fill="#fff"/><path d="M79.316,42.09h1.129v4.884H79.316Z" transform="translate(-47.772 -19.641)" fill="#fff"/><path d="M51.934,58.785h1.129v1H51.934Z" transform="translate(-30.483 -30.182)" fill="#fff"/><path d="M51.934,42.09h1.129v4.884H51.934Z" transform="translate(-30.483 -19.641)" fill="#fff"/></g></svg>