<svg xmlns="http://www.w3.org/2000/svg" width="26.799" height="28.137" viewBox="0 0 26.799 28.137"><path d="M32.45,6.847h-4.02V4.168H27.09V6.847H16.371V4.168H15.032V6.847h-4.02A2.68,2.68,0,0,0,8.332,9.527v20.1A2.679,2.679,0,0,0,11.011,32.3H32.45a2.679,2.679,0,0,0,2.679-2.679V9.527A2.68,2.68,0,0,0,32.45,6.847Zm1.34,18.758H17.712v1.32l2.679,2.679,2.679-2.679H33.789v2.7a1.342,1.342,0,0,1-1.34,1.34H11.013a1.342,1.342,0,0,1-1.34-1.34v-13.4H33.791Zm0-10.719H9.672V9.527a1.342,1.342,0,0,1,1.34-1.34h4.02v2.679h1.34V8.188H27.09v2.679h1.34V8.188h4.02a1.342,1.342,0,0,1,1.34,1.34Zm-18.752,9.36-2.679-2.679v-1.32H29.779v1.32H17.719Z" transform="translate(-8.332 -4.168)" fill="#fff"/></svg>