<svg xmlns="http://www.w3.org/2000/svg" width="47.13" height="46.689" viewBox="0 0 47.13 46.689"><g transform="translate(0.999)"><path d="M0,0,.019.011C.043.026.071.043.1.061L.186.11,3.165,1.76l0,0A3.361,3.361,0,0,0,4.808,2.2a3.333,3.333,0,0,0,1.638-.419l2.71-1.5L9.465.1" transform="translate(2.202 24.233) rotate(90)" fill="none" stroke="#fff" stroke-width="2"/><path d="M0,0,.019.011C.043.026.071.043.1.061L.186.11,3.165,1.76l0,0A3.361,3.361,0,0,0,4.808,2.2a3.333,3.333,0,0,0,1.638-.419l2.71-1.5L9.465.1" transform="translate(42.928 33.698) rotate(-90)" fill="none" stroke="#fff" stroke-width="2"/><g transform="translate(-33.303 -328.027)" fill="none"><path d="M64.753,341.92l-5.5-3.092-.008-.009A6.165,6.165,0,0,0,56.217,338a6.083,6.083,0,0,0-3.026.786l-5,2.813.006.011-.578.322-5.024,2.824-.03.017-.025.011a5.976,5.976,0,0,0-2.552,2.157,5.69,5.69,0,0,0-.944,3.147v11.9h.025v.647a5.7,5.7,0,0,0,.805,2.909,5.834,5.834,0,0,0,2.185,2.117l5.212,2.931.037.022c.043.031.094.059.152.094s.111.067.155.094l5.5,3.092.008.007a6.16,6.16,0,0,0,3.026.821,6.077,6.077,0,0,0,3.027-.784l5.005-2.815-.006-.009.576-.324,5.025-2.824.03-.018.024-.011a5.975,5.975,0,0,0,2.551-2.157,5.682,5.682,0,0,0,.944-3.144v-11.9H73.3v-.647a5.721,5.721,0,0,0-.805-2.913,5.862,5.862,0,0,0-2.184-2.118L65.1,342.125l-.036-.019-.153-.091c-.059-.037-.111-.07-.155-.094Z" stroke="none"/><path d="M 56.17997741699219 339.9981994628906 C 55.4815559387207 339.9981994628906 54.78713607788086 340.1813049316406 54.17071533203125 340.5283203125 L 50.8790283203125 342.3785705566406 L 50.88839721679688 342.3959350585938 L 49.16608428955078 343.3562622070312 L 48.58855819702148 343.6782531738281 L 48.58854675292969 343.67822265625 L 43.58193969726562 346.4921264648438 L 43.56113433837891 346.504150390625 L 43.46681976318359 346.5586853027344 L 43.36713409423828 346.6025695800781 L 43.34971618652344 346.6102600097656 C 42.65402984619141 346.9201965332031 42.067138671875 347.4156799316406 41.65277099609375 348.0425720214844 C 41.25197601318359 348.6495056152344 41.04008483886719 349.3564758300781 41.04008483886719 350.0870361328125 L 41.04008483886719 356.357666015625 L 41.04008483886719 359.9833984375 L 41.06497955322266 359.9833984375 L 41.06497955322266 361.9833984375 L 41.06497955322266 362.62841796875 C 41.06576538085938 363.288818359375 41.24708557128906 363.94189453125 41.58945465087891 364.5173034667969 C 41.93339538574219 365.0956115722656 42.43081665039062 365.5770568847656 43.02797698974609 365.909423828125 L 43.03176879882812 365.9115295410156 L 43.03556060791016 365.9136352539062 L 48.24781799316406 368.8444213867188 L 48.2647705078125 368.85400390625 L 48.28160858154297 368.8638305664062 L 48.31829071044922 368.8854064941406 L 48.39292526245117 368.9293518066406 L 48.42573165893555 368.9526977539062 L 48.42755508422852 368.9537658691406 C 48.44781875610352 368.9657287597656 48.46871566772461 368.9781494140625 48.49039840698242 368.9912414550781 L 48.50518798828125 369.0001525878906 L 48.51976776123047 369.0093078613281 C 48.54434585571289 369.0247802734375 48.56703186035156 369.0381469726562 48.58755874633789 369.0503540039062 C 48.59777450561523 369.0564575195312 48.60773468017578 369.0624084472656 48.61743927001953 369.0682067871094 L 54.09366226196289 372.1451416015625 L 54.26618957519531 372.2420959472656 L 54.2690315246582 372.2445373535156 C 54.84889984130859 372.5485534667969 55.50048446655273 372.7113952636719 56.16376876831055 372.7168884277344 L 56.18661117553711 372.7169494628906 C 56.88697814941406 372.7169494628906 57.58060836791992 372.5347290039062 58.19355773925781 372.189453125 L 61.3291015625 370.4256286621094 L 61.32413482666016 370.4180908203125 L 63.19187164306641 369.3659362792969 L 63.76966094970703 369.0404663085938 L 68.77761840820312 366.2263793945312 L 68.79244995117188 366.2176818847656 L 68.8985595703125 366.1554260253906 L 69.01150512695312 366.1065673828125 L 69.02515411376953 366.1006774902344 C 69.71624755859375 365.7906494140625 70.29949951171875 365.2968139648438 70.71134948730469 364.6736755371094 C 71.11286926269531 364.0647888183594 71.32513427734375 363.3583984375 71.32513427734375 362.6308898925781 L 71.32513427734375 356.357666015625 L 71.32513427734375 352.7337341308594 L 71.30323791503906 352.7337341308594 L 71.3006591796875 350.7362976074219 L 71.29981994628906 350.0885620117188 C 71.29929351806641 349.4277648925781 71.11761474609375 348.7727355957031 70.77523803710938 348.1957397460938 C 70.43350219726562 347.6208801269531 69.93424224853516 347.1382141113281 69.33024597167969 346.7991943359375 L 64.13603210449219 343.8789978027344 L 64.11981964111328 343.870361328125 L 64.07166290283203 343.8447265625 L 64.02503204345703 343.8164672851562 C 63.98550415039062 343.7925109863281 63.94013595581055 343.7652587890625 63.88692474365234 343.7336730957031 L 63.86287307739258 343.7193603515625 L 63.83918762207031 343.7044067382812 C 63.81785583496094 343.6908874511719 63.79822158813477 343.6782531738281 63.78023910522461 343.6675109863281 L 63.77366256713867 343.663818359375 L 58.27187347412109 340.5720520019531 L 58.04589462280273 340.4450073242188 C 57.47445678710938 340.1562805175781 56.84272003173828 340.0024108886719 56.20834732055664 339.998291015625 L 56.17997741699219 339.9981994628906 M 56.17996215820312 337.9981994628906 C 56.19225311279297 337.9981994628906 56.20463943481445 337.9982299804688 56.21692657470703 337.998291015625 C 57.27971649169922 338.0051879882812 58.32829284667969 338.2925109863281 59.24392700195312 338.81982421875 L 59.25166320800781 338.8284606933594 L 64.75344848632812 341.9202575683594 C 64.79750061035156 341.9443969726562 64.84971618652344 341.97705078125 64.908447265625 342.0141906738281 C 64.96719360351562 342.0491027832031 65.01734924316406 342.0792541503906 65.06097412109375 342.1056823730469 L 65.0972900390625 342.1250305175781 L 70.31034851074219 345.0558471679688 C 71.25003051757812 345.5831909179688 71.98661041259766 346.319580078125 72.49440002441406 347.1737365722656 C 73.0205078125 348.0603637695312 73.29902648925781 349.06689453125 73.29981994628906 350.0870361328125 L 73.3006591796875 350.7337341308594 L 73.32513427734375 350.7337341308594 L 73.32513427734375 356.357666015625 L 73.32513427734375 362.6308898925781 C 73.32513427734375 363.7917785644531 72.97887420654297 364.8681030273438 72.3809814453125 365.7747192382812 C 71.76187133789062 366.7115173339844 70.87644958496094 367.4654235839844 69.82950592041016 367.9318237304688 L 69.80503082275391 367.9424133300781 L 69.77481842041016 367.9601440429688 L 64.74939727783203 370.7840576171875 L 64.17350769042969 371.1084594726562 L 64.17918395996094 371.1170959472656 L 59.17413711547852 373.9325561523438 C 58.23141098022461 374.463623046875 57.20139694213867 374.7169494628906 56.18659973144531 374.7169494628906 C 56.17361450195312 374.7169494628906 56.16053771972656 374.7169189453125 56.14755630493164 374.7168273925781 C 55.08471298217773 374.7080383300781 54.03734588623047 374.4247131347656 53.12176895141602 373.8954772949219 L 53.11397933959961 373.8887939453125 L 47.61139678955078 370.7970275878906 C 47.56734466552734 370.770263671875 47.5155029296875 370.7402954101562 47.45639801025391 370.7031860351562 C 47.39845275878906 370.668212890625 47.34745025634766 370.6400451660156 47.30423736572266 370.6093139648438 L 47.26755523681641 370.5877380371094 L 42.05529022216797 367.6569519042969 C 41.11602783203125 367.1341552734375 40.37824249267578 366.3934631347656 39.87045288085938 365.5395812988281 C 39.34519195556641 364.6567687988281 39.06623840332031 363.6524047851562 39.06497955322266 362.6308898925781 L 39.06497955322266 361.9833984375 L 39.04008483886719 361.9833984375 L 39.04008483886719 356.357666015625 L 39.04008483886719 350.0870361328125 C 39.04008483886719 348.9255065917969 39.38676452636719 347.8445739746094 39.98387145996094 346.9403991699219 C 40.60298156738281 346.0037231445312 41.48839569091797 345.25 42.5357666015625 344.7833557128906 L 42.56060791015625 344.7723999023438 L 42.59040069580078 344.7551879882812 L 47.61460876464844 341.931396484375 L 48.192138671875 341.6094055175781 L 48.18598175048828 341.5979919433594 L 53.19071578979492 338.7848205566406 C 54.13522720336914 338.253173828125 55.16487884521484 337.9981689453125 56.17996215820312 337.9981994628906 Z" stroke="none" fill="#fff"/></g><path d="M45.251,339l-1.309-.736,0,0a1.467,1.467,0,0,0-.72-.2,1.447,1.447,0,0,0-.72.187l-1.191.669v0l-.137.077-1.2.672-.007,0-.006,0a1.423,1.423,0,0,0-.607.513,1.354,1.354,0,0,0-.225.749v2.831h.006v.154a1.357,1.357,0,0,0,.192.692,1.388,1.388,0,0,0,.52.5l1.24.7.009.005.036.022.037.022,1.309.736,0,0a1.465,1.465,0,0,0,.72.2,1.446,1.446,0,0,0,.72-.187l1.191-.67v0l.137-.077,1.2-.672.007,0,.006,0a1.421,1.421,0,0,0,.607-.513,1.352,1.352,0,0,0,.225-.748V341.1h-.006v-.154a1.362,1.362,0,0,0-.192-.693,1.4,1.4,0,0,0-.52-.5l-1.241-.7-.009,0-.036-.022L45.251,339Z" transform="translate(-20.152 -338.07)" fill="#fff"/><path d="M42.6,338.542l-.763-.429h0a.854.854,0,0,0-.42-.114.844.844,0,0,0-.419.109l-.694.39v0l-.08.045-.7.391,0,0h0a.829.829,0,0,0-.354.3.788.788,0,0,0-.131.436v1.649h0v.09a.79.79,0,0,0,.112.4.808.808,0,0,0,.3.294l.723.406.005,0,.021.013.021.013.763.429h0a.855.855,0,0,0,.419.114.842.842,0,0,0,.42-.109l.694-.39h0l.08-.045.7-.392,0,0,0,0a.827.827,0,0,0,.354-.3.788.788,0,0,0,.131-.436v-1.649h0v-.09a.793.793,0,0,0-.112-.4.813.813,0,0,0-.3-.294l-.723-.406-.005,0-.021-.013-.021-.013Z" transform="translate(-23.683 -315.759)" fill="#fff"/><path d="M42.6,338.542l-.763-.429h0a.854.854,0,0,0-.42-.114.844.844,0,0,0-.419.109l-.694.39v0l-.08.045-.7.391,0,0h0a.829.829,0,0,0-.354.3.788.788,0,0,0-.131.436v1.649h0v.09a.79.79,0,0,0,.112.4.808.808,0,0,0,.3.294l.723.406.005,0,.021.013.021.013.763.429h0a.855.855,0,0,0,.419.114.842.842,0,0,0,.42-.109l.694-.39h0l.08-.045.7-.392,0,0,0,0a.827.827,0,0,0,.354-.3.788.788,0,0,0,.131-.436v-1.649h0v-.09a.793.793,0,0,0-.112-.4.813.813,0,0,0-.3-.294l-.723-.406-.005,0-.021-.013-.021-.013Z" transform="translate(-13.353 -315.759)" fill="#fff"/><path d="M0,3.4H3.443V7.878H0Z" transform="translate(21.388 3.817)" fill="#fff"/><rect width="15.61" height="3.903" rx="1.951" transform="translate(15.357 31.079)" fill="#fff"/></g></svg>