<svg xmlns="http://www.w3.org/2000/svg" xmlns:xlink="http://www.w3.org/1999/xlink" width="228.751" height="45.431" viewBox="0 0 228.751 45.431"><defs><linearGradient id="a" x1="0.5" y1="0.326" x2="0.5" y2="1.142" gradientUnits="objectBoundingBox"><stop offset="0" stop-color="#399c82" stop-opacity="0.51"/><stop offset="1" stop-color="#16483a" stop-opacity="0"/></linearGradient></defs><g transform="translate(-1181.891 -274.595)" opacity="0.75"><path d="M-3235.029,1476.312s31.484-12.206,61.99-8.284,16-21.907,30.725-22.246,7,19.04,28.249,14.126,23.447-7.462,30.375,0,8.013-3.394,19.069-14.126c1.769-1.717,6.44,11.024,9.89,8.474,3.146-2.327,3.788-15.038,8.12-19.069,3.119-2.9,9.686,11.338,13.771,8.474,11.637-8.165,25.787-11.036,26.137-11.3s0,43.951,0,43.951Z" transform="translate(4417.191 -1156.984)" opacity="0.226" fill="url(#a)"/><path d="M-3235.029,1476.326s31.484-12.206,61.99-8.284,16-21.907,30.725-22.246,7,19.04,28.249,14.126,23.447-7.462,30.375,0,8.013-3.394,19.069-14.126c1.769-1.717,6.44,11.024,9.89,8.474,3.146-2.327,3.788-15.038,8.12-19.069,3.119-2.9,9.686,11.338,13.771,8.474,11.637-8.165,22.027-11.668,26.137-11.3" transform="translate(4417.191 -1156.999)" fill="none" stroke="#30836d" stroke-width="1.5"/></g></svg>