<svg xmlns="http://www.w3.org/2000/svg" width="59.289" height="36.109" viewBox="0 0 59.289 36.109"><path d="M61.921,22.9a2.957,2.957,0,0,0-2.93,2.93,2.813,2.813,0,0,0,1.067,2.2L50.131,42.949a2.859,2.859,0,0,0-1.465-.4A3.251,3.251,0,0,0,46,43.949l-7.729-4.262a3.911,3.911,0,0,0,.265-1.265,3.2,3.2,0,0,0-3.2-3.2,3.241,3.241,0,0,0-3.2,3.2,2.8,2.8,0,0,0,.6,1.8l-8.522,7.26a3.242,3.242,0,0,0-2.2-.867,3.2,3.2,0,0,0-3.2,3.2,2.684,2.684,0,0,0,.2,1l-7.528,3.4a3.248,3.248,0,0,0-2.8-1.6,3.2,3.2,0,0,0-3.2,3.2,3.2,3.2,0,0,0,6.4,0,2.684,2.684,0,0,0-.2-1l7.528-3.4a3.248,3.248,0,0,0,2.8,1.6,3.2,3.2,0,0,0,3.2-3.2,2.8,2.8,0,0,0-.6-1.8l8.459-7.195a3.23,3.23,0,0,0,4.863-.533l7.729,4.262a3.911,3.911,0,0,0-.265,1.265,3.2,3.2,0,0,0,3.2,3.2,3.241,3.241,0,0,0,3.2-3.2,3.154,3.154,0,0,0-1.2-2.464l9.924-14.92a3.031,3.031,0,0,0,1.332.333,2.957,2.957,0,0,0,2.93-2.93A2.863,2.863,0,0,0,61.921,22.9Z" transform="translate(-5.5 -22.898)" fill="#fff"/></svg>