<svg xmlns="http://www.w3.org/2000/svg" width="51.985" height="46.042" viewBox="0 0 51.985 46.042"><g transform="translate(-273.529 -1819.261)"><g transform="translate(240.499 1481.262)" opacity="0.8"><g transform="translate(7.179)" fill="none"><path d="M54.325,340.33l-3.27-1.838,0-.005a3.662,3.662,0,0,0-1.8-.488,3.615,3.615,0,0,0-1.8.467l-2.975,1.672,0,.007-.343.191-2.987,1.679-.018.01-.015.007a3.551,3.551,0,0,0-1.517,1.282,3.382,3.382,0,0,0-.561,1.87v7.072h.015v.385a3.39,3.39,0,0,0,.479,1.729,3.468,3.468,0,0,0,1.3,1.259l3.1,1.742.022.013c.026.018.056.035.09.056l.092.056,3.271,1.838,0,0a3.662,3.662,0,0,0,1.8.488,3.613,3.613,0,0,0,1.8-.466l2.975-1.673,0-.005.342-.193,2.987-1.679.018-.01.015-.006a3.552,3.552,0,0,0,1.517-1.282,3.378,3.378,0,0,0,.561-1.869v-7.072h-.015v-.385a3.4,3.4,0,0,0-.479-1.732,3.486,3.486,0,0,0-1.3-1.259l-3.1-1.742-.022-.012-.091-.054c-.035-.022-.066-.041-.092-.056Z" stroke="none"/><path d="M 49.22746658325195 339.998291015625 C 48.95204544067383 339.998291015625 48.67704391479492 340.0710754394531 48.43157196044922 340.2091674804688 L 47.18670654296875 340.908935546875 L 47.19357299804688 340.92138671875 L 45.4544677734375 341.8912658691406 L 45.11699295043945 342.0795288085938 L 42.13619995117188 343.7550048828125 L 42.12894058227539 343.7591857910156 L 42.0370979309082 343.8119201660156 L 41.94020462036133 343.8547058105469 L 41.92704772949219 343.8605041503906 C 41.65707015991211 343.9817810058594 41.42985153198242 344.1738891601562 41.27004623413086 344.4157104492188 C 41.11962509155273 344.6435546875 41.04009628295898 344.9092407226562 41.04009628295898 345.18408203125 L 41.04009628295898 348.911376953125 L 41.04009628295898 350.2556457519531 L 41.05488586425781 350.2556457519531 L 41.05488586425781 352.2556457519531 L 41.05488586425781 352.6379089355469 C 41.05520248413086 352.8849792480469 41.12346649169922 353.1300048828125 41.25278091430664 353.3472900390625 C 41.3840446472168 353.5680847167969 41.57509613037109 353.7525024414062 41.8053092956543 353.8806457519531 L 41.80899429321289 353.8826904296875 L 41.81267547607422 353.884765625 L 44.91093826293945 355.6268615722656 L 44.9293098449707 355.6371765136719 L 44.94741439819336 355.6479187011719 L 44.96925735473633 355.6607971191406 L 45.04120254516602 355.7032165527344 L 45.06126403808594 355.7174682617188 C 45.06704330444336 355.7209167480469 45.07289886474609 355.7244262695312 45.07883453369141 355.72802734375 L 45.09141540527344 355.7356567382812 L 45.10383605957031 355.7434387207031 C 45.1158332824707 355.7509765625 45.12678146362305 355.75732421875 45.13656997680664 355.7631225585938 L 45.13813018798828 355.7640686035156 L 48.3857307434082 357.5888671875 L 48.48802185058594 357.6463317871094 C 48.71399307250977 357.7610473632812 48.9670295715332 357.8224792480469 49.22251892089844 357.8246459960938 L 49.23230743408203 357.8246459960938 C 49.50951766967773 357.8246459960938 49.78414916992188 357.75244140625 50.02783584594727 357.6151733398438 L 51.14044189453125 356.9893493652344 L 51.13825607299805 356.9860229492188 L 52.99778366088867 355.9375915527344 L 53.34262466430664 355.7431640625 L 56.3170166015625 354.0718383789062 L 56.32330703735352 354.0681762695312 L 56.42630767822266 354.0083312988281 L 56.53572845458984 353.961181640625 L 56.53672027587891 353.9607543945312 C 56.80490112304688 353.8393249511719 57.03075408935547 353.6478576660156 57.18904495239258 353.4083862304688 C 57.34230804443359 353.1759643554688 57.41999435424805 352.9175415039062 57.41999435424805 352.6403198242188 L 57.41999435424805 348.911376953125 L 57.41999435424805 347.568603515625 L 57.40793991088867 347.568603515625 L 57.40546798706055 345.5710754394531 L 57.40499114990234 345.1858215332031 C 57.40478134155273 344.9382934570312 57.33599090576172 344.6917419433594 57.20709609985352 344.4744873046875 C 57.0745735168457 344.2515869140625 56.88683319091797 344.0709228515625 56.64783477783203 343.936767578125 L 53.56471633911133 342.2034606933594 L 53.55862426757812 342.2001647949219 L 53.51909637451172 342.1789245605469 L 53.48062515258789 342.1558532714844 L 53.44841384887695 342.1365356445312 L 53.3924674987793 342.1030578613281 L 53.36936187744141 342.0892944335938 L 53.34662246704102 342.0748596191406 L 53.33440780639648 342.0671691894531 L 50.0745735168457 340.2353210449219 L 49.95626068115234 340.1688537597656 C 49.73226928710938 340.0584716796875 49.48602676391602 339.9997863769531 49.23704528808594 339.998291015625 L 49.22746658325195 339.998291015625 M 49.22748184204102 337.9982604980469 C 49.23512268066406 337.9982604980469 49.24277496337891 337.998291015625 49.25041198730469 337.9983215332031 C 49.8822021484375 338.0021667480469 50.50551986694336 338.1731262207031 51.04972839355469 338.4866027832031 L 51.05435943603516 338.4917602539062 L 54.32478332519531 340.3295288085938 C 54.3509407043457 340.3438720703125 54.38199234008789 340.3632202148438 54.41688919067383 340.3853454589844 C 54.45183563232422 340.4061889648438 54.48162460327148 340.4241333007812 54.50757217407227 340.4396362304688 L 54.52915191650391 340.4512939453125 L 57.6279411315918 342.1933898925781 C 58.18646621704102 342.5068664550781 58.62436294555664 342.9447631835938 58.92615127563477 343.4522705078125 C 59.23888778686523 343.9793701171875 59.40446472167969 344.5776977539062 59.40499114990234 345.18408203125 L 59.40546798706055 345.568603515625 L 59.41999435424805 345.568603515625 L 59.41999435424805 348.911376953125 L 59.41999435424805 352.6403198242188 C 59.41999435424805 353.3305053710938 59.21414947509766 353.9702758789062 58.85878372192383 354.50927734375 C 58.49073028564453 355.066162109375 57.96441268920898 355.51416015625 57.34209823608398 355.79150390625 L 57.32757186889648 355.7977600097656 L 57.30962371826172 355.8081665039062 L 54.32236099243164 357.4867553710938 L 53.98004531860352 357.6797485351562 L 53.98341369628906 357.6849060058594 L 51.00830841064453 359.3583374023438 C 50.44791793823242 359.6740417480469 49.83556365966797 359.8246765136719 49.2323112487793 359.8246765136719 C 49.22463226318359 359.8246765136719 49.21688079833984 359.8246459960938 49.20920181274414 359.8245849609375 C 48.57741546630859 359.8192749023438 47.954833984375 359.6509704589844 47.41057205200195 359.3363342285156 L 47.4059944152832 359.3324279785156 L 44.13509750366211 357.4945373535156 C 44.10888671875 357.4788208007812 44.07809829711914 357.4608459472656 44.04293823242188 357.4388732910156 C 44.00851821899414 357.4180297851562 43.97820281982422 357.4012756347656 43.95251846313477 357.383056640625 L 43.9306755065918 357.3701782226562 L 40.83241271972656 355.6280822753906 C 40.27409744262695 355.3172302246094 39.83551788330078 354.8770751953125 39.53367614746094 354.369384765625 C 39.22141265869141 353.8446960449219 39.05562591552734 353.2475891113281 39.05488586425781 352.6403198242188 L 39.05488586425781 352.2556457519531 L 39.04009628295898 352.2556457519531 L 39.04009628295898 348.911376953125 L 39.04009628295898 345.18408203125 C 39.04009628295898 344.4935302734375 39.24615097045898 343.8511657714844 39.60109710693359 343.3136596679688 C 39.96909713745117 342.7567443847656 40.49541473388672 342.3087463378906 41.11799240112305 342.0314331054688 L 41.13278198242188 342.02490234375 L 41.15046691894531 342.0147399902344 L 44.13699340820312 340.3360595703125 L 44.48030853271484 340.1445922851562 L 44.47667694091797 340.1380310058594 L 47.45157241821289 338.4657592773438 C 48.01272583007812 338.1500244140625 48.62441635131836 337.9982604980469 49.22748184204102 337.9982604980469 Z" stroke="none" fill="#fff"/></g><path d="M34,368.31l3.273-12.96s2.931-6.48,6.546-6.48h24c3.615,0,6.545,6.48,6.545,6.48" transform="translate(0 15.486)" fill="none" stroke="#fff" stroke-width="2"/></g><path d="M40,406.051l4.576,3.051,8.808-10.336" transform="translate(271.369 1454.615)" fill="none" stroke="#30836d" stroke-width="2"/></g></svg>