<svg xmlns="http://www.w3.org/2000/svg" xmlns:xlink="http://www.w3.org/1999/xlink" width="19.072" height="18.638" viewBox="0 0 19.072 18.638"><defs><clipPath id="a"><rect width="19.072" height="18.638" fill="none"/></clipPath></defs><g clip-path="url(#a)"><g transform="translate(-701.22 -579.671)"><g transform="translate(720 626)" fill="none"><path d="M.292-39.771v10.617a1.463,1.463,0,0,1-1.462,1.462H-17.318a1.463,1.463,0,0,1-1.462-1.462V-39.771Z" stroke="none"/><path d="M -17.27999687194824 -38.27133941650391 L -17.27999687194824 -29.19153594970703 L -1.20823860168457 -29.19153594970703 L -1.20823860168457 -38.27133941650391 L -17.27999687194824 -38.27133941650391 M -18.77999687194824 -39.77133941650391 L 0.2917613983154297 -39.77133941650391 L 0.2917613983154297 -29.15390777587891 C 0.2917613983154297 -28.3465576171875 -0.3632583618164062 -27.69153594970703 -1.170608520507812 -27.69153594970703 L -17.317626953125 -27.69153594970703 C -18.12497711181641 -27.69153594970703 -18.77999687194824 -28.3465576171875 -18.77999687194824 -29.15390777587891 L -18.77999687194824 -39.77133941650391 Z" stroke="none" fill="#fff"/></g><path d="M1313.632,882.73h2.236" transform="translate(-608 -291.603)" fill="none" stroke="#fff" stroke-width="1.5"/><path d="M1313.632,882.73h2.236" transform="translate(-604 -291.603)" fill="none" stroke="#fff" stroke-width="1.5"/><path d="M1313.632,882.73h2.236" transform="translate(-600 -291.603)" fill="none" stroke="#fff" stroke-width="1.5"/><path d="M1313.632,882.73h2.236" transform="translate(-608 -288.603)" fill="none" stroke="#fff" stroke-width="1.5"/><path d="M1313.632,882.73h2.236" transform="translate(-604 -288.603)" fill="none" stroke="#fff" stroke-width="1.5"/><path d="M1313.632,882.73h2.236" transform="translate(-600 -288.603)" fill="none" stroke="#fff" stroke-width="1.5"/><path d="M701.22,583.55h19.072" fill="none" stroke="#fff" stroke-width="1.5"/><path d="M706.75,582.988v-2.567" transform="translate(8)" fill="none" stroke="#fff" stroke-linecap="round" stroke-width="1.5"/><path d="M706.75,582.988v-2.567" fill="none" stroke="#fff" stroke-linecap="round" stroke-width="1.5"/></g></g></svg>