<svg xmlns="http://www.w3.org/2000/svg" width="16.111" height="23.245" viewBox="0 0 16.111 23.245"><g transform="translate(-108.182 -7278.437)"><ellipse cx="6.424" cy="6.424" rx="6.424" ry="6.424" transform="translate(109.21 7278.438)" fill="#fff"/><path d="M2.539-7.021a3.679,3.679,0,0,1,2.047.475A1.652,1.652,0,0,1,5.3-5.069,1.67,1.67,0,0,1,5.01-4.054a1.89,1.89,0,0,1-.827.612q.18.223.377.51t.39.6q.193.313.373.651t.334.664h-1.5l-.33-.591q-.167-.3-.343-.582t-.347-.535q-.171-.253-.343-.458H2.136v2.167H.8v-5.85a7.575,7.575,0,0,1,.9-.12Q2.17-7.021,2.539-7.021Zm.077,1.139q-.146,0-.261.009l-.218.017v1.61h.377a2.276,2.276,0,0,0,1.079-.188.681.681,0,0,0,.325-.642.653.653,0,0,0-.33-.621A2.039,2.039,0,0,0,2.616-5.882ZM6.77-1.017V-6.953h4.008v1.122H8.106v1.165h2.372v1.1H8.106v1.43h2.869v1.122Zm8.154.12A2.885,2.885,0,0,1,12.718-1.7,3.209,3.209,0,0,1,11.96-3.99,3.517,3.517,0,0,1,12.191-5.3a2.833,2.833,0,0,1,.634-.976,2.65,2.65,0,0,1,.959-.6,3.46,3.46,0,0,1,1.208-.206,3.871,3.871,0,0,1,.685.056,4.443,4.443,0,0,1,.54.128,2.663,2.663,0,0,1,.385.15q.154.077.223.12l-.385,1.079a3.233,3.233,0,0,0-.638-.248,3.045,3.045,0,0,0-.827-.1,1.826,1.826,0,0,0-.6.1,1.365,1.365,0,0,0-.522.33,1.643,1.643,0,0,0-.364.587,2.461,2.461,0,0,0-.137.874,3.118,3.118,0,0,0,.09.767,1.626,1.626,0,0,0,.291.612,1.4,1.4,0,0,0,.527.407,1.875,1.875,0,0,0,.788.15,3.591,3.591,0,0,0,.522-.034,3.879,3.879,0,0,0,.411-.081,2.159,2.159,0,0,0,.317-.107l.248-.111.368,1.071a3.13,3.13,0,0,1-.8.308A4.642,4.642,0,0,1,14.923-.9Z" transform="translate(107.382 7302.58)" fill="#fff"/></g></svg>