<svg xmlns="http://www.w3.org/2000/svg" width="58.614" height="31.115" viewBox="0 0 58.614 31.115"><g transform="translate(116.595 -1830.691)"><g transform="translate(-126.066 1801.752)" opacity="0.824"><path d="M55.344,55.758H60.79V61.2H55.344Z" transform="translate(-12.916 -7.957)" fill="#fff"/><path d="M65.039,65.2v5.443h5.446V65.2Z" transform="translate(-15.621 -10.593)" fill="#fff"/><path d="M76.363,58.047h5.443V63.49H76.363Z" transform="translate(-18.782 -8.596)" fill="#fff"/><path d="M88.826,46.789H83.379v5.446h5.446V46.789Z" transform="translate(-20.74 -5.454)" fill="#fff"/><path d="M10.472,46.782s6.592-17,14.441-16.842,14.843,14.6,14.843,14.6" fill="none" stroke="#fff" stroke-linecap="round" stroke-linejoin="round" stroke-width="2"/></g><path d="M55.344,55.758H60.79V61.2H55.344Z" transform="translate(-138.982 1793.795)" fill="#30836d"/><path d="M65.039,65.2v5.443h5.446V65.2Z" transform="translate(-141.688 1791.159)" fill="#30836d"/><path d="M76.363,58.047h5.443V63.49H76.363Z" transform="translate(-144.848 1793.156)" fill="#30836d"/><path d="M88.826,46.789H83.379v5.446h5.446V46.789Z" transform="translate(-146.806 1796.298)" fill="#30836d"/></g></svg>