<svg xmlns="http://www.w3.org/2000/svg" width="56.677" height="60.76" viewBox="0 0 56.677 60.76"><g transform="translate(0 7.979)"><g transform="translate(33.385 49.955) rotate(-135)" fill="none" fill-rule="evenodd" opacity="0.8"><path d="M42.4,17.211c.242-.22,2.237-8.507-1.1-11.849S32.363,1.153,31.58,1.029s-12.022-2.8-21.521,1.014C2.645,5.021,1.3,6.762.381,8.214-.956,10.328,1.619,19.433,2.067,19.551s1.057-.152,2.057-.47,5.885-1.92,6.716-2.3.528-5.248.481-6.317a1.966,1.966,0,0,1,1.346-1.857,23.566,23.566,0,0,1,8.676-1.933,28.808,28.808,0,0,1,8.373,1.035c1.064.294,1.119,1.051,1.192,1.717.083.76,1.318,4.889,1.823,5.065s5.167,2.2,7.076,3.009C41.326,18.148,41.7,17.851,42.4,17.211Z" stroke="none"/><path d="M 2.30190372467041 19.57963943481445 C 2.72582745552063 19.57963943481445 3.288529396057129 19.34715270996094 4.124303817749023 19.08068656921387 C 5.123733997344971 18.76058769226074 10.00980377197266 17.16108703613281 10.84068393707275 16.78257751464844 C 11.67155361175537 16.40457725524902 11.36819362640381 11.5345573425293 11.32188415527344 10.46600723266602 C 11.28557395935059 9.62779712677002 11.87021350860596 8.921277046203613 12.66836357116699 8.608687400817871 C 13.71870422363281 8.199017524719238 16.51107406616211 6.881717205047607 21.34402465820312 6.676116943359375 C 21.6476936340332 6.663163185119629 21.95018196105957 6.657120227813721 22.24987983703613 6.657120227813721 C 25.6616268157959 6.657120227813721 28.7382755279541 7.439464569091797 29.71719360351562 7.711287021636963 C 30.78135299682617 8.005757331848145 30.83598327636719 8.762247085571289 30.90927314758301 9.428196907043457 C 30.99277305603027 10.18853664398193 32.22735214233398 14.317626953125 32.73226547241211 14.49300670623779 C 33.2379035949707 14.66767692565918 37.89972305297852 16.68898773193359 39.80825424194336 17.50168800354004 C 40.40186309814453 17.75436973571777 40.82009887695312 17.86276435852051 41.15146255493164 17.86279106140137 C 41.66732406616211 17.86283111572266 41.97279739379883 17.60022926330566 42.40293502807617 17.21051788330078 C 42.64499282836914 16.99076652526855 44.64041519165039 8.703646659851074 41.29834365844727 5.361577033996582 C 37.95577239990234 2.019016981124878 32.36251449584961 1.152587056159973 31.57987403869629 1.028517127037048 C 31.11943054199219 0.9564106464385986 27.04365539550781 -9.793091066967463e-07 21.83313369750977 -9.793091066967463e-07 C 18.18149375915527 -9.793091066967463e-07 13.97299766540527 0.4694686532020569 10.05898380279541 2.042117118835449 C 2.645083665847778 5.021417140960693 1.299793720245361 6.761597156524658 0.3810637593269348 8.21446704864502 C -0.9557862281799316 10.32775688171387 1.619133710861206 19.43346786499023 2.066813707351685 19.55113792419434 C 2.140480041503906 19.57064056396484 2.218518495559692 19.57963943481445 2.30190372467041 19.57963943481445 M 2.30190372467041 21.57963752746582 C 2.0446937084198 21.57963752746582 1.793413758277893 21.54764747619629 1.5550537109375 21.48455619812012 C 0.4807237684726715 21.20217704772949 0.1012037694454193 20.23763656616211 -0.102686233818531 19.71944618225098 C -0.5515962243080139 18.57853698730469 -1.220226287841797 16.19971656799316 -1.62959623336792 13.8606071472168 C -2.392496347427368 9.501437187194824 -1.812086224555969 7.940307140350342 -1.309136271476746 7.145256996154785 C -0.1072962358593941 5.244677066802979 1.60961377620697 3.282077074050903 9.313233375549316 0.1863470673561096 C 12.92391395568848 -1.26442289352417 17.13618469238281 -2.000002861022949 21.83313369750977 -2.000002861022949 C 26.61002349853516 -2.000002861022949 30.40276336669922 -1.243342876434326 31.64909362792969 -0.9946929216384888 C 31.74783515930176 -0.9749977588653564 31.85951232910156 -0.9527150988578796 31.89537620544434 -0.9464425444602966 L 31.90936470031738 -0.9442229270935059 C 34.02124404907227 -0.609792947769165 39.3015022277832 0.5363170504570007 42.71255493164062 3.947357177734375 C 44.45686340332031 5.691667079925537 45.29640197753906 8.435976982116699 45.20785522460938 12.10404682159424 C 45.16948318481445 13.69357681274414 44.9617919921875 15.0833568572998 44.7943229675293 15.96933746337891 C 44.70331192016602 16.45085716247559 44.602294921875 16.89828681945801 44.50220489501953 17.26327705383301 C 44.35929489135742 17.78439712524414 44.19402313232422 18.28573799133301 43.74726486206055 18.69132614135742 C 43.23147201538086 19.15862655639648 42.45426559448242 19.8627872467041 41.15158462524414 19.8627872467041 C 40.52693557739258 19.86274719238281 39.87112426757812 19.70210647583008 39.02493286132812 19.3419075012207 C 38.45774459838867 19.10038757324219 37.64478302001953 18.75100708007812 36.78408432006836 18.38112640380859 C 35.05582046508789 17.63838958740234 32.44515609741211 16.51645088195801 32.07353210449219 16.38140487670898 C 30.99409866333008 16.00330924987793 30.46895599365234 14.928053855896 29.76493453979492 12.81110668182373 C 29.50870323181152 12.04063701629639 29.00262451171875 10.3877067565918 28.92122459411621 9.646527290344238 L 28.9152946472168 9.592247009277344 C 28.91435241699219 9.583605766296387 28.91337203979492 9.574605941772461 28.9123592376709 9.565352439880371 C 27.69306373596191 9.243217468261719 25.08458137512207 8.657116889953613 22.2498836517334 8.657116889953613 C 21.97272300720215 8.657116889953613 21.69661331176758 8.662897109985352 21.42923355102539 8.674297332763672 C 17.39022445678711 8.846127510070801 14.93769359588623 9.84538745880127 13.75907421112061 10.32561683654785 C 13.62148380279541 10.38167667388916 13.50022411346436 10.43097686767578 13.39511394500732 10.47197723388672 C 13.36707973480225 10.48295402526855 13.34394454956055 10.49533462524414 13.32584762573242 10.50681686401367 C 13.32812976837158 10.55493259429932 13.33068943023682 10.60776233673096 13.33345413208008 10.66487693786621 C 13.37113380432129 11.4436674118042 13.4412841796875 12.89328670501709 13.40262413024902 14.24820709228516 C 13.37898349761963 15.07681751251221 13.31857395172119 15.73866748809814 13.21794414520264 16.27159690856934 C 13.1348237991333 16.71174621582031 12.88190364837646 18.05118751525879 11.66889381408691 18.60303688049316 C 10.58402347564697 19.09724617004395 4.791763782501221 20.96698760986328 4.734343528747559 20.98537635803223 C 4.548423767089844 21.04465675354004 4.377123832702637 21.1020565032959 4.211473941802979 21.15756797790527 C 3.535583734512329 21.38404655456543 2.951873779296875 21.57963752746582 2.30190372467041 21.57963752746582 Z" stroke="none" fill="#fff"/></g><g transform="translate(-0.658 -402.976)"><g transform="translate(0 0)" fill="none"><path d="M51.5,397.418l-3.744-1.909-.005,0a4.525,4.525,0,0,0-4.119-.024l-3.406,1.738,0,.006-.392.2L36.42,399.17l-.021.01-.016.006a3.992,3.992,0,0,0-1.737,1.333A3.286,3.286,0,0,0,34,402.461V411c0,2.2,6.487,11.026,11.642,11.026s11.689-9.1,11.689-11.026v-8.136h-.017v-.4a3.283,3.283,0,0,0-.548-1.8,3.831,3.831,0,0,0-1.486-1.307l-3.547-1.81-.025-.013-.1-.058-.105-.057Z" stroke="none"/><path d="M 45.66439056396484 396.9971008300781 C 45.27118301391602 396.9971008300781 44.88339233398438 397.0888977050781 44.54333877563477 397.2623596191406 L 43.04048538208008 398.0293579101562 L 43.04512786865234 398.0371398925781 L 41.13960266113281 399.0076904296875 L 40.74870681762695 399.206787109375 L 37.32949829101562 400.9518432617188 L 37.29634094238281 400.9687194824219 L 37.26255035400391 400.9844055175781 L 37.24191665649414 400.9939880371094 L 37.18223190307617 401.021728515625 L 37.12086486816406 401.0454711914062 L 37.12019348144531 401.0457153320312 C 36.76750183105469 401.1906433105469 36.4635124206543 401.4213562011719 36.2643928527832 401.6947937011719 C 36.09165573120117 401.9324035644531 36.00407409667969 402.1901550292969 36.00407409667969 402.4607238769531 L 36.00407409667969 410.9411010742188 C 36.04473114013672 411.1327819824219 36.28242111206055 411.7875366210938 36.99254989624023 412.9049987792969 C 37.68686676025391 413.9976196289062 38.60276031494141 415.1689453125 39.57144546508789 416.2032470703125 C 41.8113899230957 418.5949401855469 44.0822868347168 420.0227966308594 45.6461296081543 420.0227966308594 C 47.17407608032227 420.0227966308594 49.43202209472656 418.5810852050781 51.68612670898438 416.1663208007812 C 52.65070724487305 415.1329956054688 53.57781219482422 413.9557189941406 54.29660034179688 412.8514709472656 C 55.00756454467773 411.75927734375 55.27486038208008 411.110107421875 55.33518218994141 410.8979187011719 L 55.33518218994141 404.8607177734375 L 55.32149505615234 404.8607177734375 L 55.318603515625 402.8636169433594 L 55.31802368164062 402.46240234375 C 55.31781387329102 402.222900390625 55.24139022827148 401.979736328125 55.09702301025391 401.7593078613281 C 54.93312835693359 401.5091552734375 54.68470764160156 401.2948303222656 54.3748664855957 401.1375732421875 L 50.82744598388672 399.3280334472656 L 50.8113899230957 399.3198852539062 L 50.79544448852539 399.3113708496094 L 50.77075958251953 399.2982177734375 L 50.73575973510742 399.2796325683594 L 50.69976043701172 399.2584533691406 C 50.6851806640625 399.2500915527344 50.66860198974609 399.2412109375 50.64991760253906 399.2309875488281 L 50.64202499389648 399.2266845703125 L 50.63418197631836 399.2223205566406 C 50.62144470214844 399.2152404785156 50.60955047607422 399.2088928222656 50.59854888916016 399.2029418945312 C 50.58823776245117 399.1973876953125 50.57824325561523 399.1919860839844 50.56855392456055 399.1867370605469 L 46.84965515136719 397.2903747558594 L 46.75402450561523 397.2415771484375 L 46.75085067749023 397.239501953125 C 46.42620468139648 397.0830383300781 46.05817031860352 396.9994506835938 45.68218231201172 396.9971618652344 L 45.66439056396484 396.9971008300781 M 45.66440582275391 394.9971008300781 C 45.67396926879883 394.9971008300781 45.68362426757812 394.9971313476562 45.69318008422852 394.9971923828125 C 46.41654968261719 395.0016174316406 47.1297607421875 395.1775817871094 47.7529182434082 395.5051574707031 L 47.75823211669922 395.5086364746094 L 51.50260162353516 397.4179992675781 C 51.53218078613281 397.4344787597656 51.56755065917969 397.452880859375 51.60760116577148 397.4751892089844 C 51.64754867553711 397.4969787597656 51.68191909790039 397.5158996582031 51.7115478515625 397.5332946777344 L 51.73623275756836 397.5464782714844 L 55.28365325927734 399.3559875488281 C 55.92281341552734 399.6802978515625 56.42449569702148 400.1359252929688 56.77002334594727 400.6634216308594 C 57.12786483764648 401.2096862792969 57.31749725341797 401.8310852050781 57.31802368164062 402.4607238769531 L 57.318603515625 402.8607177734375 L 57.33518218994141 402.8607177734375 C 57.33518218994141 402.8607177734375 57.33518218994141 409.0721435546875 57.33518218994141 410.9963989257812 C 57.33518218994141 412.9205627441406 50.80128479003906 422.0227966308594 45.6461296081543 422.0227966308594 C 40.4910774230957 422.0227966308594 34.00407409667969 413.1915588378906 34.00407409667969 410.9963989257812 C 34.00407409667969 408.8012084960938 34.00407409667969 402.4607238769531 34.00407409667969 402.4607238769531 C 34.00407409667969 401.7448425292969 34.23997116088867 401.078369140625 34.64654922485352 400.5189514160156 C 35.0677604675293 399.9406127929688 35.67055130004883 399.4743041992188 36.38323211669922 399.1863708496094 L 36.39970779418945 399.1799926757812 L 36.42033767700195 399.17041015625 L 39.83955001831055 397.4253540039062 L 40.23191833496094 397.2255249023438 L 40.22817993164062 397.2192687988281 L 43.63418197631836 395.4809265136719 C 44.27519226074219 395.1539611816406 44.97462844848633 394.9971008300781 45.66440582275391 394.9971008300781 Z" stroke="none" fill="#30836d"/></g><path d="M40,405.457l3.685,2.457L47.37,403" transform="translate(1.369 1.828)" fill="none" stroke="#30836d" stroke-width="2"/></g></g></svg>