<svg xmlns="http://www.w3.org/2000/svg" width="24.542" height="20.904" viewBox="0 0 24.542 20.904"><g transform="translate(3 0.366)"><g transform="translate(-1340.25 -871.616)"><rect width="12.127" height="12.127" rx="2" transform="translate(1348.914 879.276)" fill="none" stroke="#fff" stroke-width="1.5"/><path d="M5.261,1.179Q5.154.83,5.023.461T4.766-.276H2.146Q2.02.093,1.889.461t-.238.718H.08Q.458.093.8-.829t.665-1.737q.325-.815.64-1.547t.655-1.431H4.2q.33.7.65,1.431T5.5-2.566q.325.815.665,1.737t.718,2.008Zm-1.814-5.2q-.049.146-.146.4l-.223.582q-.126.33-.276.728T2.5-1.479H4.407q-.155-.437-.3-.834T3.83-3.041Q3.7-3.371,3.6-3.623T3.446-4.021Z" transform="translate(1351.357 887.799)" fill="#fff" stroke="rgba(0,0,0,0)" stroke-width="1"/><path d="M7.064,14.339H3.425A2.428,2.428,0,0,1,1,11.914V3.425A2.428,2.428,0,0,1,3.425,1H10.7a2.428,2.428,0,0,1,2.425,2.425V4.778" transform="translate(1337 871)" fill="none" stroke="#fff" stroke-width="1.5"/><path d="M.912-5.728v1H7.276A6.556,6.556,0,0,1,5.414-2.575l.776.747A8.169,8.169,0,0,0,7.723-3.409,14.668,14.668,0,0,0,8.79-5.243l-.543-.485ZM3.978-4.011V-2.7A4.083,4.083,0,0,1,3.434-.47,4.452,4.452,0,0,1,1.611.966L2.29,1.8A4.728,4.728,0,0,0,4.424.006,5.224,5.224,0,0,0,5.064-2.7v-1.31Z" transform="translate(1339.407 880.483)" fill="#fff" stroke="rgba(0,0,0,0)" stroke-width="1"/></g></g></svg>