<svg xmlns="http://www.w3.org/2000/svg" width="45.7" height="45.702" viewBox="0 0 45.7 45.702"><g transform="translate(-5.981 -5.973)"><path d="M28.811,5.973a1.018,1.018,0,0,0-.4.085,1.049,1.049,0,0,0-.332.229,1.035,1.035,0,0,0-.294.738V14.5a1.041,1.041,0,0,0,.29.9.231.231,0,0,0,.022.022l0,0a1.042,1.042,0,0,0,.882.284A12.629,12.629,0,0,1,41.477,28.35c0,.036,0,.107,0,.215l0,.061a1,1,0,0,0-.01.32A12.632,12.632,0,0,1,28.985,40.995a1,1,0,0,0-.31,0A12.628,12.628,0,0,1,16.2,28.942a1,1,0,0,0-.016-.339c0-.079,0-.164,0-.253A12.645,12.645,0,0,1,24.8,16.358a1.067,1.067,0,0,0,.357-.2,1.043,1.043,0,0,0,.251-.32,1.039,1.039,0,0,0,.059-.8,1.055,1.055,0,0,0-.2-.353,1.016,1.016,0,0,0-.324-.247,1.03,1.03,0,0,0-.4-.1,1.01,1.01,0,0,0-.4.057A14.74,14.74,0,0,0,14.123,27.787H7.033a1.085,1.085,0,0,0-.4.075,1.008,1.008,0,0,0-.341.225,1.03,1.03,0,0,0-.229,1.137,1.064,1.064,0,0,0,.229.339,1.1,1.1,0,0,0,.341.225,1.046,1.046,0,0,0,.4.075h7.159a14.745,14.745,0,0,0,13.6,13.178v7.582a1.046,1.046,0,0,0,.075.4,1.008,1.008,0,0,0,.225.341,1.03,1.03,0,0,0,1.137.229,1.064,1.064,0,0,0,.339-.229,1.1,1.1,0,0,0,.225-.341,1.046,1.046,0,0,0,.075-.4V43.041A14.74,14.74,0,0,0,43.475,29.863h7.154a1.085,1.085,0,0,0,.4-.075,1.008,1.008,0,0,0,.341-.225,1.03,1.03,0,0,0,.229-1.137,1.064,1.064,0,0,0-.229-.339,1.1,1.1,0,0,0-.341-.225,1.046,1.046,0,0,0-.4-.075H43.544A14.741,14.741,0,0,0,29.869,13.67V7.027a1.034,1.034,0,0,0-.306-.748,1.011,1.011,0,0,0-.345-.227,1.029,1.029,0,0,0-.405-.075Z" transform="translate(0)" fill="#fff" fill-rule="evenodd"/><path d="M45.628,40.91a4.718,4.718,0,1,1-4.718,4.718A4.7,4.7,0,0,1,45.628,40.91Z" transform="translate(-16.801 -16.805)" fill="#fff" fill-rule="evenodd"/></g></svg>