<svg xmlns="http://www.w3.org/2000/svg" width="51.367" height="28.671" viewBox="0 0 51.367 28.671"><g transform="translate(-5.207 -20.312)"><path d="M44.668,34.647A7.168,7.168,0,1,0,37.5,27.48,7.174,7.174,0,0,0,44.668,34.647Zm0-12.543a5.376,5.376,0,1,1-5.376,5.376A5.383,5.383,0,0,1,44.668,22.1Z" transform="translate(-13.776)" fill="#fff"/><path d="M71,40.439a5.376,5.376,0,1,0-5.376-5.376A5.383,5.383,0,0,0,71,40.439Zm0-8.959a3.584,3.584,0,1,1-3.584,3.584A3.587,3.587,0,0,1,71,31.48Z" transform="translate(-25.774 -4)" fill="#fff"/><path d="M21,40.439a5.376,5.376,0,1,0-5.376-5.376A5.383,5.383,0,0,0,21,40.439Zm0-8.959a3.584,3.584,0,1,1-3.584,3.584A3.589,3.589,0,0,1,21,31.48Z" transform="translate(-4.444 -4)" fill="#fff"/><path d="M56.057,55.935A13.051,13.051,0,0,0,39.95,51.363a15.48,15.48,0,0,0-18.112,0,13.06,13.06,0,0,0-16.12,4.58,3,3,0,0,0-.511,1.671v.679A2.69,2.69,0,0,0,7.9,60.981H53.886a2.69,2.69,0,0,0,2.688-2.688v-.679a3,3,0,0,0-.517-1.68ZM17.619,59.189H7.9a.9.9,0,0,1-.9-.9v-.676a1.194,1.194,0,0,1,.2-.661,11.3,11.3,0,0,1,13.069-4.3,15.736,15.736,0,0,0-2.235,2.565,3.4,3.4,0,0,0-.582,1.9v1.171a2.649,2.649,0,0,0,.166.9Zm24.921-.9a.9.9,0,0,1-.9.9h-21.5a.9.9,0,0,1-.9-.9V57.122a1.586,1.586,0,0,1,.273-.891,13.782,13.782,0,0,1,22.73-.029,1.629,1.629,0,0,1,.291.921Zm12.245,0a.9.9,0,0,1-.9.9H44.167a2.649,2.649,0,0,0,.166-.9V57.122a3.437,3.437,0,0,0-.6-1.929,15.808,15.808,0,0,0-2.211-2.538,11.291,11.291,0,0,1,13.054,4.289,1.194,1.194,0,0,1,.208.67Z" transform="translate(0 -11.998)" fill="#fff"/></g></svg>