<svg xmlns="http://www.w3.org/2000/svg" width="41.083" height="27.696" viewBox="0 0 41.083 27.696"><path d="M30.041,44.942A6.643,6.643,0,1,1,36.684,38.3,6.662,6.662,0,0,1,30.041,44.942Zm0-11.447a4.8,4.8,0,1,0,4.8,4.8A4.8,4.8,0,0,0,30.041,33.5ZM15.887,51.788a.947.947,0,0,0,.052-1.277,18.576,18.576,0,0,1,.154-24.527.943.943,0,0,0,0-1.277.93.93,0,0,0-.715-.307,1,1,0,0,0-.715.307,20.571,20.571,0,0,0-.155,27.082.861.861,0,0,0,.715.307.828.828,0,0,0,.665-.307Zm29.79-.154a20.539,20.539,0,0,0-.2-26.878.861.861,0,0,0-.715-.307.822.822,0,0,0-.665.307,1.013,1.013,0,0,0-.052,1.329A18.617,18.617,0,0,1,44.2,50.409a.941.941,0,0,0,.052,1.277.9.9,0,0,0,.665.307.928.928,0,0,0,.764-.359Zm-4.906-5.008a13.518,13.518,0,0,0-.2-16.76,1.087,1.087,0,0,0-.766-.357.822.822,0,0,0-.665.307.939.939,0,0,0-.1,1.226,11.671,11.671,0,0,1,.154,14.511.939.939,0,0,0,.1,1.226.9.9,0,0,0,.665.307,1.278,1.278,0,0,0,.816-.459Zm-19.978.154a1,1,0,0,0,.1-1.226,11.642,11.642,0,0,1,.154-14.615.885.885,0,0,0-.1-1.226.9.9,0,0,0-.665-.307,1.086,1.086,0,0,0-.766.357,13.532,13.532,0,0,0-.154,16.964.917.917,0,0,0,.766.357.889.889,0,0,0,.665-.305Z" transform="translate(-9.501 -24.399)" fill="#fff"/></svg>