<svg xmlns="http://www.w3.org/2000/svg" width="35.028" height="35.028" viewBox="0 0 35.028 35.028"><g transform="translate(-680.399 -2607.399)"><path d="M49.09,28.761H45.206a13.121,13.121,0,0,0-1.063-2.57L46.9,23.444a.938.938,0,0,0,0-1.325l-3.991-3.991a.938.938,0,0,0-1.325,0L38.837,20.88a13.149,13.149,0,0,0-2.57-1.057V15.938A.938.938,0,0,0,35.329,15H29.7a.938.938,0,0,0-.938.938v3.9A13.02,13.02,0,0,0,26.208,20.9l-2.764-2.772a.964.964,0,0,0-1.325,0l-3.991,3.991a.938.938,0,0,0,0,1.325l2.778,2.778a13.056,13.056,0,0,0-1.026,2.539H15.938A.938.938,0,0,0,15,29.7v5.629a.938.938,0,0,0,.938.938h3.952a13.173,13.173,0,0,0,1.046,2.5l-2.809,2.815a.938.938,0,0,0,0,1.325L22.119,46.9a.938.938,0,0,0,1.325,0l2.815-2.809a13.169,13.169,0,0,0,2.5,1.046V49.09a.938.938,0,0,0,.938.938h5.629a.938.938,0,0,0,.938-.938V45.155A13.018,13.018,0,0,0,38.8,44.111L41.584,46.9a.938.938,0,0,0,1.325,0L46.9,42.909a.938.938,0,0,0,0-1.325l-2.758-2.758a13.29,13.29,0,0,0,1.044-2.559h3.9a.938.938,0,0,0,.938-.938V29.7a.938.938,0,0,0-.938-.938Zm-.938,5.629H44.473a.939.939,0,0,0-.913.719,11.535,11.535,0,0,1-1.4,3.366.94.94,0,0,0,.133,1.157L44.9,42.24,42.246,44.9l-2.621-2.621a.937.937,0,0,0-1.157-.137,11.27,11.27,0,0,1-3.352,1.376.938.938,0,0,0-.725.882v3.753H30.637V44.4a.939.939,0,0,0-.719-.913A11.339,11.339,0,0,1,26.583,42.1a.937.937,0,0,0-1.157.131L22.782,44.9l-2.653-2.653L22.776,39.6v0a.94.94,0,0,0,.131-1.157,11.235,11.235,0,0,1-1.382-3.335.937.937,0,0,0-.9-.719H16.876V30.637h3.753a.937.937,0,0,0,.913-.725,11.322,11.322,0,0,1,1.376-3.352.937.937,0,0,0-.137-1.157l-2.653-2.621,2.653-2.653,2.608,2.608a.94.94,0,0,0,1.157.133,11.263,11.263,0,0,1,3.366-1.4.939.939,0,0,0,.725-.913V16.876H34.39v3.665a.937.937,0,0,0,.725.913,11.247,11.247,0,0,1,3.384,1.4.937.937,0,0,0,1.157-.131l2.59-2.59L44.9,22.781l-2.59,2.59a.937.937,0,0,0-.131,1.157,11.248,11.248,0,0,1,1.4,3.384.937.937,0,0,0,.913.725h3.665Z" transform="translate(665.399 2592.399)" fill="#fff"/><g transform="translate(691 2618)" fill="none" stroke="#fff" stroke-width="2"><circle cx="7" cy="7" r="7" stroke="none"/><circle cx="7" cy="7" r="6" fill="none"/></g></g></svg>