<svg xmlns="http://www.w3.org/2000/svg" xmlns:xlink="http://www.w3.org/1999/xlink" width="15.019" height="15.02" viewBox="0 0 15.019 15.02"><defs><clipPath id="a"><rect width="15.019" height="15.019" fill="none"/></clipPath></defs><g clip-path="url(#a)"><g fill="none" stroke="#fff" stroke-width="1"><circle cx="7.51" cy="7.51" r="7.51" stroke="none"/><circle cx="7.51" cy="7.51" r="7.01" fill="none"/></g><path d="M431.763,256.659a2.831,2.831,0,0,1-.367.034.872.872,0,0,1-.557-.142.661.661,0,0,1-.172-.529,2.221,2.221,0,0,1,.05-.417q.05-.254.118-.518l.719-2.88a3.459,3.459,0,0,0,.081-.42,2.758,2.758,0,0,0,.027-.332.992.992,0,0,0-.25-.712,1.067,1.067,0,0,0-.805-.264,2.672,2.672,0,0,0-.663.115,6.665,6.665,0,0,0-.947.352l-.1.433q.128-.034.375-.081a2.212,2.212,0,0,1,.4-.047.743.743,0,0,1,.51.125.734.734,0,0,1,.125.5,2.559,2.559,0,0,1-.051.461q-.051.271-.1.508l-.715,2.88q-.061.258-.088.427a2.064,2.064,0,0,0-.027.325.963.963,0,0,0,.271.695,1.079,1.079,0,0,0,.812.281,2.568,2.568,0,0,0,.636-.1,8.964,8.964,0,0,0,.995-.349l.1-.433A1.873,1.873,0,0,1,431.763,256.659Zm.6-9.345a.823.823,0,0,0-.63-.261.777.777,0,0,0-.6.278.939.939,0,0,0-.25.65.9.9,0,0,0,.25.626.781.781,0,0,0,.6.274.792.792,0,0,0,.623-.288.994.994,0,0,0,.25-.673A.86.86,0,0,0,432.367,247.314Z" transform="translate(-423.23 -244.67)" fill="#fff"/></g></svg>