<svg xmlns="http://www.w3.org/2000/svg" width="24.523" height="23.022" viewBox="0 0 24.523 23.022"><g transform="translate(0 0)"><path d="M2.253,0H20.271a2.283,2.283,0,0,1,2.253,2.253V14.64a2.283,2.283,0,0,1-2.253,2.253H9.551L5.91,20.9a.381.381,0,0,1-.279.123A.388.388,0,0,1,5.5,21a.373.373,0,0,1-.24-.35V16.893h-3A2.283,2.283,0,0,1,0,14.64V2.253A2.283,2.283,0,0,1,2.253,0Z" transform="translate(1 1)" fill="none" stroke="#fff" stroke-linecap="square" stroke-width="2"/><path d="M38,341.714H49.665" transform="translate(-31.368 -335.445)" fill="none" stroke="#fff" stroke-width="2"/><path d="M38,341.714h6.206" transform="translate(-31.368 -330.202)" fill="none" stroke="#fff" stroke-width="2"/></g></svg>