<svg xmlns="http://www.w3.org/2000/svg" width="27.18" height="25.829" viewBox="0 0 27.18 25.829"><g transform="translate(-22.066 -340.482)"><path d="M42.063,338.459l-.647-.363h0a.724.724,0,0,0-.356-.1.714.714,0,0,0-.356.092l-.588.331h0l-.659.37,0,0h0a.7.7,0,0,0-.3.254.669.669,0,0,0-.111.37v1.4a2.752,2.752,0,0,0,.354.667l.613.345,0,0,.018.011.018.011.647.363h0a.724.724,0,0,0,.356.1.715.715,0,0,0,.356-.092l.588-.331h0l.068-.038.591-.332,0,0h0a.7.7,0,0,0,.3-.254.668.668,0,0,0,.111-.37v-1.4a2.762,2.762,0,0,0-.354-.667l-.613-.345,0,0-.018-.011-.018-.011Z" transform="translate(-11.26 8.25)" fill="none" stroke="#fff" stroke-width="2"/><path d="M981.881,232h-2.045A2.052,2.052,0,0,0,978,234.294v5.965a2.315,2.315,0,0,0,2.294,1.376h3.829" transform="translate(-954.934 116.235)" fill="none" stroke="#fff" stroke-width="2"/><path d="M987,250l2.846,2.846L987,255.692" transform="translate(-960.126 105.118)" fill="none" stroke="#fff" stroke-width="2"/><path d="M2.7,13.856V6.973A4.3,4.3,0,0,1,1.207,0h1.05l.651,2.745.774.774L5.54,3.283l.216-.647L6.454,0h.927A4.295,4.295,0,0,1,6.3,6.784v7.073c0,.609-1.8,1.1-1.8,1.1S2.7,14.465,2.7,13.856Z" transform="translate(31.157 354.294) rotate(-45)" fill="none" stroke="#fff" stroke-width="2"/><path d="M36.431,461.918l2.866-2.872,3.824,2.235,3.582-3.834" transform="translate(-1.882 -116.28)" fill="none" stroke="#fff" stroke-linejoin="round" stroke-width="2"/></g></svg>