<svg xmlns="http://www.w3.org/2000/svg" width="25.699" height="20.234" viewBox="0 0 25.699 20.234"><g transform="translate(-408.25 -212.712)"><g transform="translate(409 213.462)"><line x2="5.605" transform="translate(3.122 3.582)" fill="none" stroke="#fff" stroke-width="1.5"/><line x2="4.27" transform="translate(3.122 5.964)" fill="none" stroke="#fff" stroke-width="1.5"/><line x2="4.27" transform="translate(3.122 8.346)" fill="none" stroke="#fff" stroke-width="1.5"/><path d="M435,260.771l.758-.885.885,1.644,1.137-.885,1.011,1.012,1.137-1.391,1.137.759L442.835,259" transform="translate(-422.115 -246.878)" fill="none" stroke="#fff" stroke-width="1.5"/><rect width="2.469" height="2.469" transform="translate(8.821 12.843)" fill="none" stroke="#fff" stroke-width="1.5"/><rect width="2.469" height="2.469" transform="translate(3.389 12.843)" fill="none" stroke="#fff" stroke-width="1.5"/><line y2="3.309" transform="translate(11.305 4.511)" fill="none" stroke="#fff" stroke-width="1"/><line y2="1.169" transform="translate(11.305 9.085)" fill="none" stroke="#fff" stroke-width="1"/><rect width="1.759" height="0.867" transform="translate(10.328 8.02)" fill="#fff"/><line y2="1.751" transform="translate(14.374 1.981)" fill="none" stroke="#fff" stroke-width="1"/><line y2="1.166" transform="translate(14.374 7.919)" fill="none" stroke="#fff" stroke-width="1"/><rect width="1.759" height="3.603" transform="translate(13.397 4.025)" fill="#fff"/><line y2="1.07" transform="translate(17.614 2.443)" fill="none" stroke="#fff" stroke-width="1"/><line y2="2.042" transform="translate(17.614 5.461)" fill="none" stroke="#fff" stroke-width="1"/><rect width="1.751" height="1.358" transform="translate(16.643 3.806)" fill="#fff"/><line y2="1.07" transform="translate(20.491 4.703)" fill="none" stroke="#fff" stroke-width="1"/><line y2="1.46" transform="translate(20.491 8.303)" fill="none" stroke="#fff" stroke-width="1"/><rect width="1.759" height="1.943" transform="translate(19.512 6.067)" fill="#fff"/><rect width="24.199" height="18.734" rx="2" fill="none" stroke="#fff" stroke-width="1.5"/></g></g></svg>