<svg xmlns="http://www.w3.org/2000/svg" width="20.467" height="19.689" viewBox="0 0 20.467 19.689"><g transform="translate(0.242 0)" opacity="0.999"><g transform="translate(-33.125 -337.998)" fill="none"><path d="M45.53,338.988l-1.389-.78,0,0a1.555,1.555,0,0,0-.764-.207,1.535,1.535,0,0,0-.764.2l-1.263.71,0,0-.146.081-1.268.713-.008,0-.006,0a1.508,1.508,0,0,0-.644.544,1.436,1.436,0,0,0-.238.794v3h.006v.163a1.439,1.439,0,0,0,.2.734,1.472,1.472,0,0,0,.551.534l1.315.74.009.005c.011.008.024.015.038.024l.039.024,1.389.78,0,0a1.555,1.555,0,0,0,.764.207,1.533,1.533,0,0,0,.764-.2l1.263-.71v0l.145-.082,1.268-.713.008,0,.006,0a1.508,1.508,0,0,0,.644-.544,1.434,1.434,0,0,0,.238-.794v-3h-.006v-.163a1.444,1.444,0,0,0-.2-.735,1.48,1.48,0,0,0-.551-.534l-1.316-.74-.009,0-.038-.023-.039-.024Z" stroke="none"/><path d="M 43.37336349487305 340.070556640625 L 42.32463836669922 340.6559143066406 L 42.17889022827148 340.7372741699219 L 42.17887878417969 340.7372436523438 L 41.04008865356445 341.3773193359375 L 41.04008865356445 342.0516357421875 L 41.04639053344727 342.0516357421875 L 41.04639053344727 343.8892517089844 L 42.09683990478516 344.4799194335938 L 42.11233901977539 344.4886779785156 L 42.12773895263672 344.4976806640625 L 42.13703918457031 344.5031127929688 L 42.21563720703125 344.5492248535156 L 42.22552871704102 344.5563049316406 L 43.36470794677734 345.1963806152344 L 44.4014892578125 344.6121826171875 L 44.5488395690918 344.5291748046875 L 45.69298934936523 343.88623046875 L 45.69298934936523 343.2125244140625 L 45.68923950195312 343.2125244140625 L 45.68698501586914 341.3738403320312 L 44.65408706665039 340.7931518554688 L 44.61893844604492 340.7743225097656 L 44.5760383605957 340.7484741210938 L 44.54663848876953 340.7308654785156 L 44.51923751831055 340.7144775390625 L 44.51891708374023 340.7142639160156 L 43.37336349487305 340.070556640625 M 43.365478515625 337.9982299804688 C 43.36870956420898 337.9982299804688 43.37196350097656 337.9982604980469 43.37519073486328 337.9982604980469 C 43.64344024658203 337.9999694824219 43.90808868408203 338.072509765625 44.13913726806641 338.2056274414062 L 44.14109039306641 338.2078247070312 L 45.52964019775391 338.9880676269531 C 45.54079055786133 338.9941711425781 45.55393981933594 339.0024108886719 45.56879043579102 339.0118103027344 C 45.58358764648438 339.0206298828125 45.59623718261719 339.0282287597656 45.6072883605957 339.0348815917969 L 45.61643981933594 339.0397644042969 L 46.93209075927734 339.7794189453125 C 47.16928863525391 339.9125671386719 47.35519027709961 340.0984191894531 47.48333740234375 340.3139343261719 C 47.6160888671875 340.5377197265625 47.6863899230957 340.7917175292969 47.68658828735352 341.0492248535156 L 47.68679046630859 341.2125244140625 L 47.69298934936523 341.2125244140625 L 47.69298934936523 342.6318359375 L 47.69298934936523 344.2149658203125 C 47.69298934936523 344.5080871582031 47.6055908203125 344.7796630859375 47.45468902587891 345.0085144042969 C 47.29843902587891 345.2449645996094 47.07498931884766 345.4351196289062 46.81073760986328 345.5529174804688 L 46.80458831787109 345.5555725097656 L 46.79698944091797 345.5599670410156 L 45.52864074707031 346.2727355957031 L 45.3832893371582 346.3546142578125 L 45.38473892211914 346.3568115234375 L 44.12154006958008 347.0673217773438 C 43.88361740112305 347.201416015625 43.62363433837891 347.2653198242188 43.36748886108398 347.2653198242188 C 43.36422729492188 347.2653198242188 43.3609504699707 347.2652893066406 43.35768890380859 347.2652893066406 C 43.08943939208984 347.2630310058594 42.82513809204102 347.1915893554688 42.59403991699219 347.0579833984375 L 42.59209060668945 347.0563354492188 L 41.20333862304688 346.2760314941406 C 41.19218826293945 346.2693176269531 41.17913818359375 346.2616882324219 41.16418838500977 346.2523193359375 C 41.14958953857422 346.2434692382812 41.13673782348633 346.2364807128906 41.12583923339844 346.2286682128906 L 41.11653900146484 346.2232360839844 L 39.80109024047852 345.4835205078125 C 39.56403732299805 345.3515625 39.37783813476562 345.1647338867188 39.24968719482422 344.9491271972656 C 39.11708831787109 344.7263793945312 39.04668807983398 344.4728393554688 39.04639053344727 344.2149658203125 L 39.04639053344727 344.0516357421875 L 39.04008865356445 344.0516357421875 L 39.04008865356445 342.6318359375 L 39.04008865356445 341.0492248535156 C 39.04008865356445 340.7560119628906 39.12759017944336 340.4833374023438 39.27828979492188 340.2550659179688 C 39.43453979492188 340.0186767578125 39.65798950195312 339.8284606933594 39.92234039306641 339.7106628417969 L 39.9285888671875 339.7079162597656 L 39.93613815307617 339.7035827636719 L 41.20413970947266 338.9908752441406 L 41.34988784790039 338.9095153808594 L 41.34833908081055 338.9067687988281 L 42.6114387512207 338.19677734375 C 42.84968566894531 338.0627136230469 43.10940933227539 337.9982299804688 43.365478515625 337.9982299804688 Z" stroke="none" fill="#fff"/></g><path d="M34,357.124l1.389-5.5a2.766,2.766,0,0,1,2.779-2.751h10.19a2.765,2.765,0,0,1,2.779,2.751l1.39,5.5" transform="translate(-33.273 -337.679)" fill="none" stroke="#fff" stroke-width="2"/></g></svg>