<svg xmlns="http://www.w3.org/2000/svg" width="21.226" height="23.072" viewBox="0 0 21.226 23.072"><g transform="translate(-33.681 -454.809)" fill="none"><path d="M49.6,457.272l-3.407-1.943,0,0a3.731,3.731,0,0,0-3.747-.025l-3.1,1.769,0,.006-.357.2-3.111,1.776-.019.01-.015.007a3.715,3.715,0,0,0-1.58,1.356,3.613,3.613,0,0,0-.584,1.976v7.477H33.7v.407a3.641,3.641,0,0,0,1.851,3.159l3.227,1.842.023.012.094.06.1.057,3.406,1.944,0,0a3.752,3.752,0,0,0,1.874.517,3.711,3.711,0,0,0,1.873-.493l3.1-1.768,0-.006.357-.2,3.111-1.775.019-.011.015-.006a3.715,3.715,0,0,0,1.58-1.356,3.612,3.612,0,0,0,.584-1.975V462.81h-.015V462.4a3.637,3.637,0,0,0-1.851-3.159L49.813,457.4l-.023-.013-.094-.059-.1-.058Z" stroke="none"/><path d="M 44.28973388671875 456.8092041015625 C 43.99257659912109 456.8092041015625 43.69636535644531 456.8885498046875 43.4334716796875 457.0385131835938 L 42.00600433349609 457.853271484375 L 42.01020812988281 457.8613586425781 L 40.33641815185547 458.8145141601562 L 39.98131561279297 459.0167236328125 L 36.87041854858398 460.7923583984375 L 36.83810424804688 460.8108215332031 L 36.80515670776367 460.8280334472656 L 36.78641891479492 460.8378295898438 L 36.72226333618164 460.871337890625 L 36.65702056884766 460.8996276855469 C 36.36490249633789 461.0342407226562 36.11758422851562 461.2481689453125 35.94236755371094 461.51708984375 C 35.77126312255859 461.780517578125 35.68078994750977 462.0869750976562 35.68078994750977 462.4034118652344 L 35.68078994750977 466.3456115722656 L 35.68078994750977 467.8799743652344 L 35.69462966918945 467.8799743652344 L 35.6961555480957 469.8784484863281 L 35.69647216796875 470.2854614257812 C 35.69673538208008 470.5713500976562 35.7741584777832 470.8541564941406 35.921630859375 471.1056213378906 C 36.06894683837891 471.3574523925781 36.2751579284668 471.559814453125 36.53857803344727 471.7093505859375 L 39.74923324584961 473.54150390625 L 39.75494766235352 473.5446166992188 L 39.82494735717773 473.582763671875 L 39.89168167114258 473.6264038085938 C 39.90200042724609 473.6331481933594 39.91384124755859 473.6409301757812 39.9273681640625 473.6491394042969 L 39.93004989624023 473.6507263183594 L 39.93273544311523 473.65234375 L 39.93868255615234 473.6559753417969 C 39.95111083984375 473.6636047363281 39.96272659301758 473.6707763671875 39.97342681884766 473.6771240234375 L 39.9788932800293 473.6802368164062 L 43.38515472412109 475.6239929199219 L 43.39057922363281 475.6270446777344 L 43.39594650268555 475.6301879882812 L 43.40094757080078 475.6330871582031 L 43.40699768066406 475.6365661621094 L 43.41299819946289 475.6400756835938 C 43.67742156982422 475.795654296875 43.97926330566406 475.8789367675781 44.28605270385742 475.8809814453125 L 44.29599761962891 475.8809814453125 C 44.59962844848633 475.8809814453125 44.88757705688477 475.8042602539062 45.15489196777344 475.6510925292969 L 46.51055145263672 474.8775634765625 L 46.50615692138672 474.8699340820312 L 48.25199890136719 473.8760375976562 L 48.60720825195312 473.6737670898438 L 51.69414520263672 471.9123229980469 L 51.84041976928711 471.8233642578125 L 51.959716796875 471.7771911621094 C 52.23989868164062 471.6413269042969 52.47662734985352 471.432861328125 52.64573669433594 471.1730346679688 C 52.81678771972656 470.9097595214844 52.90720748901367 470.6035766601562 52.90720748901367 470.2874145507812 L 52.90720748901367 466.3456115722656 L 52.90720748901367 464.8102416992188 L 52.89505004882812 464.8102416992188 L 52.89220809936523 462.8130798339844 L 52.89163208007812 462.4047241210938 C 52.89141845703125 462.1188659667969 52.81389236450195 461.8356018066406 52.66726303100586 461.5852966308594 C 52.51963043212891 461.3333435058594 52.31331634521484 461.1310424804688 52.04973602294922 460.9814453125 L 48.82236862182617 459.1402587890625 L 48.80984115600586 459.1331481933594 L 48.7974739074707 459.1258239746094 L 48.77489471435547 459.1125183105469 L 48.73126220703125 459.0867614746094 L 48.69276428222656 459.0613708496094 C 48.68143081665039 459.0541381835938 48.66875457763672 459.0464782714844 48.65468215942383 459.0379333496094 L 48.64826202392578 459.0339965820312 L 48.64189529418945 459.030029296875 C 48.6298942565918 459.0226135253906 48.61862945556641 459.015869140625 48.60826110839844 459.0096130371094 C 48.59954452514648 459.0043640136719 48.59108352661133 458.999267578125 48.58286285400391 458.9942626953125 L 45.20341873168945 457.0669860839844 L 45.11299896240234 457.0154113769531 L 45.11143112182617 457.0142822265625 C 44.86268997192383 456.8818359375 44.58449935913086 456.8111267089844 44.30320739746094 456.8092346191406 L 44.28973388671875 456.8092041015625 M 44.28972625732422 454.8092041015625 C 44.29830551147461 454.8092041015625 44.30689239501953 454.8092346191406 44.31547164916992 454.8092956542969 C 44.97362899780273 454.813720703125 45.62236785888672 454.9927673339844 46.18936538696289 455.3262023925781 L 46.19421005249023 455.3296813964844 L 49.6008415222168 457.2724609375 C 49.62784194946289 457.2891845703125 49.65989303588867 457.3079833984375 49.69636535644531 457.3306274414062 C 49.73268127441406 457.352783203125 49.76389312744141 457.3719787597656 49.79084014892578 457.3897705078125 L 49.81341934204102 457.403076171875 L 53.04078674316406 459.2442932128906 C 53.62236785888672 459.5741882324219 54.07868194580078 460.0378723144531 54.39299774169922 460.5745239257812 C 54.71868133544922 461.1303100585938 54.89120864868164 461.7626037597656 54.89163208007812 462.4034118652344 L 54.89220809936523 462.8102416992188 L 54.90720748901367 462.8102416992188 L 54.90720748901367 466.3456115722656 L 54.90720748901367 470.2874145507812 C 54.90720748901367 471.0154724121094 54.69273376464844 471.6934509277344 54.32273483276367 472.2628173828125 C 53.93962860107422 472.8515625 53.39131546020508 473.3251953125 52.74300003051758 473.6186218261719 L 52.7278938293457 473.6244506835938 L 52.70920944213867 473.6358337402344 L 49.59841918945312 475.410888671875 L 49.24147415161133 475.6140747070312 L 49.24489212036133 475.6200256347656 L 46.14604949951172 477.38818359375 C 45.56191635131836 477.7228698730469 44.92459869384766 477.8810119628906 44.29599380493164 477.8810119628906 C 44.28826522827148 477.8810119628906 44.28046035766602 477.8809814453125 44.27273559570312 477.8809204101562 C 43.61457824707031 477.8765563964844 42.96583938598633 477.6974487304688 42.39889526367188 477.3639221191406 L 42.39389419555664 477.3610229492188 L 38.98762893676758 475.4172973632812 C 38.96041870117188 475.4020385742188 38.92799758911133 475.3822021484375 38.8917350769043 475.3600769042969 C 38.85599899291992 475.3384704589844 38.82447052001953 475.3182067871094 38.79726028442383 475.3004150390625 L 38.77468109130859 475.2880859375 L 35.54731369018555 473.4464111328125 C 34.96594619750977 473.116455078125 34.50931549072266 472.65234375 34.19520950317383 472.115234375 C 33.86968231201172 471.5603637695312 33.69710540771484 470.9275512695312 33.69647216796875 470.2874145507812 L 33.6961555480957 469.8799743652344 L 33.68078994750977 469.8799743652344 L 33.68078994750977 466.3456115722656 L 33.68078994750977 462.4034118652344 C 33.68078994750977 461.6748657226562 33.89536666870117 460.9967651367188 34.26531600952148 460.4273986816406 C 34.64852523803711 459.8390808105469 35.19684219360352 459.3646240234375 35.84521102905273 459.0717163085938 L 35.86026000976562 459.065185546875 L 35.87899780273438 459.055419921875 L 38.98989486694336 457.27978515625 L 39.34673690795898 457.0765686035156 L 39.34341812133789 457.0701904296875 L 42.44205093383789 455.3015747070312 C 43.02549362182617 454.96875 43.6620979309082 454.8092041015625 44.28972625732422 454.8092041015625 Z" stroke="none" fill="#fff"/></g><path d="M.437-1.029q2.756.178,3.92.178a.586.586,0,0,0,.434-.16.586.586,0,0,0,.16-.434V-2.632H2.706A2.482,2.482,0,0,1,.894-3.2,2.482,2.482,0,0,1,.33-5.008v-.238A2.482,2.482,0,0,1,.894-7.057a2.482,2.482,0,0,1,1.811-.564h.238L2.824-8.69H4.606L4.487-7.621h1.9v1.663H3.181a.63.63,0,0,0-.713.713v.238a.63.63,0,0,0,.713.713H4.832a2.335,2.335,0,0,1,1.71.546,2.335,2.335,0,0,1,.546,1.71v.594a2.351,2.351,0,0,1-.54,1.71,2.313,2.313,0,0,1-1.7.546H4.511l.1,1.069H2.824L2.943.753Q1.565.681.437.575Z" transform="translate(6.85 14.63)" fill="#fff"/></svg>