<svg id="in.svg" xmlns="http://www.w3.org/2000/svg" width="22.969" height="25" viewBox="0 0 22.969 25">
  <defs>
    <style>
      .cls-1 {
        fill: #911938;
      }

      .cls-1, .cls-2 {
        fill-rule: evenodd;
      }

      .cls-2 {
        fill: #fff;
      }
    </style>
  </defs>
  <path id="Rectangle_3_copy_4" data-name="Rectangle 3 copy 4" class="cls-1" d="M849.26,45.664l-3.69-2.1,0,0a4.069,4.069,0,0,0-2.03-.56,4.022,4.022,0,0,0-2.029.533l-3.357,1.916,0,0.006-0.387.22L834.4,47.6l-0.02.011-0.017.007a4.02,4.02,0,0,0-1.711,1.469,3.909,3.909,0,0,0-.633,2.14v8.1h0.016v0.441a3.944,3.944,0,0,0,2,3.422l3.5,1.995,0.025,0.013c0.029,0.019.063,0.041,0.1,0.065s0.074,0.045.1,0.063l3.69,2.1,0,0a4.04,4.04,0,0,0,4.059.026l3.356-1.916,0-.006,0.387-.22,3.37-1.923,0.02-.012,0.016-.006a4.028,4.028,0,0,0,1.711-1.469,3.913,3.913,0,0,0,.634-2.14v-8.1h-0.017V51.222a3.946,3.946,0,0,0-2-3.422l-3.5-1.994-0.024-.014-0.1-.064-0.1-.062h0Z" transform="translate(-832.031 -43)"/>
  <path class="cls-2" d="M841.2,59h-1.95V52.884h1.95V59Zm-1.024-6.877h-0.014A1.073,1.073,0,0,1,839,51.061,1.19,1.19,0,1,1,840.177,52.121ZM849,59h-2.21V55.835a1.155,1.155,0,0,0-1.106-1.393,1.115,1.115,0,0,0-1.056.749,1.386,1.386,0,0,0-.048.5V59h-2.189s0.028-5.6,0-6.114h2.189v0.96a2.009,2.009,0,0,1,1.947-1.018c1.384,0,2.473.88,2.473,2.773V59Z" transform="translate(-832.031 -43)"/>
</svg>
