<svg xmlns="http://www.w3.org/2000/svg" width="15.5" height="21.7" viewBox="0 0 15.5 21.7"><g transform="translate(-715 -347)"><g transform="translate(-2123 -1306)" fill="none"><path d="M2839.449,1653h12.6a1.413,1.413,0,0,1,1.448,1.373v3.355c0,1.655-4.346,3.746-4.346,5.855,0,2.092,4.346,4.2,4.346,5.919v3.825a1.413,1.413,0,0,1-1.448,1.374h-12.6a1.413,1.413,0,0,1-1.449-1.374v-3.819c0-1.79,4.346-4,4.346-6.182,0-1.954-4.346-3.878-4.346-5.438v-3.514A1.413,1.413,0,0,1,2839.449,1653Z" stroke="none"/><path d="M 2839.99951171875 1655 L 2839.99951171875 1657.601684570312 C 2840.250732421875 1657.906860351562 2840.8828125 1658.440673828125 2841.2802734375 1658.776123046875 C 2842.717041015625 1659.989624023438 2844.345703125 1661.364868164062 2844.345703125 1663.325439453125 C 2844.345703125 1665.317626953125 2842.78125 1666.825439453125 2841.401123046875 1668.15576171875 C 2840.94482421875 1668.595336914062 2840.201171875 1669.312377929688 2839.99951171875 1669.663940429688 L 2839.99951171875 1672.700439453125 L 2851.5 1672.700439453125 L 2851.5 1669.69580078125 C 2851.280029296875 1669.358764648438 2850.570068359375 1668.704711914062 2850.131591796875 1668.300903320312 C 2848.73583984375 1667.0146484375 2847.15380859375 1665.556884765625 2847.15380859375 1663.5830078125 C 2847.15380859375 1661.581420898438 2848.760009765625 1660.118286132812 2850.177001953125 1658.827392578125 C 2850.59619140625 1658.445434570312 2851.271240234375 1657.830444335938 2851.5 1657.504516601562 L 2851.5 1655 L 2839.99951171875 1655 M 2839.44873046875 1653 L 2852.0517578125 1653 C 2852.85107421875 1653 2853.5 1653.614990234375 2853.5 1654.373291015625 C 2853.5 1654.373291015625 2853.5 1655.73486328125 2853.5 1657.72802734375 C 2853.5 1659.383056640625 2849.15380859375 1661.474365234375 2849.15380859375 1663.5830078125 C 2849.15380859375 1665.674560546875 2853.5 1667.78369140625 2853.5 1669.501708984375 C 2853.5 1671.748046875 2853.5 1673.32666015625 2853.5 1673.32666015625 C 2853.5 1674.085205078125 2852.85107421875 1674.700439453125 2852.0517578125 1674.700439453125 L 2839.44873046875 1674.700439453125 C 2838.6484375 1674.700439453125 2837.99951171875 1674.085205078125 2837.99951171875 1673.32666015625 C 2837.99951171875 1673.32666015625 2837.99951171875 1671.75048828125 2837.99951171875 1669.507568359375 C 2837.99951171875 1667.7177734375 2842.345703125 1665.5029296875 2842.345703125 1663.325439453125 C 2842.345703125 1661.37158203125 2837.99951171875 1659.447509765625 2837.99951171875 1657.886962890625 C 2837.99951171875 1655.807373046875 2837.99951171875 1654.373291015625 2837.99951171875 1654.373291015625 C 2837.99951171875 1653.614990234375 2838.6484375 1653 2839.44873046875 1653 Z" stroke="none" fill="#fff"/></g><line x2="4.34" transform="translate(720.023 364.547)" fill="none" stroke="#fff" stroke-width="2"/></g></svg>