<svg xmlns="http://www.w3.org/2000/svg" width="202" height="227" viewBox="0 0 202 227"><path d="M-1,226V-1H201V226ZM200,112.5V78h-.1V74a35.614,35.614,0,0,0-4.7-17.8,34.46,34.46,0,0,0-12.7-13l-30.4-18-.2-.1a7.018,7.018,0,0,0-.9-.6,7.017,7.017,0,0,1-.9-.6L118,4.9h0a34.752,34.752,0,0,0-35.5-.1L53.3,22v.1l-3.4,2L20.7,41.4l-.2.1-.1.1A35.218,35.218,0,0,0,5.5,54.8,36.375,36.375,0,0,0,0,74.1V147H.1v4a35.614,35.614,0,0,0,4.7,17.8,34.46,34.46,0,0,0,12.7,13l30.4,18,.2.1.9.6.9.6,32.1,19h0a34.164,34.164,0,0,0,35.3.2l29.2-17.2V203l3.4-2,29.3-17.3.2-.1.1-.1a35.892,35.892,0,0,0,14.9-13.2,36.632,36.632,0,0,0,5.5-19.3V112.5Z" transform="translate(1 1)" fill="#1f2022"/></svg>