<svg xmlns="http://www.w3.org/2000/svg" width="184.644" height="113.559" viewBox="0 0 184.644 113.559"><g transform="translate(-633.267 -1476)"><path d="M0,0,27.354,47.378h22.57" transform="translate(634.133 1564.62) rotate(-60)" fill="none" stroke="#fff" stroke-width="2"/><path d="M0,0H23.5" transform="translate(711.625 1520.979) rotate(-60)" fill="none" stroke="#fff" stroke-width="2"/><path d="M0,0H23.5" transform="translate(667.25 1541.306) rotate(-60)" fill="none" stroke="#fff" stroke-width="2"/><path d="M10889.5,3500.842h53.362" transform="translate(-10143.206 -2016.274)" fill="none" stroke="#fff" stroke-width="2"/><path d="M10889.5,3500.842h53.362" transform="translate(-10124.948 -1991.156)" fill="none" stroke="#fff" stroke-width="2"/><path d="M0,0V11.262L7.121,5.38Z" transform="translate(693.763 1544.766) rotate(-60)" fill="#fff"/><rect width="15.501" height="15.501" transform="translate(703.808 1520.86) rotate(30)" fill="#22a180"/><rect width="7.155" height="7.155" transform="translate(722.887 1494.627) rotate(30)" fill="#fff"/><circle cx="8.943" cy="8.943" r="8.943" transform="translate(723.935 1476)" fill="#22a180"/><circle cx="4.173" cy="4.173" r="4.173" transform="translate(795.481 1480.77)" fill="#fff"/></g></svg>