<svg xmlns="http://www.w3.org/2000/svg" width="306" height="663" viewBox="0 0 306 663"><g transform="translate(-87 -41.001)"><path d="M306,663H0V0H306V663ZM40.89,8.161A34.329,34.329,0,0,0,17.549,17.99,34.951,34.951,0,0,0,9.9,28.655,31.1,31.1,0,0,0,7,41.717V611.824c0,14.768,1.389,20.292,4.124,25.85A29.34,29.34,0,0,0,22.8,650.358c5.114,2.971,10.2,4.48,23.792,4.48H259.408c13.6,0,18.679-1.51,23.792-4.48a29.3,29.3,0,0,0,11.675-12.685c2.737-5.562,4.126-11.086,4.126-25.85V41.717c0-18.5-15.968-33.556-35.6-33.556h-18.76a8.1,8.1,0,0,0-4.194.993,6.675,6.675,0,0,0-2.48,2.637c-1.209,2.19-1.652,5.079-2.121,8.139-1.013,6.613-2.061,13.452-11.2,13.452l-134.8.235c-6.968,0-11.792-1.724-14.75-5.271-2.574-3.088-3.384-7.132-4.1-10.7-1.021-5.092-1.9-9.487-7.432-9.487Z" transform="translate(87 41)" fill="#191a1a"/><g transform="translate(216 53.9)"><path d="M231.817-934h29.575a2.817,2.817,0,0,1,2.817,2.817h0a2.817,2.817,0,0,1-2.817,2.817H231.817A2.817,2.817,0,0,1,229-931.183h0A2.817,2.817,0,0,1,231.817-934Z" transform="translate(-229 935.408)" fill="#222424" fill-rule="evenodd"/><path d="M290.225-927.55a4.225,4.225,0,0,0,4.225-4.225A4.225,4.225,0,0,0,290.225-936,4.225,4.225,0,0,0,286-931.775,4.225,4.225,0,0,0,290.225-927.55Z" transform="translate(-245.863 936)" fill="#222424" fill-rule="evenodd"/></g><rect width="134" height="5" rx="2.5" transform="translate(173 682)" fill="#fff" opacity="0.15"/></g></svg>