<svg xmlns="http://www.w3.org/2000/svg" width="25.5" height="26.623" viewBox="0 0 25.5 26.623"><g transform="translate(-224 -410.539)"><path d="M709.322,874.186v-7.663" transform="translate(-480.463 -439.242)" fill="none" stroke="#fff" stroke-linecap="round" stroke-width="2"/><g transform="translate(185.316 80.334)" fill="none"><path d="M45.5,338.983l-1.381-.776,0,0a1.547,1.547,0,0,0-.76-.206,1.527,1.527,0,0,0-.76.2l-1.257.706,0,0-.145.081-1.261.709-.007,0-.006,0a1.5,1.5,0,0,0-.641.542,1.428,1.428,0,0,0-.237.79v2.987h.006v.163a1.432,1.432,0,0,0,.2.73,1.464,1.464,0,0,0,.549.532l1.309.736.009.005c.011.008.024.015.038.024l.039.023,1.382.776,0,0a1.547,1.547,0,0,0,.76.206,1.526,1.526,0,0,0,.76-.2l1.257-.707v0l.145-.081,1.262-.709.008,0,.006,0a1.5,1.5,0,0,0,.641-.542,1.427,1.427,0,0,0,.237-.789V341.2h-.006v-.162a1.436,1.436,0,0,0-.2-.731,1.472,1.472,0,0,0-.548-.532l-1.309-.736-.009,0-.038-.023-.039-.024Z" stroke="none"/><path d="M 43.35160827636719 340.0719604492188 L 42.31197357177734 340.6516723632813 L 42.17056655883789 340.7304992675781 L 41.04007339477539 341.3658752441406 L 41.04007339477539 342.0204162597656 L 41.04632186889648 342.0204162597656 L 41.04632186889648 343.852783203125 L 42.08607482910156 344.4374084472656 L 42.10577392578125 344.4484558105469 L 42.12517166137695 344.4599609375 L 42.13437271118164 344.4654235839844 L 42.20342254638672 344.5063171386719 L 42.21084213256836 344.5115661621094 L 43.34222412109375 345.1472778320313 L 44.36902236938477 344.5689086914063 L 44.51547241210938 344.4864196777344 L 45.64837265014648 343.849853515625 L 45.64837265014648 343.1958618164063 L 45.64467239379883 343.1958618164063 L 45.64242553710938 341.3624572753906 L 44.62036514282227 340.787841796875 L 44.58322143554688 340.7678833007813 L 44.53972244262695 340.7416687011719 L 44.51467132568359 340.7266235351563 L 44.4859733581543 340.70947265625 L 44.48514175415039 340.7089538574219 L 43.35160827636719 340.0719604492188 M 43.34311294555664 337.9981994628906 C 43.34634017944336 337.9981994628906 43.3495979309082 337.9981994628906 43.35282135009766 337.9982299804688 C 43.61967468261719 337.9999084472656 43.88297271728516 338.0720825195313 44.11282348632813 338.2045288085938 L 44.11477279663086 338.2066650390625 L 45.49617385864258 338.98291015625 C 45.50722122192383 338.989013671875 45.5203742980957 338.9971618652344 45.53507232666016 339.0065307617188 C 45.54982376098633 339.0152587890625 45.56242370605469 339.0228576660156 45.57337188720703 339.0294799804688 L 45.58252334594727 339.0343627929688 L 46.89137268066406 339.7702331542969 C 47.12732315063477 339.9026794433594 47.31227111816406 340.0875549316406 47.43977355957031 340.3020324707031 C 47.57187271118164 340.5245056152344 47.64182281494141 340.7772827148438 47.64202117919922 341.0334777832031 L 47.6422233581543 341.1958618164063 L 47.64837265014648 341.1958618164063 L 47.64837265014648 342.6078796386719 L 47.64837265014648 344.1829223632813 C 47.64837265014648 344.4744262695313 47.56142425537109 344.7446594238281 47.41127395629883 344.9722595214844 C 47.25587463378906 345.20751953125 47.03352355957031 345.3967590332031 46.77067184448242 345.5138549804688 L 46.76452255249023 345.5166320800781 L 46.75697326660156 345.5210266113281 L 45.49517440795898 346.2300109863281 L 45.3505744934082 346.3114624023438 L 45.35202407836914 346.3136596679688 L 44.09532165527344 347.0205078125 C 43.85856246948242 347.1539611816406 43.59982299804688 347.2174987792969 43.34493637084961 347.2174987792969 C 43.34177017211914 347.2174987792969 43.33858871459961 347.2174987792969 43.33542251586914 347.2174682617188 C 43.06857299804688 347.2152099609375 42.80557250976563 347.1441040039063 42.57572174072266 347.01123046875 L 42.57377243041992 347.0095825195313 L 41.19217300415039 346.2332763671875 C 41.18112182617188 346.2265625 41.16807174682617 346.2190246582031 41.15322113037109 346.2097778320313 C 41.13872146606445 346.200927734375 41.12592315673828 346.1938781738281 41.11502456665039 346.1861572265625 L 41.1058235168457 346.1807250976563 L 39.79717254638672 345.4448547363281 C 39.56132125854492 345.3136291503906 39.37607192993164 345.1276550292969 39.24857330322266 344.9132080078125 C 39.11667251586914 344.6915588378906 39.04662322998047 344.4394836425781 39.04632186889648 344.1829223632813 L 39.04632186889648 344.0204162597656 L 39.04007339477539 344.0204162597656 L 39.04007339477539 342.6078796386719 L 39.04007339477539 341.0334777832031 C 39.04007339477539 340.7417602539063 39.12712478637695 340.4704284667969 39.27707290649414 340.243408203125 C 39.43247222900391 340.0081787109375 39.65482330322266 339.8189697265625 39.91777420043945 339.7017822265625 L 39.92402267456055 339.6991271972656 L 39.93147277832031 339.6947326660156 L 41.19297409057617 338.9857177734375 L 41.33797454833984 338.9048767089844 L 41.33642196655273 338.9020080566406 L 42.59302139282227 338.1957092285156 C 42.83002090454102 338.0623168945313 43.0883903503418 337.9981689453125 43.34311294555664 337.9981994628906 Z" stroke="none" fill="#fff"/></g><path d="M39.555,397.852s2.652.953,3.3,1.717a11.781,11.781,0,0,1,1.316,2.928" transform="translate(192.953 17.887)" fill="none" stroke="#fff" stroke-linejoin="round" stroke-width="2"/><path d="M36.486,396.748s5.355,1.66,6.475,2.859,2.439,6.477,2.439,6.477" transform="translate(195.948 14.746)" fill="none" stroke="#fff" stroke-linejoin="round" stroke-width="2"/><rect width="9" height="1.299" transform="translate(224 435.147)" fill="#fff"/><path d="M79.058,108.743a7.409,7.409,0,0,0,7.532-7.394c0-.112,0-.224-.008-.336A5.333,5.333,0,0,0,87.9,99.667a5.36,5.36,0,0,1-1.52.409,2.617,2.617,0,0,0,1.164-1.437,5.365,5.365,0,0,1-1.681.631,2.686,2.686,0,0,0-3.18-.511,2.585,2.585,0,0,0-1.331,2.882A7.563,7.563,0,0,1,75.9,98.924a2.572,2.572,0,0,0,.82,3.469,2.665,2.665,0,0,1-1.2-.325v.033a2.612,2.612,0,0,0,2.124,2.548,2.691,2.691,0,0,1-1.2.045,2.645,2.645,0,0,0,2.473,1.8,5.375,5.375,0,0,1-3.288,1.115,5.486,5.486,0,0,1-.63-.037,7.6,7.6,0,0,0,4.058,1.165" transform="translate(161.598 328.419)" fill="#fff"/></g></svg>