<svg xmlns="http://www.w3.org/2000/svg" width="27" height="15" viewBox="0 0 27 15">
  <g id="Group_1255" data-name="Group 1255" transform="translate(-145 -184)">
    <path id="Rectangle_389" data-name="Rectangle 389" d="M0,0H19a8,8,0,0,1,8,8v7a0,0,0,0,1,0,0H4a4,4,0,0,1-4-4V0A0,0,0,0,1,0,0Z" transform="translate(145 184)" fill="#30836d"/>
    <path id="Path_804" data-name="Path 804" d="M4.02,0H2.88L1.44-2.52V0H.36V-4.2H1.5L2.94-1.68V-4.2H4.02ZM8.25,0H4.92V-4.2H8.25v.84H6v.81H7.77v.84H6v.87H8.25Zm3.72-4.2.72,2.7.63-2.7h1.17L13.35,0H12.21l-.72-2.61L10.77,0H9.63L8.49-4.2H9.66l.63,2.7.72-2.7Z" transform="translate(152 194)" fill="#fff"/>
  </g>
</svg>
