<svg xmlns="http://www.w3.org/2000/svg" width="12.008" height="14.254" viewBox="0 0 12.008 14.254"><g transform="translate(-850.051 -412.965)"><path d="M0,3.739,5.731,0" transform="translate(859.221 416.918) rotate(123.007)" fill="none" stroke="#fff" stroke-linecap="round" stroke-width="2"/><path d="M0,1.414,2.018,0,3.535,1.974" transform="translate(858.11 421.839) rotate(171)" fill="none" stroke="#fff" stroke-linecap="round" stroke-linejoin="round" stroke-width="2"/><path d="M33.681,464.151l.007,1.941a1.709,1.709,0,0,0,.235.862,30.464,30.464,0,0,0,3.865,2.473h0a3.28,3.28,0,0,0,.883.244,1.749,1.749,0,0,0,.883-.232c3.416-1.915,3.674-2.139,3.855-2.416a1.7,1.7,0,0,0,.276-.931v-1.858" transform="translate(817.374 -43.452)" fill="none" stroke="#fff" stroke-linecap="round" stroke-linejoin="round" stroke-width="2"/></g></svg>