<svg xmlns="http://www.w3.org/2000/svg" xmlns:xlink="http://www.w3.org/1999/xlink" width="167.013" height="167.84" viewBox="0 0 167.013 167.84"><defs><clipPath id="a"><path d="M100.868,167.84H0V0H167.013V110.79H100.868v57.049Z" fill="#fff"/></clipPath></defs><g transform="translate(1254.176 -374.883)"><g transform="translate(-1254.176 374.883)" clip-path="url(#a)"><g transform="translate(5.788 5.787)" fill="none" stroke="#22a180" stroke-width="2"><circle cx="76.478" cy="76.478" r="76.478" stroke="none"/><circle cx="76.478" cy="76.478" r="75.478" fill="none"/></g></g><path d="M27.619,34.1a24.479,24.479,0,0,0-.278,30.687" transform="translate(-1216.46 409.65)" fill="none" stroke="#22a180" stroke-width="2"/><path d="M18.841,24.955a37.212,37.212,0,0,0-.281,48.99" transform="translate(-1216.46 409.65)" fill="none" stroke="#22a180" stroke-width="2"/><path d="M22.072,34.1a24.479,24.479,0,0,1,.278,30.688" transform="translate(-1173.031 409.651)" fill="none" stroke="#22a180" stroke-width="2"/><path d="M9.5,24.955a37.419,37.419,0,0,1,9.341,24.68A37.351,37.351,0,0,1,9.782,73.947" transform="translate(-1151.682 409.65)" fill="none" stroke="#22a180" stroke-width="2"/><path d="M-17.453,0h-2.7V-10.5h8.325v2.1h-5.625v2.475h4.425v2.1h-4.425Zm7.635-10.5h6.3a3.135,3.135,0,0,1,2.288.713A3.135,3.135,0,0,1-.518-7.5v1.35A3.786,3.786,0,0,1-.93-4.215,2.018,2.018,0,0,1-2.243-3.3L-.368,0H-3.293L-5.018-3.15h-2.1V0h-2.7Zm6.6,3a.8.8,0,0,0-.9-.9h-3v3.15h3a.8.8,0,0,0,.9-.9ZM10.267,0H1.942V-10.5h8.325v2.1H4.642v2.025H9.067v2.1H4.642V-2.1h5.625ZM20.753,0H12.427V-10.5h8.325v2.1H15.128v2.025h4.425v2.1H15.128V-2.1h5.625Z" transform="translate(-1111 515)" fill="#fff"/><circle cx="12.604" cy="12.604" r="12.604" transform="translate(-1182.551 446.458)" fill="#22a180"/><path d="M276,252.6l4.2,2.8,7-8.4" transform="translate(-1451.549 207.861)" fill="none" stroke="#fff" stroke-width="2"/></g></svg>