<svg xmlns="http://www.w3.org/2000/svg" width="40.477" height="27.778" viewBox="0 0 40.477 27.778"><path d="M59.368,60.662A10.616,10.616,0,1,0,48.75,50.047,10.618,10.618,0,0,0,59.368,60.662Zm0-19.44a8.825,8.825,0,1,1-8.825,8.825A8.825,8.825,0,0,1,59.368,41.222Z" transform="translate(-29.51 -32.883)" fill="#fff"/><path d="M56,37.317h1.837v-4.8H28.421V52.3h17.2V50.547H30.259V34.26H56Z" transform="translate(-28.421 -32.516)" fill="#fff"/><path d="M44.429,48.224V46.8a3.06,3.06,0,0,0,.421-.111,2.516,2.516,0,0,0,.9-.573,2.4,2.4,0,0,0,.551-.865,3.091,3.091,0,0,0,.188-1.094,2.158,2.158,0,0,0-.152-.85,1.881,1.881,0,0,0-.4-.606,2.223,2.223,0,0,0-.562-.418,6.347,6.347,0,0,0-.643-.3c-.218-.085-.432-.163-.643-.237a3.169,3.169,0,0,1-.562-.244,1.4,1.4,0,0,1-.4-.318.682.682,0,0,1-.152-.447.813.813,0,0,1,.292-.65,1.2,1.2,0,0,1,.8-.248,1.746,1.746,0,0,1,.569.081,2.933,2.933,0,0,1,.429.181c.126.067.237.126.333.181a.537.537,0,0,0,.27.081.359.359,0,0,0,.2-.052.511.511,0,0,0,.148-.181l.392-.717a2.953,2.953,0,0,0-1.981-.983V37.074H43.2v1.441a2.865,2.865,0,0,0-.318.089,2.566,2.566,0,0,0-.846.543,2.333,2.333,0,0,0-.514.8,2.627,2.627,0,0,0-.174.965,2.56,2.56,0,0,0,.152.931,2.012,2.012,0,0,0,.4.65,2.328,2.328,0,0,0,.565.44,5.433,5.433,0,0,0,.65.3c.222.085.436.163.65.237a4.057,4.057,0,0,1,.565.244,1.466,1.466,0,0,1,.4.322.724.724,0,0,1,.148.473,1.059,1.059,0,0,1-.067.373.826.826,0,0,1-.211.318.978.978,0,0,1-.362.218,1.509,1.509,0,0,1-.528.085,1.705,1.705,0,0,1-.647-.1,2.75,2.75,0,0,1-.443-.225c-.126-.081-.237-.155-.333-.225a.5.5,0,0,0-.3-.1.44.44,0,0,0-.262.07.605.605,0,0,0-.181.211l-.4.754a2.919,2.919,0,0,0,.484.4,3.741,3.741,0,0,0,1.275.536,2.67,2.67,0,0,0,.3.03V48.22Z" transform="translate(-29.104 -32.76)" fill="#fff"/><path d="M54.528,52.67l1.767-1.046c.118.248.233.5.384.75.129.218.266.4.4.591l-1.759,1.046.4.673,1.848-1.1a4.715,4.715,0,0,0,2.066,1.438,4.263,4.263,0,0,0,3.574-.565,5.453,5.453,0,0,0,1.911-1.737l-.687-1.157a6.693,6.693,0,0,1-1.933,1.77,2.585,2.585,0,0,1-2.4.273,3.474,3.474,0,0,1-1.172-.839l3.77-2.232-.4-.673-3.873,2.3c-.14-.192-.273-.388-.41-.61-.148-.251-.27-.5-.384-.732l3.877-2.3-.4-.669-3.762,2.229a2.693,2.693,0,0,1,1.308-3.433,4.842,4.842,0,0,1,.972-.421,6.741,6.741,0,0,1,1.112-.27l-.255-1.345a4.753,4.753,0,0,0-1.161.262,6.681,6.681,0,0,0-1.319.6,4.368,4.368,0,0,0-2.269,2.938,4.811,4.811,0,0,0,.255,2.472L54.121,52Z" transform="translate(-29.799 -33.164)" fill="#fff"/></svg>