<svg xmlns="http://www.w3.org/2000/svg" width="28.109" height="36.379" viewBox="0 0 28.109 36.379"><path d="M30.623,6.24a98.736,98.736,0,0,1,8.584,10.223c2.739,3.882,4.907,8.012,4.907,11.849a15.377,15.377,0,0,1-3.062,8.656,13.2,13.2,0,0,1-10.985,5.4,13.226,13.226,0,0,1-11-5.4A15.361,15.361,0,0,1,16,28.313c0-3.853,2.285-7.983,5.067-11.863s6.078-7.53,8.319-10.2a.876.876,0,0,1,1.23-.015Zm-.588,1.817c-2.24,2.622-5.14,5.887-7.631,9.359-2.695,3.764-4.744,7.72-4.744,10.9a14.069,14.069,0,0,0,2.724,7.66,11.433,11.433,0,0,0,9.682,4.746,11.427,11.427,0,0,0,9.668-4.746,14.07,14.07,0,0,0,2.724-7.66c0-3.192-1.962-7.148-4.613-10.912a93.386,93.386,0,0,0-7.809-9.344Zm9.947,18.6c2.475,3.31-2.475,12.816-9.506,11.161C36.671,34.934,39.147,26.659,39.981,26.659Z" transform="translate(-16.005 -5.994)" fill="#fff"/></svg>