<svg xmlns="http://www.w3.org/2000/svg" width="44.434" height="40.328" viewBox="0 0 44.434 40.328"><g transform="translate(0 0)"><path d="M47.512,43.751l.006-.019a.636.636,0,0,0,.026-.093v0a.6.6,0,0,0,.013-.1.09.09,0,0,1,0-.022h0a.687.687,0,0,0-.019-.194.066.066,0,0,1,0-.019.714.714,0,0,0-.078-.187.1.1,0,0,0-.009-.015.643.643,0,0,0-.057-.081l-.006-.006a.528.528,0,0,0-.043-.048L45.12,40.748A.741.741,0,0,0,44.072,41.8l.957.957H6.827V8.655l.957.957A.741.741,0,0,0,8.832,8.564L6.61,6.342c-.024-.022-.05-.044-.076-.065l-.019-.013a.773.773,0,0,0-.172-.093.077.077,0,0,1-.019-.007v0a.834.834,0,0,0-.091-.026h0a.82.82,0,0,0-.094-.011.106.106,0,0,1-.024,0h0a.749.749,0,0,0-.091,0H6.014a.841.841,0,0,0-.094.017l-.02.006a.829.829,0,0,0-.1.03.671.671,0,0,0-.089.046L5.7,6.237a.592.592,0,0,0-.081.057L5.611,6.3c-.017.013-.031.028-.048.043L3.341,8.564A.741.741,0,0,0,4.389,9.612l.957-.957V43.493a.74.74,0,0,0,.741.741H45.029l-.957.957a.741.741,0,0,0,1.048,1.048l2.222-2.222c.022-.024.044-.05.065-.076a.113.113,0,0,0,.013-.019.7.7,0,0,0,.093-.172Z" transform="translate(-3.124 -6.127)" fill="#fff"/><path d="M20.312,82.487h1.481V76.562H20.312Z" transform="translate(-12.166 -45.861)" fill="#fff"/><path d="M34.375,74.267h1.481V60.937H34.375Z" transform="translate(-19.563 -37.642)" fill="#fff"/><path d="M76.562,63.582h1.481V40.624H76.562Z" transform="translate(-41.755 -26.956)" fill="#fff"/><path d="M62.5,76.733h1.481V65.624H62.5Z" transform="translate(-34.358 -40.107)" fill="#fff"/><path d="M48.438,70.157h1.481V53.124H48.438Z" transform="translate(-26.961 -33.532)" fill="#fff"/><path d="M21.794,38.664H20.313V34.22h1.481Zm5.184-7.406V26.815h1.481v4.443Zm8.146-3.7H33.644V23.112h1.481Zm5.184,5.925V29.037H41.79V33.48Zm8.146-11.849H46.974V17.187h1.481Z" transform="translate(-12.166 -11.891)" fill="#fff"/></g></svg>