<svg xmlns="http://www.w3.org/2000/svg" width="32.562" height="37.147" viewBox="0 0 32.562 37.147"><g transform="translate(0)"><path d="M34.741,42.266H27.028a.692.692,0,0,1-.692-.692V21.848a.692.692,0,0,1,.692-.692h7.714a.691.691,0,0,1,.692.692V41.574a.691.691,0,0,1-.692.692Zm-7.018-1.384h6.326V22.54H27.72Z" transform="translate(-26.336 -11.785)" fill="#fff"/><path d="M35.732,10.7a.692.692,0,0,1-.692-.692V.692a.692.692,0,1,1,1.384,0v9.344a.692.692,0,0,1-.692.664Z" transform="translate(-31.184)" fill="#fff"/><path d="M35.732,73.737a.692.692,0,0,1-.692-.692V66.379a.692.692,0,1,1,1.384,0v6.662a.691.691,0,0,1-.692.7Z" transform="translate(-31.184 -36.59)" fill="#fff"/><path d="M87.715,44.951H80a.692.692,0,0,1-.692-.692V34.036A.692.692,0,0,1,80,33.344h7.71a.691.691,0,0,1,.692.692V44.259a.691.691,0,0,1-.692.692ZM80.7,43.567h6.326V34.728H80.7Z" transform="translate(-55.845 -18.574)" fill="#fff"/><path d="M88.708,25.5a.692.692,0,0,1-.692-.692V17.575a.692.692,0,0,1,1.384,0v7.233a.691.691,0,0,1-.692.692Z" transform="translate(-60.693 -9.404)" fill="#fff"/><path d="M88.708,66.648a.692.692,0,0,1-.692-.692V57.114a.692.692,0,0,1,1.384,0v8.842a.691.691,0,0,1-.692.692Z" transform="translate(-60.693 -31.429)" fill="#fff"/><path d="M61.223,21.745h-7.71a.692.692,0,0,1-.692-.692V12.747a.692.692,0,0,1,.692-.692h7.71a.691.691,0,0,1,.692.692v8.306a.691.691,0,0,1-.692.692ZM54.2,20.361h6.326V13.439H54.2Z" transform="translate(-41.089 -6.715)" fill="#fff"/><path d="M62.216,6.679a.692.692,0,0,1-.692-.692V.692a.692.692,0,1,1,1.384,0V5.987a.691.691,0,0,1-.692.692Z" transform="translate(-45.936)" fill="#fff"/><path d="M62.216,44.886a.692.692,0,0,1-.692-.692V31.5a.692.692,0,1,1,1.384,0v12.7a.691.691,0,0,1-.692.692Z" transform="translate(-45.936 -17.159)" fill="#fff"/></g></svg>