<svg xmlns="http://www.w3.org/2000/svg" width="46.371" height="36.202" viewBox="0 0 46.371 36.202"><path d="M40.679,7.666a.97.97,0,0,1-.97.97H18.47a.97.97,0,0,1,0-1.94H39.709a.97.97,0,0,1,.97.97ZM18.47,13.924h6.391a.97.97,0,1,0,0-1.94H18.47a.97.97,0,1,0,0,1.94Zm0,5.265h6.391a.97.97,0,0,0,0-1.94H18.47a.97.97,0,0,0,0,1.94Zm0,5.265h6.391a.97.97,0,1,0,0-1.94H18.47a.97.97,0,1,0,0,1.94ZM.775,30.289V11.37a.97.97,0,0,1,1.94,0V30.283a4.155,4.155,0,0,0,8.306,0V1.153a.97.97,0,0,1,.97-.97H46.177a.97.97,0,0,1,.97.97V31.146a5.229,5.229,0,0,1-5.242,5.239H6.87a6.1,6.1,0,0,1-6.1-6.1Zm10.546,4.155H41.905a3.288,3.288,0,0,0,3.289-3.289V2.131H12.961V30.283a6.076,6.076,0,0,1-1.638,4.155ZM5.9,11.576V30.268a.97.97,0,0,0,1.94,0V11.576a.97.97,0,0,0-1.94,0Z" transform="translate(-0.775 -0.184)" fill="#fff"/><path d="M34.451,24.066H13.212a.97.97,0,0,0,0,1.94H34.449a.97.97,0,0,0,0-1.94Zm.97-14.833V19.761a.97.97,0,0,1-.97.97H25.008a.97.97,0,0,1-.97-.97V9.239a.97.97,0,0,1,.97-.968h9.441a.97.97,0,0,1,.97.97Zm-1.94.97h-7.5v8.588h7.5Z" transform="translate(4.482 3.524)" fill="#ed3262"/></svg>