<svg xmlns="http://www.w3.org/2000/svg" width="43.934" height="43.937" viewBox="0 0 43.934 43.937"><g transform="translate(-21295.635 -6307)"><path d="M24.936,6.2a.783.783,0,0,0-.782.786v4.038a17.689,17.689,0,0,0-5.281,2.18l-2.85-2.852a.783.783,0,0,0-1.111,0l-4.564,4.564a.784.784,0,0,0,0,1.1l2.85,2.852A17.69,17.69,0,0,0,11,24.155H6.979a.78.78,0,0,0-.78.78V31.39a.783.783,0,0,0,.78.782h4.034a17.688,17.688,0,0,0,2.192,5.281l-2.858,2.858v0a.784.784,0,0,0,0,1.1l4.564,4.564a.783.783,0,0,0,1.111,0l2.844-2.844a17.739,17.739,0,0,0,5.287,2.186v4.026a.783.783,0,0,0,.782.786h6.455a.77.77,0,0,0,.556-.229.779.779,0,0,0,.231-.556V45.308a17.676,17.676,0,0,0,5.276-2.186l2.858,2.858,0,0a.783.783,0,0,0,1.111,0l4.559-4.564a.784.784,0,0,0,0-1.1l-2.846-2.85a17.706,17.706,0,0,0,2.194-5.287h4.024a.785.785,0,0,0,.782-.782V24.935a.782.782,0,0,0-.782-.78H45.319a17.677,17.677,0,0,0-2.19-5.287l2.85-2.852a.784.784,0,0,0,0-1.1l-4.559-4.564a.783.783,0,0,0-1.111,0L37.46,13.2a17.669,17.669,0,0,0-5.281-2.192V6.98a.779.779,0,0,0-.231-.556.769.769,0,0,0-.556-.229Zm.786,1.567h4.89V11.51a.783.783,0,0,0,.631.77,16.224,16.224,0,0,1,5.981,2.474.78.78,0,0,0,.987-.092l2.654-2.649,3.452,3.446-2.654,2.662h0a.783.783,0,0,0-.1.989,16.175,16.175,0,0,1,2.476,5.977v0a.783.783,0,0,0,.768.631h3.753V30.6H44.816a.782.782,0,0,0-.768.637,16.2,16.2,0,0,1-2.476,5.975.784.784,0,0,0,.1,1l2.649,2.649-3.452,3.454L38.2,41.659a.783.783,0,0,0-.987-.094,16.188,16.188,0,0,1-5.975,2.47.781.781,0,0,0-.631.77v3.761l-4.89,0V44.817a.783.783,0,0,0-.637-.77,16.18,16.18,0,0,1-5.975-2.476.781.781,0,0,0-.993.094l-2.649,2.654-3.46-3.46,2.66-2.654h0a.781.781,0,0,0,.094-.989,16.235,16.235,0,0,1-2.47-5.975.783.783,0,0,0-.77-.637H7.761V25.717h3.75a.784.784,0,0,0,.768-.631A16.2,16.2,0,0,1,14.755,19.1a.783.783,0,0,0-.092-.989l-2.649-2.656,3.452-3.452,2.656,2.66a.781.781,0,0,0,.993.092,16.208,16.208,0,0,1,5.969-2.47.781.781,0,0,0,.637-.768Zm2.441,9.446a10.956,10.956,0,1,0,10.96,10.955,10.966,10.966,0,0,0-10.96-10.955Zm0,1.567a9.388,9.388,0,1,1-9.351,10.167,14.252,14.252,0,0,0,0-1.567,9.37,9.37,0,0,1,9.349-8.6Z" transform="translate(21289.436 6300.805)" fill="#fff"/><path d="M19.084,28.943h8.295l-1.916,1.8a.783.783,0,1,0,1.07,1.138l3.326-3.123a.341.341,0,0,0,.027-.024l.031-.029.024-.025a.085.085,0,0,0,.012-.014l.029-.035A.255.255,0,0,1,30,28.6l.029-.051a.628.628,0,0,0,.065-.143.707.707,0,0,0,.039-.231.777.777,0,0,0-.3-.639l-.008-.006-3.291-3.089a.782.782,0,1,0-1.07,1.14l1.908,1.792H19.084Z" transform="translate(21289.436 6300.805)" fill="#ed3262"/></g></svg>