<svg xmlns="http://www.w3.org/2000/svg" width="46.419" height="39.503" viewBox="0 0 46.419 39.503"><g transform="translate(0 0)"><path d="M23.5,49.958h5.008V48.2H23.5a.258.258,0,0,1-.259-.259V16.859A.258.258,0,0,1,23.5,16.6h12l.878.878h2.482L36.486,15.1a.879.879,0,0,0-.621-.257H23.5a2.016,2.016,0,0,0-2.015,2.015V47.943A2.016,2.016,0,0,0,23.5,49.958Z" transform="translate(-21.484 -14.844)" fill="#fff"/><path d="M45.8,63.475H56.334a.878.878,0,1,0,0-1.756H45.8a.878.878,0,1,0,0,1.756Z" transform="translate(-27.649 -35.384)" fill="#fff"/><path d="M45.8,57.225H56.334a.878.878,0,0,0,0-1.756H45.8a.878.878,0,1,0,0,1.756Z" transform="translate(-27.649 -34.013)" fill="#fff"/><path d="M45.8,50.975H56.334a.878.878,0,1,0,0-1.756H45.8a.878.878,0,1,0,0,1.756Z" transform="translate(-27.649 -32.643)" fill="#fff"/><path d="M45.8,44.725H56.334a.878.878,0,1,0,0-1.756H45.8a.878.878,0,1,0,0,1.756Z" transform="translate(-27.649 -31.272)" fill="#fff"/><path d="M33.109,24.671V55.755a2.016,2.016,0,0,0,2.015,2.015H57.635a2.016,2.016,0,0,0,2.015-2.015v-2.6a2.708,2.708,0,0,1-.542.252l-1.214.4v1.94a.258.258,0,0,1-.259.259H35.123a.258.258,0,0,1-.259-.259V24.671a.258.258,0,0,1,.259-.259H52.6l5.3,5.3V42.965l1.756-1.756V29.346a.879.879,0,0,0-.257-.621l-5.809-5.811a.879.879,0,0,0-.621-.257H35.123a2.016,2.016,0,0,0-2.015,2.015Z" transform="translate(-22.962 -18.267)" fill="#fff"/><path d="M59.83,59.914l-.95,2.853H57.1a.884.884,0,0,0-.456.127l-1.26.768-.294-.77a.876.876,0,0,0-1.159-.5l-2.217.922a.878.878,0,0,0,.676,1.62l1.38-.573.349.911a.881.881,0,0,0,.535.518.89.89,0,0,0,.742-.081l1.949-1.189h1.949a.9.9,0,0,0,.108-.011.763.763,0,0,0,.391-.035l3.454-1.152,0,0a.892.892,0,0,0,.345-.213l9.97-9.97a1.756,1.756,0,0,0,0-2.482L72.5,49.6v0a1.759,1.759,0,0,0-2.484,0l-9.97,9.97a.892.892,0,0,0-.213.345Zm11.425-9.072L72.317,51.9l-1.062,1.062L70.193,51.9ZM61.43,60.664l7.521-7.521,1.062,1.062-7.521,7.521-1.591.531Z" transform="translate(-27.652 -29.848)" fill="#fff"/></g></svg>