<svg xmlns="http://www.w3.org/2000/svg" width="42.075" height="41.638" viewBox="0 0 42.075 41.638"><g transform="translate(0 0)"><path d="M63.332,27.176a12.42,12.42,0,0,1-.805,4.506l7.834,3.273a21.368,21.368,0,0,0,1.449-7.834A21.637,21.637,0,0,0,50.777,5.554v8.477A13.162,13.162,0,0,1,63.332,27.176Z" transform="translate(-29.733 -5.554)" fill="#fff"/><g transform="translate(-21.832 -33.526)" fill="none"><path d="M43.166,68.205a10.309,10.309,0,0,1-2.35-.266L39,74.676a18.8,18.8,0,0,0,4.167.488A17.785,17.785,0,0,0,59.432,64.7L52.961,62a10.786,10.786,0,0,1-9.795,6.2Z" stroke="none"/><path d="M 53.50746154785156 63.52930450439453 C 52.56288909912109 65.12323760986328 51.26116180419922 66.47891998291016 49.6948356628418 67.49047088623047 C 47.75517272949219 68.74311065673828 45.49747467041016 69.40522003173828 43.16580581665039 69.40522003173828 L 43.16577529907227 69.40505218505859 C 42.66651916503906 69.405029296875 42.17288589477539 69.37419128417969 41.68881225585938 69.31299591064453 L 40.49386596679688 73.74432373046875 C 41.40927886962891 73.89173889160156 42.29195785522461 73.96401977539062 43.16620254516602 73.96401977539062 C 46.39308547973633 73.96401977539062 49.52127456665039 73.04904937744141 52.21260452270508 71.31803131103516 C 54.5547981262207 69.81156158447266 56.46369171142578 67.75307464599609 57.78826522827148 65.31761932373047 L 53.50746154785156 63.52930450439453 M 52.96077346801758 62.00042724609375 L 59.43211364746094 64.70384979248047 C 56.55126571655273 71.08613586425781 50.21395492553711 75.16401672363281 43.16620254516602 75.16401672363281 C 41.74835586547852 75.16401672363281 40.3740234375 74.98637390136719 38.99969482421875 74.67628479003906 L 40.81657409667969 67.93859100341797 C 41.57072448730469 68.11622619628906 42.36852264404297 68.20504760742188 43.16632461547852 68.20504760742188 L 43.16580581665039 68.20522308349609 C 47.50861358642578 68.20522308349609 51.23273468017578 65.67930603027344 52.96077346801758 62.00042724609375 Z" stroke="none" fill="#fff"/></g><g transform="translate(-5.336 -32.873)" fill="none"><path d="M13.9,60.76l-6.01,2.581A16.745,16.745,0,0,0,18.913,73.468l2.229-6.4a12.029,12.029,0,0,1-7.24-6.3Z" stroke="none"/><path d="M 13.32595157623291 62.31321716308594 L 9.477090835571289 63.96608734130859 C 11.30261611938477 67.76979064941406 14.27720737457275 70.50347900390625 18.16927719116211 71.95368957519531 L 19.62443161010742 67.77309417724609 C 18.35761451721191 67.22754669189453 17.14423370361328 66.47444152832031 16.06433868408203 65.55882263183594 C 14.91926765441895 64.58794403076172 13.98830795288086 63.48198699951172 13.32595157623291 62.31321716308594 M 13.90115833282471 60.76021575927734 L 13.90147876739502 60.76036834716797 C 15.09816837310791 63.68489837646484 18.12838745117188 66.08985137939453 21.14195823669434 67.06372833251953 L 18.91282844543457 73.46792602539062 C 13.72713851928711 71.91583251953125 9.92913818359375 68.39442443847656 7.890998840332031 63.34124755859375 L 13.90115833282471 60.76021575927734 Z" stroke="none" fill="#fff"/></g><g transform="translate(-5.512 -18.015)" fill="none"><path d="M13.315,35.661l-6.339-2.97a17.849,17.849,0,0,0-.533,12.765L13,43.018a11.286,11.286,0,0,1-.488-3.28,10.491,10.491,0,0,1,.8-4.078Z" stroke="none"/><path d="M 7.626777648925781 34.32089233398438 C 7.012531280517578 36.07993316650391 6.712429046630859 37.87751007080078 6.712429046630859 39.7817497253418 C 6.712429046630859 41.18371963500977 6.884543418884277 42.55876159667969 7.225092887878418 43.88441467285156 L 11.57409000396729 42.26876831054688 C 11.40181350708008 41.43756103515625 11.31482887268066 40.58996200561523 11.31482887268066 39.73690795898438 C 11.31614303588867 38.54132461547852 11.48715114593506 37.36671447753906 11.81410980224609 36.28272247314453 L 7.626777648925781 34.32089233398438 M 6.97559928894043 32.69062805175781 L 13.31418609619141 35.66035461425781 C 12.78283882141113 36.90078735351562 12.51638984680176 38.32029724121094 12.51482963562012 39.73822784423828 C 12.51482963562012 40.89130783081055 12.69248962402344 41.9991569519043 13.0025691986084 43.01821899414062 L 6.442668914794922 45.45520782470703 C 5.822509765625 43.63824844360352 5.512429237365723 41.73257827758789 5.512429237365723 39.7817497253418 C 5.512429237365723 37.29983901977539 6.00016975402832 34.95155715942383 6.97559928894043 32.69062805175781 Z M 13.31418991088867 35.66034698486328 L 13.31450939178467 35.66050720214844 L 13.31418609619141 35.66035461425781 C 13.31418991088867 35.66034698486328 13.31418991088867 35.66034698486328 13.31418991088867 35.66034698486328 Z" stroke="none" fill="#fff"/></g><g transform="translate(-8.283 -8.065)" fill="none"><path d="M20.505,19.248l-3.59-6.027a17.773,17.773,0,0,0-6.382,7.048l6.339,2.97a11.612,11.612,0,0,1,3.634-3.991Z" stroke="none"/><path d="M 16.41017532348633 21.69749069213867 C 17.11296653747559 20.65509223937988 17.96220588684082 19.72066497802734 18.92129516601562 18.93429565429688 L 16.53731155395508 14.93223476409912 C 14.8100061416626 16.21354866027832 13.33713340759277 17.8428955078125 12.20357418060303 19.72665977478027 L 16.41017532348633 21.69749069213867 M 16.87143707275391 23.23876953125 L 10.53245830535889 20.26889991760254 C 11.99561786651611 17.3876895904541 14.16618824005127 14.9493293762207 16.9149169921875 13.22132873535156 L 20.50501823425293 19.24812889099121 L 20.50517845153809 19.24824905395508 C 18.99836730957031 20.2673397064209 17.7580680847168 21.64163970947266 16.87143707275391 23.23876953125 Z" stroke="none" fill="#fff"/></g><g transform="translate(-18.129 -6.009)" fill="none"><path d="M37.058,7.478a17.951,17.951,0,0,0-8.244,2.261l3.59,6.027a10.851,10.851,0,0,1,4.609-1.286v-7Z" stroke="none"/><path d="M 35.81303405761719 8.764371871948242 C 33.95758056640625 8.96037769317627 32.15472030639648 9.455343246459961 30.4991340637207 10.22323608398438 L 32.87307357788086 14.20847702026367 C 33.79929733276367 13.81893062591553 34.79113006591797 13.54449558258057 35.81303405761719 13.39511203765869 L 35.81303405761719 8.764371871948242 M 37.01303100585938 7.477351188659668 L 37.05811309814453 7.477631568908691 C 37.04316711425781 7.478092193603516 37.02797698974609 7.478579521179199 37.01303100585938 7.47907543182373 L 37.01303100585938 7.477351188659668 Z M 37.01303100585938 7.47907543182373 L 37.01303100585938 14.47992134094238 C 35.37368011474609 14.56875133514404 33.77808380126953 15.01128101348877 32.40375137329102 15.76543140411377 L 28.81365203857422 9.738561630249023 C 31.32796859741211 8.326416015625 34.14732360839844 7.574286460876465 37.01303100585938 7.47907543182373 Z" stroke="none" fill="#fff"/></g></g></svg>