<svg xmlns="http://www.w3.org/2000/svg" width="107.159" height="110.054" viewBox="0 0 107.159 110.054"><g transform="translate(-858 -334.946)"><path d="M50,8c-9.227,0-17.578,1.551-23.719,4.156a23.235,23.235,0,0,0-7.406,4.688A8.8,8.8,0,0,0,16,23V77a8.8,8.8,0,0,0,2.875,6.156,23.2,23.2,0,0,0,7.406,4.656C32.422,90.418,40.773,92,50,92s17.578-1.582,23.719-4.187a23.2,23.2,0,0,0,7.406-4.656A8.8,8.8,0,0,0,84,77V23a8.8,8.8,0,0,0-2.875-6.156,23.238,23.238,0,0,0-7.406-4.687C67.578,9.551,59.227,8,50,8Zm0,2c9,0,17.133,1.539,22.938,4a21.386,21.386,0,0,1,6.75,4.25A6.788,6.788,0,0,1,82,23a6.725,6.725,0,0,1-2.312,4.719,21.386,21.386,0,0,1-6.75,4.25C67.133,34.43,59,36,50,36s-17.133-1.57-22.938-4.031a21.386,21.386,0,0,1-6.75-4.25A6.725,6.725,0,0,1,18,23a6.788,6.788,0,0,1,2.313-4.75A21.386,21.386,0,0,1,27.062,14C32.867,11.539,41,10,50,10ZM18,28.156a12.235,12.235,0,0,0,.875,1,23.2,23.2,0,0,0,7.406,4.656C32.422,36.418,40.773,38,50,38s17.578-1.582,23.719-4.187a23.2,23.2,0,0,0,7.406-4.656,12.234,12.234,0,0,0,.875-1V41a6.725,6.725,0,0,1-2.312,4.719,21.386,21.386,0,0,1-6.75,4.25C67.133,52.43,59,54,50,54s-17.133-1.57-22.938-4.031a21.386,21.386,0,0,1-6.75-4.25A6.725,6.725,0,0,1,18,41Zm0,18a11.531,11.531,0,0,0,.875,1,23.2,23.2,0,0,0,7.406,4.656C32.422,54.418,40.773,56,50,56s17.578-1.582,23.719-4.187a23.2,23.2,0,0,0,7.406-4.656,11.531,11.531,0,0,0,.875-1V59a6.725,6.725,0,0,1-2.312,4.719,21.386,21.386,0,0,1-6.75,4.25C67.133,70.43,59,72,50,72s-17.133-1.57-22.938-4.031a21.386,21.386,0,0,1-6.75-4.25A6.725,6.725,0,0,1,18,59Zm0,18a11.531,11.531,0,0,0,.875,1,23.2,23.2,0,0,0,7.406,4.656C32.422,72.418,40.773,74,50,74s17.578-1.582,23.719-4.187a23.2,23.2,0,0,0,7.406-4.656,11.531,11.531,0,0,0,.875-1V77a6.725,6.725,0,0,1-2.312,4.719,21.386,21.386,0,0,1-6.75,4.25C67.133,88.43,59,90,50,90s-17.133-1.57-22.938-4.031a21.386,21.386,0,0,1-6.75-4.25A6.725,6.725,0,0,1,18,77Z" transform="translate(842 353)" fill="#22a180"/><path d="M22.072,34.1a24.479,24.479,0,0,1,.278,30.688" transform="translate(923.969 310.65)" fill="none" stroke="#22a180" stroke-width="2"/><path d="M9.5,24.955a37.419,37.419,0,0,1,9.341,24.68A37.351,37.351,0,0,1,9.782,73.947" transform="translate(945.318 310.65)" fill="none" stroke="#22a180" stroke-width="2"/><circle cx="2" cy="2" r="2" transform="translate(915 392)" fill="#fff"/><circle cx="2" cy="2" r="2" transform="translate(915 410)" fill="#fff"/><circle cx="2" cy="2" r="2" transform="translate(915 428)" fill="#fff"/><rect width="39" height="20" rx="4" transform="translate(898 353)" fill="#931636"/><path d="M2.22,0H-.12L3.06-8.4h2.4L8.64,0H6.3L5.76-1.5h-3ZM3.3-3.06H5.22L4.26-5.88ZM10.68-8.4h5.04a2.508,2.508,0,0,1,1.83.57A2.508,2.508,0,0,1,18.12-6v1.2a2.508,2.508,0,0,1-.57,1.83,2.508,2.508,0,0,1-1.83.57H12.84V0H10.68ZM15.96-6a.636.636,0,0,0-.72-.72h-2.4v2.64h2.4a.636.636,0,0,0,.72-.72ZM24.6,0H20.28V-1.68h1.08V-6.72H20.28V-8.4H24.6v1.68H23.52v5.04H24.6Z" transform="translate(904 367)" fill="#fff"/></g></svg>