<svg xmlns="http://www.w3.org/2000/svg" width="23.625" height="29.621" viewBox="0 0 23.625 29.621"><path d="M17.824,13.256a6.1,6.1,0,0,0-2.084-.906,5.684,5.684,0,0,0,1.46-1.2,4.564,4.564,0,0,0,.671-2.013,4.208,4.208,0,0,0-1.46-3.673,7.961,7.961,0,0,0-4.5-1.376V0H9.395V4.038H7.476V0H4.956V4.038H0V6.654H1.457a2.082,2.082,0,0,1,1.4.38c.3.335.353.512.353,1.165V18.625a1.02,1.02,0,0,1-.259.753c-.212.2-.424.247-.93.247H.518L0,22.651H4.956v4.027H7.476V22.651H9.395v4.027h2.519V22.585c.651-.038,1.259-.087,1.613-.134a8.379,8.379,0,0,0,3.862-1.342c1.519-1.06,1.86-2.72,1.9-4.391a4.03,4.03,0,0,0-1.46-3.461ZM7.476,6.887s.8-.071,1.589-.059a8.016,8.016,0,0,1,2.52.353,2.178,2.178,0,0,1,1.672,2.013,1.973,1.973,0,0,1-1.083,1.919,6.138,6.138,0,0,1-2.6.635c-.918.035-2.1,0-2.1,0Zm5.639,12.044a8,8,0,0,1-2.849.683c-1.119.083-2.79.047-2.79.047v-5.4s1.6-.082,2.849,0a8.067,8.067,0,0,1,2.766.636,2.23,2.23,0,0,1,.024,4.038Z" transform="matrix(0.985, 0.174, -0.174, 0.985, 4.633, 0)" fill="#fff"/></svg>