<svg xmlns="http://www.w3.org/2000/svg" width="45.301" height="44.999" viewBox="0 0 45.301 44.999"><g transform="translate(-1.43 5.151)"><g transform="translate(21.718 17.421)"><path d="M15.475,23.012a1.145,1.145,0,1,0,2.29,0V21.628a1.145,1.145,0,1,0-2.29,0Z" transform="translate(-15.475 -10.741)" fill="#fff"/><path d="M26.716,15.739a1.145,1.145,0,0,0,0-2.29H25.608a1.145,1.145,0,1,0,0,2.29Z" transform="translate(-12.016 -13.448)" fill="#fff"/></g><path d="M16.618,4.962a1.144,1.144,0,0,0-1.145,1.145V17.861a1.145,1.145,0,0,0,1.145,1.145h6.164a1.145,1.145,0,0,0,0-2.29H17.763V6.107a1.145,1.145,0,0,0-1.145-1.145Z" transform="translate(6.242 0.707)" fill="#ed3262"/><path d="M18.415,0a18.414,18.414,0,1,1-14.4,6.932" transform="translate(3.162 32.656) rotate(-81)" fill="none" stroke="#fff" stroke-width="2.5"/><path d="M5228.181,20315.309l2.87,4.375,4.545-2.373" transform="translate(-5225.019 -20305.043)" fill="none" stroke="#fff" stroke-linecap="round" stroke-linejoin="round" stroke-width="2.5"/></g></svg>