<svg xmlns="http://www.w3.org/2000/svg" width="45.779" height="42.743" viewBox="0 0 45.779 42.743"><g transform="translate(0 0)"><path d="M42.077,38.255a4.848,4.848,0,0,0,1.185-3.15,3.524,3.524,0,0,0-3.1-3.7c.007-.366.015-.731.029-1.1A11.961,11.961,0,0,0,39.846,26a13.868,13.868,0,0,0-3.159-5.084A7.162,7.162,0,0,0,31.8,19.153a6.942,6.942,0,0,1,.112-.948,8.6,8.6,0,0,0,.147-1.7c0-2.12-2.129-4.037-4.989-4.836a3.677,3.677,0,0,0,1.3-2.8A4.365,4.365,0,0,0,24.2,4.556c-2.388,0-3.815,2.2-3.815,4.322a3.844,3.844,0,0,0,1.054,2.752c-3,.77-5.261,2.719-5.261,4.879a3.929,3.929,0,0,0,.307,1.7,2.507,2.507,0,0,1,.147.472c-1.734.329-3.086,1.666-4.3,2.867l-.435.426A10.715,10.715,0,0,0,8.874,26.11,14.6,14.6,0,0,0,8.2,30.8a4.641,4.641,0,0,0-3.58,4.3A4.279,4.279,0,0,0,6.09,38.217c-2.84.691-4.757,2.4-4.757,4.521a13.688,13.688,0,0,0,.086,1.648A12.059,12.059,0,0,1,1.5,45.873a.752.752,0,0,0,.751.751,13.631,13.631,0,0,1,3.2.321,15.068,15.068,0,0,0,3.5.353,19.064,19.064,0,0,0,3.5-.281,17.431,17.431,0,0,1,3.264-.263c1.4,0,2.1.031,2.8.062.716.031,1.433.064,2.864.064,1.413,0,2.12.007,2.825.013s1.42.015,2.84.015a24.028,24.028,0,0,0,2.871-.147,22.3,22.3,0,0,1,2.717-.14,17.6,17.6,0,0,1,3.3.27,19.245,19.245,0,0,0,3.542.288,18.882,18.882,0,0,0,3.52-.288,17.371,17.371,0,0,1,3.277-.27.752.752,0,0,0,.751-.751c0-.759.024-1.139.05-1.519.026-.4.053-.808.053-1.616,0-2.129-2.043-3.843-5.035-4.48ZM41.761,35.1c0,1.385-.882,2.88-2.3,2.88a3.084,3.084,0,0,1-2.814-2.88c0-1.411,1.431-2.254,2.814-2.254A2.1,2.1,0,0,1,41.761,35.1ZM24.2,6.056a2.9,2.9,0,0,1,2.68,2.821,2.485,2.485,0,0,1-2.68,2.337,2.178,2.178,0,0,1-2.315-2.337C21.881,7.52,22.767,6.056,24.2,6.056Zm0,6.721c3.272,0,6.365,1.815,6.365,3.731a7.165,7.165,0,0,1-.125,1.44,8.73,8.73,0,0,0-.136,1.2c-1.267,0-2,.007-2.728.013-.845.006-1.688.013-3.376.013a16.665,16.665,0,0,1-3.259-.276,17.687,17.687,0,0,0-2.807-.287,3.743,3.743,0,0,0-.257-.957,2.522,2.522,0,0,1-.2-1.144c0-1.881,3.231-3.731,6.523-3.731ZM6.117,35.1a3.089,3.089,0,0,1,2.818-2.886A3.089,3.089,0,0,1,11.753,35.1a2.992,2.992,0,0,1-2.818,2.783A2.992,2.992,0,0,1,6.117,35.1ZM12.2,45.535a17.417,17.417,0,0,1-3.264.263,13.6,13.6,0,0,1-3.194-.321,14.572,14.572,0,0,0-2.761-.34c-.017-.373-.042-.648-.072-.909a12.059,12.059,0,0,1-.079-1.488c0-1.848,2.739-3.352,6.106-3.352s6.03,1.473,6.03,3.352c0,.8.024,1.207.046,1.609.015.261.029.531.039.913a18.614,18.614,0,0,0-2.851.274Zm17.546-.265a22.3,22.3,0,0,1-2.717.14c-1.413,0-2.12-.007-2.827-.013s-1.42-.015-2.838-.015c-1.4,0-2.1-.031-2.8-.062-.558-.026-1.121-.05-2.017-.061-.007-.422-.024-.713-.04-1-.022-.382-.044-.762-.044-1.525,0-2.111-1.888-3.821-4.688-4.517A4.287,4.287,0,0,0,13.255,35.1,4.642,4.642,0,0,0,9.7,30.8a13.073,13.073,0,0,1,.6-4.206,9.446,9.446,0,0,1,2.649-3.553l.446-.435c1.244-1.234,2.529-2.509,4.043-2.509a16.628,16.628,0,0,1,3.257.276,18.071,18.071,0,0,0,3.508.3c1.7,0,2.542-.006,3.389-.013s1.688-.013,3.376-.013c.022,0,.04-.011.062-.013,1.62,0,3.422.175,4.605,1.346a12.283,12.283,0,0,1,2.8,4.506,10.822,10.822,0,0,1,.259,3.764c-.017.389-.024.777-.029,1.165A3.882,3.882,0,0,0,35.142,35.1a4.447,4.447,0,0,0,1.506,3.189c-2.851.658-4.73,2.326-4.73,4.443,0,.771-.013,1.157-.026,1.541-.007.248-.017.507-.02.85-.975.028-1.561.086-2.127.145Zm12.991.141a17.371,17.371,0,0,1-3.277.27,17.612,17.612,0,0,1-3.3-.27,18.976,18.976,0,0,0-2.783-.277c.006-.321.013-.568.02-.8.013-.4.026-.8.026-1.593,0-1.824,2.651-3.253,6.036-3.253,3.448,0,6.15,1.429,6.15,3.253,0,.759-.024,1.139-.05,1.519-.017.255-.031.522-.042.876a17.97,17.97,0,0,0-2.777.277Z" transform="translate(-1.332 -4.556)" fill="#fff"/><path d="M49.3,57.385a1.908,1.908,0,0,0-.36-.7,2.242,2.242,0,0,0-.639-.428l-.187-.1a2.744,2.744,0,0,1-.294-.2,2.652,2.652,0,0,0-.588-.367.8.8,0,0,0-.512-.015.219.219,0,0,1-.108.009,1.032,1.032,0,0,1-.288-.237,1.3,1.3,0,0,0-.386-.307,2.314,2.314,0,0,1-.5-.294l-.075-.057a.681.681,0,0,1-.219-.209.813.813,0,0,1-.086-.408c0-.456.035-.744.215-.871a1.681,1.681,0,0,1,.849-.092,4.718,4.718,0,0,0,.994-.066,1.48,1.48,0,0,1,.485-.046,3.23,3.23,0,0,1,.555.178l.452.169.186-.441a3.364,3.364,0,0,0,.3-.959l.028-.233-.22-.083a1.969,1.969,0,0,1-.259-.127,2.329,2.329,0,0,0-.72-.279,3.281,3.281,0,0,0-.825.009c-.088.007-.176.017-.276.02a.8.8,0,0,1,.061-.3,1.579,1.579,0,0,0,.094-.762l-.022-.208-.2-.05a1.463,1.463,0,0,0-.355-.037l-.2,0-.2,0a1.247,1.247,0,0,0-.334.037l-.2.053-.02.208a1.743,1.743,0,0,0,.081.735.5.5,0,0,1,.013.378,3.3,3.3,0,0,0-1.964.843,2.825,2.825,0,0,0-.658,2.033l0,.231a2.368,2.368,0,0,0,.077.832,1.583,1.583,0,0,0,.434.6c.046.046.088.088.129.13a2.782,2.782,0,0,0,.687.518l.136.083a4.393,4.393,0,0,0,.648.349,1.41,1.41,0,0,1,.272.145,1.873,1.873,0,0,0,.366.195c.178.075.349.134.509.187.13.042.252.083.36.13a.905.905,0,0,1,.276.23,1.943,1.943,0,0,0,.187.182.833.833,0,0,1,.27.294,1.185,1.185,0,0,1,.072.5c0,.479-.053.821-.321,1.034a2.669,2.669,0,0,1-1.55.274c-.193,0-.377.017-.551.031a2.193,2.193,0,0,1-.612,0c-.327-.077-.606-.165-.915-.265l-.27-.086-.1.261a.678.678,0,0,1-.1.16,1.2,1.2,0,0,0-.2.371,1.508,1.508,0,0,0-.042.483,1.75,1.75,0,0,1,0,.2l-.02.237.226.075a2.474,2.474,0,0,0,.351.081c.077.015.152.028.23.05a6.14,6.14,0,0,0,.6.147,3.028,3.028,0,0,0,.437.037c.077,0,.156.006.237.013s.171.024.261.04c.108.02.222.04.342.053a.311.311,0,0,0,.215.167,8.192,8.192,0,0,1-.024,1.04l-.017.255.211.048a.4.4,0,0,0,.217.088l.042,0a.447.447,0,0,0,.253-.086.539.539,0,0,0,.263.061.461.461,0,0,0,.2-.066l.219-.053.009-.226a2.94,2.94,0,0,0-.061-.746.906.906,0,0,1,.04-.608,3.545,3.545,0,0,0,1.9-1.06,3.056,3.056,0,0,0,.816-2.114,3.022,3.022,0,0,0-.248-1.115Z" transform="translate(-23.214 -28.574)" fill="#fff"/></g></svg>