<svg id="logo_color" xmlns="http://www.w3.org/2000/svg" xmlns:xlink="http://www.w3.org/1999/xlink" width="130.017" height="28.995" viewBox="0 0 130.017 28.995">
  <defs>
    <linearGradient id="linear-gradient" x1="0.874" y1="0.104" x2="0.028" y2="1.104" gradientUnits="objectBoundingBox">
      <stop offset="0" stop-color="#30836d"/>
      <stop offset="0.028" stop-color="#46d3ae"/>
      <stop offset="0.078" stop-color="#88ffe0"/>
      <stop offset="0.315" stop-color="#49dbb4"/>
      <stop offset="1" stop-color="#02221a"/>
    </linearGradient>
  </defs>
  <path id="logo" d="M255.447,46.8l-.007-5.981a.869.869,0,0,1,.169-.59h0A.7.7,0,0,1,256.2,40h0l1.258.041h.016a.515.515,0,0,1,.371.227h0a1.538,1.538,0,0,1,.118.189h0a.535.535,0,0,1,.056.354.214.214,0,0,0,0,.028h0l.007,20.872a.978.978,0,0,1-.129.539.916.916,0,0,1-.426.349,14.218,14.218,0,0,1-4.287,1.254,11.046,11.046,0,0,1-4.452-.38,7.666,7.666,0,0,1-3.772-2.364,8.481,8.481,0,0,1-1.825-4.224,10.549,10.549,0,0,1,.343-4.961,8.383,8.383,0,0,1,2.564-3.84,7.748,7.748,0,0,1,1.967-1.205,9.426,9.426,0,0,1,2.359-.646,10.566,10.566,0,0,1,2.536-.072,8.6,8.6,0,0,1,2.5.621l.047.02h0Zm68.768.172v2.954c0,2.251,0,4.5.014,6.751a9.2,9.2,0,0,0,.061.968,8.955,8.955,0,0,0,.161.946,3.362,3.362,0,0,0,.98,1.785,3.733,3.733,0,0,0,1.941.871,10.08,10.08,0,0,0,2.921.059,11.635,11.635,0,0,0,2.825-.734V57.108h0V54.932q0-3.755-.009-7.511a.879.879,0,0,1,.2-.634h0a.757.757,0,0,1,.613-.222c.328.005.655,0,.992,0h.819V47.4h0v2.569q0,5.871.008,11.743a.932.932,0,0,1-.133.528.883.883,0,0,1-.419.329,16.33,16.33,0,0,1-3.614,1.1,16.732,16.732,0,0,1-3.8.239,8.2,8.2,0,0,1-1.857-.294,6.114,6.114,0,0,1-1.745-.8,5.455,5.455,0,0,1-1.858-2.066,6.513,6.513,0,0,1-.67-2.858c-.056-2.7-.046-5.393-.035-8.092q0-1.261.008-2.521a.759.759,0,0,1,.147-.406.583.583,0,0,1,.412-.26c.411-.019.829-.017,1.26-.015h.782v.38h0Zm48.314,8.761H360.568c.013.087.025.176.037.262a10.787,10.787,0,0,0,.251,1.366,5.177,5.177,0,0,0,5.715,4.011,7.7,7.7,0,0,0,2.13-.462,6.639,6.639,0,0,0,1.87-1.089.683.683,0,0,1,.466-.18.663.663,0,0,1,.45.206c.045.044.065.062.085.08a2.965,2.965,0,0,1,.223.218,1.4,1.4,0,0,1,.521,1.039,1.38,1.38,0,0,1-.721.9,9.312,9.312,0,0,1-3.7,1.655,9.534,9.534,0,0,1-4.076-.114,7.257,7.257,0,0,1-3.242-1.64,7.352,7.352,0,0,1-2-3.054,11.387,11.387,0,0,1-.7-4.4,10.392,10.392,0,0,1,1.111-4.186,7.65,7.65,0,0,1,4.317-3.862,7.469,7.469,0,0,1,5.729.352,6.393,6.393,0,0,1,2.544,2.158,8.211,8.211,0,0,1,1.246,3.108,9.361,9.361,0,0,1,.176,1.63,9.835,9.835,0,0,1-.111,1.681l-.049.322h-.315Zm-2.255-2.41c-.01-.161-.019-.314-.03-.444a5.737,5.737,0,0,0-.127-.793,4.6,4.6,0,0,0-1.714-2.7,4.365,4.365,0,0,0-3.034-.815,5.2,5.2,0,0,0-.764.13,5.033,5.033,0,0,0-2.759,1.792,5.657,5.657,0,0,0-1.157,2.833h9.585Zm-29.58-13.315h2.2v7.169a8.5,8.5,0,0,1,5.088-1.055A8.15,8.15,0,0,1,352.84,48.3a7.616,7.616,0,0,1,1.6,2.224,8.982,8.982,0,0,1,.766,2.63,11.941,11.941,0,0,1,.06,3.006,9.678,9.678,0,0,1-.793,2.911,7.9,7.9,0,0,1-2.517,3.2,8.232,8.232,0,0,1-3.846,1.48,12.868,12.868,0,0,1-3.794-.037,12.13,12.13,0,0,1-3.544-1.16.849.849,0,0,1-.373-.326.894.894,0,0,1-.114-.483q.025-9.059.038-18.117v-3.62h.368Zm2.185,15.619v.986c0,1.224.008,2.448-.016,3.67a.493.493,0,0,0,.047.274.457.457,0,0,0,.219.137,9.089,9.089,0,0,0,2.6.606,8.887,8.887,0,0,0,2.637-.19,5.2,5.2,0,0,0,2.471-1.245,5.5,5.5,0,0,0,1.461-2.414,8.172,8.172,0,0,0,.386-2.227,8.764,8.764,0,0,0-.236-2.308,5.967,5.967,0,0,0-.652-1.673,4.869,4.869,0,0,0-1.147-1.336,6.1,6.1,0,0,0-3.757-1.246,6.449,6.449,0,0,0-3.872,1.179.333.333,0,0,0-.1.1h0a.288.288,0,0,0-.02.13c.008,1.306.007,2.612.006,3.919v1.636h-.022Zm-63.6,7.53v-.442h0v-2.54q0-5.638-.007-11.278a1.023,1.023,0,0,1,.465-.907,9.908,9.908,0,0,1,2.373-1.248,10.78,10.78,0,0,1,2.593-.587,11.383,11.383,0,0,1,2.066-.036,9.914,9.914,0,0,1,2.052.371.9.9,0,0,1,.53.347.783.783,0,0,1,.074.683c-.045.158-.089.318-.141.5-.046.154-.1.318-.155.5a.672.672,0,0,1-.351.436.772.772,0,0,1-.526.029,10.943,10.943,0,0,0-2.61-.309,8.445,8.445,0,0,0-2.568.423,6.281,6.281,0,0,0-.7.294c-.146.068-.291.136-.438.2a.17.17,0,0,0-.039.018h0a.319.319,0,0,0-.014.12q.009,5.346.006,10.693v2.225h0c0,.872,0,.9-.877.916-.32.007-.633,0-.952-.016l-.428-.014-.361-.009v-.37h0Zm-6.8-9.407v-.289a6.593,6.593,0,0,0-.325-2.648,3.174,3.174,0,0,0-1.073-1.387,3.963,3.963,0,0,0-1.643-.654,7.461,7.461,0,0,0-2.96.035,7.371,7.371,0,0,0-2.684,1.218.738.738,0,0,1-.422.156.639.639,0,0,1-.459-.19h0c-.026-.024-.06-.052-.093-.08h0a2.039,2.039,0,0,1-.224-.21,1.359,1.359,0,0,1-.467-1.008,1.283,1.283,0,0,1,.657-.885,8.925,8.925,0,0,1,2.956-1.4,9.9,9.9,0,0,1,3.231-.279,8.886,8.886,0,0,1,1.568.246,6.759,6.759,0,0,1,1.5.578,5.281,5.281,0,0,1,1.975,1.773,6.132,6.132,0,0,1,.908,2.5c.036.248.06.5.075.761.014.243.02.5.02.754q.006,2.049,0,4.1,0,2.428.006,4.857h0a.953.953,0,0,1-.133.532.914.914,0,0,1-.408.338,13.092,13.092,0,0,1-2.326.829,16.874,16.874,0,0,1-2.409.423,14.1,14.1,0,0,1-2.19.075,9.5,9.5,0,0,1-2.191-.356,6.3,6.3,0,0,1-2.19-1.079,4.548,4.548,0,0,1-1.465-2.051c-.036-.1-.066-.187-.091-.266A5.653,5.653,0,0,1,261.7,56.3a5.071,5.071,0,0,1,3.024-2.82c.1-.04.2-.075.286-.1a9.822,9.822,0,0,1,3.843-.49,12.055,12.055,0,0,1,3.623.866h0Zm0,4.841v-.6c0-.515,0-1.03.007-1.542a.2.2,0,0,0,0-.06.268.268,0,0,0-.065-.037,10.16,10.16,0,0,0-2.206-.756,10.312,10.312,0,0,0-2.315-.232,7.225,7.225,0,0,0-1.166.1,4.986,4.986,0,0,0-1.1.321,2.68,2.68,0,0,0-1.391,1.242,2.777,2.777,0,0,0-.175,1.88,2.875,2.875,0,0,0,.8,1.481,3.356,3.356,0,0,0,1.6.808,9.435,9.435,0,0,0,3.04.191,12.9,12.9,0,0,0,2.978-.674V58.59h0Zm-17.017-8.614a.63.63,0,0,0-.071-.357.753.753,0,0,0-.3-.226,6.089,6.089,0,0,0-1.3-.487,7.3,7.3,0,0,0-1.363-.2,8.029,8.029,0,0,0-2.476.2,5.49,5.49,0,0,0-1.948.917,5.871,5.871,0,0,0-2.043,2.886,7.807,7.807,0,0,0-.212,3.937,5.96,5.96,0,0,0,1.286,2.811,5.235,5.235,0,0,0,2.492,1.566,8.22,8.22,0,0,0,2.926.346,9.977,9.977,0,0,0,2.91-.648.559.559,0,0,0,.08-.033.516.516,0,0,0,0-.083h0l.008-10.616v-.009h0Z" transform="translate(-242.985 -39.996)" fill="#fff" fill-rule="evenodd"/>
  <g id="logo-2" data-name="logo" transform="translate(49 2.377)">
    <path id="logo.svg" d="M51.063,48a1.276,1.276,0,0,1-.914-.384l-2.3-2.337a12.483,12.483,0,0,1-15.411-1.953,13.008,13.008,0,0,1,0-18.179,12.5,12.5,0,0,1,17.879,0,12.981,12.981,0,0,1-.373,18.541l2.033,2.067a1.335,1.335,0,0,1,0,1.861A1.274,1.274,0,0,1,51.063,48ZM41.372,23.55a3.276,3.276,0,0,0-1.66.455l-2.789,1.637,0,.006-.321.189-2.8,1.642-.016.011-.014.005a3.358,3.358,0,0,0-1.422,1.255,3.416,3.416,0,0,0-.527,1.83v6.924h.014v.376a3.427,3.427,0,0,0,.449,1.694,3.346,3.346,0,0,0,1.217,1.232l2.9,1.7.02.012.035.023.05.033c.032.021.061.038.086.052l3.065,1.8,0,0a3.29,3.29,0,0,0,1.686.479h.025a3.273,3.273,0,0,0,1.661-.456l2.788-1.637,0-.006.321-.188,2.8-1.643.017-.01.014-.006A3.368,3.368,0,0,0,50.4,39.712a3.428,3.428,0,0,0,.526-1.83V30.958h-.014v-.376a3.428,3.428,0,0,0-.448-1.693,3.342,3.342,0,0,0-1.217-1.233l-2.9-1.7-.021-.012c-.024-.017-.052-.035-.085-.056l-.011-.007-.076-.046-3.065-1.8,0,0A3.3,3.3,0,0,0,41.4,23.55Z" transform="translate(-28.736 -21.378)" fill="url(#linear-gradient)"/>
  </g>
</svg>
