<svg xmlns="http://www.w3.org/2000/svg" width="64.826" height="16.964" viewBox="0 0 64.826 16.964">
  <g id="seedrs" transform="translate(-0.004 -0.384)">
    <path id="Path_24771" data-name="Path 24771" d="M167.746,6.774V8.747a2.933,2.933,0,0,0-1.652-.662,1.656,1.656,0,0,0-1.294.564,2,2,0,0,0-.5,1.428,2.471,2.471,0,0,0,.357,1.351,5.887,5.887,0,0,0,.6.777q.419.476,1.086,1.147a8.925,8.925,0,0,1,1.67,2.167,4.791,4.791,0,0,1,.443,2.167,4.225,4.225,0,0,1-.972,2.867,3.2,3.2,0,0,1-2.5,1.1,3.448,3.448,0,0,1-2.193-.711v-2a3.406,3.406,0,0,0,1.951.787,1.591,1.591,0,0,0,1.283-.549,2.234,2.234,0,0,0,.465-1.492,3,3,0,0,0-.358-1.467,5.949,5.949,0,0,0-.513-.715q-.328-.4-.82-.9-.762-.757-1.264-1.341a6.334,6.334,0,0,1-.744-1.021,4.487,4.487,0,0,1-.463-2.157,4.064,4.064,0,0,1,.908-2.789,3.116,3.116,0,0,1,2.462-1.04,4.331,4.331,0,0,1,2.048.515Zm1.927-.311h5.339V8.174H171.68v4.752h2.954v1.711H171.68v5.12h3.331v1.71h-5.339v-15Zm6.826,0h5.339V8.174h-3.331v4.752h2.956v1.711h-2.956v5.12h3.331v1.71H176.5v-15ZM185.153,19.7a2.55,2.55,0,0,0,2.453-1.118,9.888,9.888,0,0,0,.637-4.344,12.719,12.719,0,0,0-.608-4.772,2.241,2.241,0,0,0-2.231-1.3h-.251ZM183.144,6.462h2.472a6.214,6.214,0,0,1,1.9.253,3.013,3.013,0,0,1,1.273.865,5.46,5.46,0,0,1,1.2,2.43,18.413,18.413,0,0,1,.357,4.15,16.921,16.921,0,0,1-.4,4.042,4.435,4.435,0,0,1-1.274,2.284q-1.093.981-3.91.981h-1.624v-15Zm10.792,6.648a2.121,2.121,0,0,0,1.652-.544,2.764,2.764,0,0,0,.483-1.838,5.981,5.981,0,0,0-.1-1.2,2.159,2.159,0,0,0-.318-.805,1.287,1.287,0,0,0-.56-.457,2.088,2.088,0,0,0-.816-.145h-.338v4.985Zm-2.008-6.648h2.645a3.365,3.365,0,0,1,2.443.787,4.262,4.262,0,0,1,1.015,3.12,5.394,5.394,0,0,1-.536,2.59,2.3,2.3,0,0,1-1.531,1.209l2.742,7.3h-2.038l-2.733-7.346v7.346h-2.008v-15Z" transform="translate(-140.641 -5.09)" fill="#fff"/>
    <path id="Path_24772" data-name="Path 24772" d="M444.816,6.774V8.748a2.93,2.93,0,0,0-1.651-.662,1.657,1.657,0,0,0-1.295.564,2.006,2.006,0,0,0-.5,1.428,2.471,2.471,0,0,0,.358,1.351,5.954,5.954,0,0,0,.6.777c.279.317.643.7,1.087,1.147a8.963,8.963,0,0,1,1.67,2.167,4.8,4.8,0,0,1,.444,2.167,4.23,4.23,0,0,1-.974,2.867,3.2,3.2,0,0,1-2.5,1.1,3.448,3.448,0,0,1-2.192-.71v-2a3.409,3.409,0,0,0,1.95.787,1.6,1.6,0,0,0,1.286-.549,2.246,2.246,0,0,0,.462-1.492,3,3,0,0,0-.357-1.467,6.023,6.023,0,0,0-.512-.715q-.33-.4-.822-.9-.763-.758-1.265-1.341a6.313,6.313,0,0,1-.743-1.021,4.488,4.488,0,0,1-.464-2.157,4.073,4.073,0,0,1,.908-2.79,3.121,3.121,0,0,1,2.463-1.04,4.335,4.335,0,0,1,2.047.515" transform="translate(-380.701 -5.09)" fill="#fff"/>
    <path id="Path_24773" data-name="Path 24773" d="M14.364,2.845a8.391,8.391,0,0,0-11.9.024,8.52,8.52,0,0,0-.82,11.025A5.891,5.891,0,0,1,2.441,6.6C4.619,4.413,13.6,2.965,14.364,2.845Z" transform="translate(0 0)" fill="#badd64"/>
    <path id="Path_24774" data-name="Path 24774" d="M36.656,19.172c-.119.768-1.557,9.809-3.734,12a5.8,5.8,0,0,1-7.246.8,8.386,8.386,0,0,0,10.957-.824,8.523,8.523,0,0,0,.023-11.975" transform="translate(-22.243 -16.278)" fill="#65982c"/>
    <path id="Path_24775" data-name="Path 24775" d="M16.469,38.562a4.575,4.575,0,0,1-6.5-.144A4.647,4.647,0,0,1,9.83,31.88a5.851,5.851,0,0,1,2.023-1.109,12.252,12.252,0,0,0-4.667,2.161,5.89,5.89,0,0,0,0,8.29,5.8,5.8,0,0,0,8.238,0,12.378,12.378,0,0,0,2.146-4.692,5.888,5.888,0,0,1-1.1,2.031" transform="translate(-4.745 -26.328)" fill="#80cb0f"/>
  </g>
</svg>
