<svg xmlns="http://www.w3.org/2000/svg" width="411.705" height="212.083" viewBox="0 0 411.705 212.083">
  <g id="crowdfunding" transform="translate(-290.329 0)">
    <path id="Path_24744" data-name="Path 24744" d="M634.857,130.479l-.031.031.175.107.541.331,0,0,.532.348,0,0,0,0,.129.074,0,0,18.3,10.844h0a20.919,20.919,0,0,1,7.614,7.79h0a21.9,21.9,0,0,1,2.809,10.707v2.557h.083v44h0a21.78,21.78,0,0,1-3.276,11.593,21.144,21.144,0,0,1-8.859,7.924h-.092l-.039.025-.1.065,0,0-17.637,10.468h0l-2.021,1.2h0l-17.574,10.428h0a20.225,20.225,0,0,1-10.542,2.88,20.443,20.443,0,0,1-10.543-3.029h0l-19.3-11.461h0l-.539-.33,0,0-.532-.348,0,0,0,0-.13-.074,0,0-18.3-10.844h0a20.977,20.977,0,0,1-7.606-7.79h0a21.912,21.912,0,0,1-2.809-10.716v-2.632h-.083V160.679h0a21.794,21.794,0,0,1,3.276-11.593,21.178,21.178,0,0,1,8.859-7.924h.092l.039-.025.1-.065,0,0L575.03,130.6h0l2.021-1.2h0l17.574-10.436h0a20.286,20.286,0,0,1,21.085.149h0Z" transform="translate(-108.649 -77.991)" fill="none" stroke="#22a180" stroke-width="1" opacity="0.35"/>
    <path id="Path_24745" data-name="Path 24745" d="M610.013,79.685l-.039.04.175.107.684.418,0,0,.673.439,0,0,0,0,.164.093,0,0,23.1,13.673h0a26.433,26.433,0,0,1,9.627,9.838h0a27.64,27.64,0,0,1,3.551,13.521v3.181h.1v55.524h0a27.48,27.48,0,0,1-4.141,14.639,26.719,26.719,0,0,1-11.209,10.011H632.6l-.04.025-.132.082,0,0-22.264,13.2h0L607.609,216h0l-22.183,13.149h0a25.593,25.593,0,0,1-13.329,3.637,25.866,25.866,0,0,1-13.331-3.826h0L534.405,214.51h0l-.682-.417,0,0-.673-.439,0,0,0,0-.164-.093h0l-23.1-13.673h0a26.505,26.505,0,0,1-9.616-9.838h0a27.652,27.652,0,0,1-3.551-13.532v-3.276h-.1V117.771h0a27.494,27.494,0,0,1,4.141-14.64A26.764,26.764,0,0,1,511.851,93.12h.114L512,93.1l.132-.083,0,0,22.264-13.2h0l2.552-1.515h0l22.183-13.159h0a25.676,25.676,0,0,1,26.66.188h0Z" transform="translate(-75.91 -41.16)" fill="none" stroke="#22a180" stroke-width="1" opacity="0.1"/>
    <path id="Path_24746" data-name="Path 24746" d="M582.362,22.931l-.049.05.175.107.842.516,0,0,.829.542,0,0,0,0,.2.115h0l28.44,16.844h0a32.6,32.6,0,0,1,11.868,12.133h0a34.1,34.1,0,0,1,4.375,16.675V73.8h.13v68.436h0a33.9,33.9,0,0,1-5.106,18.054,32.935,32.935,0,0,1-13.824,12.35h-.138l-.039.025-.164.1,0,0L582.5,189.033l.083.14-.083-.14-3.142,1.866-27.313,16.2h0a31.538,31.538,0,0,1-16.432,4.486,31.877,31.877,0,0,1-16.433-4.718h0l-29.992-17.8h0l-.84-.515,0,0-.83-.542,0,0,0,0-.2-.115,0,0L458.86,171.034l-.083.14.083-.14A32.682,32.682,0,0,1,447.006,158.9h0a34.118,34.118,0,0,1-4.377-16.688v-4H442.5V69.857h0a33.923,33.923,0,0,1,5.1-18.054,33,33,0,0,1,13.825-12.35h.138l.039-.024.164-.1,0,0,27.413-16.26h0l3.142-1.866h0l27.313-16.21h0a31.637,31.637,0,0,1,32.864.232h0Z" transform="translate(-39.473 0)" fill="none" stroke="#22a180" stroke-width="1" opacity="0.05"/>
    <path id="Path_24747" data-name="Path 24747" d="M633.988,181.888l-7.468-4.466a7.854,7.854,0,0,0-8.214-.059l-6.792,4.063-.781.468-6.817,4.076-.042.026h-.032a8.268,8.268,0,0,0-3.463,3.115,8.594,8.594,0,0,0-1.276,4.547v17.176h.032v.961a8.647,8.647,0,0,0,1.094,4.2,8.2,8.2,0,0,0,2.962,3.057l7.072,4.222.051.029.207.136.211.13,7.458,4.463a7.92,7.92,0,0,0,4.107,1.189,7.835,7.835,0,0,0,4.107-1.13l6.792-4.06.781-.468,6.817-4.076.042-.026h.032a8.254,8.254,0,0,0,3.463-3.115,8.589,8.589,0,0,0,1.276-4.547v-17.2h-.032v-.932a8.642,8.642,0,0,0-1.094-4.2,8.181,8.181,0,0,0-2.965-3.056l-7.073-4.223-.051-.029-.207-.136-.21-.13Z" transform="translate(-125.984 -96.745)" fill="#22a180"/>
    <path id="Path_24776" data-name="Path 24776" d="M-6.061-3.19q5.1.33,7.26.33a1.085,1.085,0,0,0,.8-.3,1.085,1.085,0,0,0,.3-.8v-2.2H-1.859A4.6,4.6,0,0,1-5.214-7.2,4.6,4.6,0,0,1-6.259-10.56V-11a4.6,4.6,0,0,1,1.045-3.355A4.6,4.6,0,0,1-1.859-15.4h.44l-.22-1.98h3.3l-.22,1.98h3.52v3.08H-.979A1.167,1.167,0,0,0-2.3-11v.44A1.167,1.167,0,0,0-.979-9.24H2.079A4.325,4.325,0,0,1,5.247-8.228,4.325,4.325,0,0,1,6.259-5.06v1.1a4.355,4.355,0,0,1-1,3.168A4.285,4.285,0,0,1,2.1.22H1.485L1.661,2.2h-3.3l.22-2.09Q-3.971-.022-6.061-.22Z" transform="translate(496.152 113.233)" fill="#fff"/>
    <g id="Group_6458" data-name="Group 6458" transform="translate(417.422 156.836) rotate(180)">
      <g id="Group_6453" data-name="Group 6453" transform="translate(-3 3.184)">
        <path id="Path_24764" data-name="Path 24764" d="M-4649.3,11555.895s-9.729,14.429-14.921,20.188-9.824,8.023-20.713,8.023h-34.243" transform="translate(4721.371 -11555.895)" fill="none" stroke="#214c43" stroke-width="1"/>
        <path id="Path_24767" data-name="Path 24767" d="M-4617.654,11555.895s-14.136,20.962-21.68,29.331-14.272,11.656-30.094,11.656h-49.75" transform="translate(4721.371 -11548.194)" fill="none" stroke="#214c43" stroke-width="1"/>
        <path id="Path_24768" data-name="Path 24768" d="M-4590.935,11555.895s-17.856,26.479-27.385,37.051-18.029,14.725-38.014,14.725h-62.843" transform="translate(4719.177 -11536.312)" fill="none" stroke="#214c43" stroke-width="1"/>
      </g>
      <circle id="Ellipse_219" data-name="Ellipse 219" cx="3" cy="3" r="3" transform="translate(66.245 -1)" fill="#fff"/>
      <circle id="Ellipse_221" data-name="Ellipse 221" cx="3" cy="3" r="3" transform="translate(97.691 7.204)" fill="#fff"/>
      <circle id="Ellipse_223" data-name="Ellipse 223" cx="3" cy="3" r="3" transform="translate(121.093 18.905)" fill="#fff"/>
    </g>
    <g id="Group_6459" data-name="Group 6459" transform="translate(573.941 52.294)">
      <g id="Group_6453-2" data-name="Group 6453" transform="translate(-3 3.184)">
        <path id="Path_24764-2" data-name="Path 24764" d="M-4649.3,11555.895s-9.729,14.429-14.921,20.188-9.824,8.023-20.713,8.023h-34.243" transform="translate(4721.371 -11555.895)" fill="none" stroke="#214c43" stroke-width="1"/>
        <path id="Path_24767-2" data-name="Path 24767" d="M-4617.654,11555.895s-14.136,20.962-21.68,29.331-14.272,11.656-30.094,11.656h-49.75" transform="translate(4721.371 -11548.194)" fill="none" stroke="#214c43" stroke-width="1"/>
        <path id="Path_24768-2" data-name="Path 24768" d="M-4590.935,11555.895s-17.856,26.479-27.385,37.051-18.029,14.725-38.014,14.725h-62.843" transform="translate(4719.177 -11536.312)" fill="none" stroke="#214c43" stroke-width="1"/>
      </g>
      <circle id="Ellipse_219-2" data-name="Ellipse 219" cx="3" cy="3" r="3" transform="translate(67.245 -2)" fill="#fff"/>
      <circle id="Ellipse_221-2" data-name="Ellipse 221" cx="3" cy="3" r="3" transform="translate(98.691 6.204)" fill="#fff"/>
      <circle id="Ellipse_223-2" data-name="Ellipse 223" cx="3" cy="3" r="3" transform="translate(122.093 17.905)" fill="#fff"/>
    </g>
    <path id="Path_24769" data-name="Path 24769" d="M49.2,22.332V6.4a1.2,1.2,0,0,0-2.39,0v15.93a1.2,1.2,0,0,0,2.39,0Z" transform="translate(444.54 46.936)" fill="#22a180"/>
    <path id="Path_24770" data-name="Path 24770" d="M55.027,18.778V12.945a1.2,1.2,0,0,0-2.39,0v5.828a1.2,1.2,0,0,0,2.39,0Z" transform="translate(445.39 47.89)" fill="#22a180"/>
  </g>
</svg>
