<svg xmlns="http://www.w3.org/2000/svg" width="21.111" height="25.494" viewBox="0 0 21.111 25.494">
  <g id="Group_6475" data-name="Group 6475" transform="translate(-263.743 -1363.353)">
    <path id="np_shield_2057393_000000" d="M18.346.1A21.583,21.583,0,0,1,9.691,2.74a1.071,1.071,0,0,0-.906,1.071v8.407c0,6.924,4.615,8.737,9.479,11.951a.992.992,0,0,0,1.154,0c4.863-3.215,9.479-5.028,9.479-11.951V3.811A1.071,1.071,0,0,0,27.99,2.74,21.569,21.569,0,0,1,19.336.1a.753.753,0,0,0-.989,0Z" transform="translate(255.458 1363.948)" fill="none" stroke="#d3d3d4" stroke-width="1" fill-rule="evenodd"/>
    <path id="np_shield_2057393_000000-2" data-name="np_shield_2057393_000000" d="M16.675.07A17.812,17.812,0,0,1,9.533,2.247a.884.884,0,0,0-.748.884v6.939c0,5.714,3.809,7.211,7.823,9.863a.819.819,0,0,0,.952,0c4.014-2.653,7.823-4.149,7.823-9.863V3.131a.884.884,0,0,0-.748-.884A17.8,17.8,0,0,1,17.493.07a.622.622,0,0,0-.816,0Z" transform="translate(257.215 1366.083)" fill="#d3d3d4" fill-rule="evenodd"/>
    <path id="Path_24777" data-name="Path 24777" d="M-5407.215,12508.9l2.26,2.084,4.743-4.8" transform="translate(5678.122 -11132.82)" fill="none" stroke="#b58246" stroke-linecap="round" stroke-linejoin="round" stroke-width="2"/>
  </g>
</svg>
