<svg xmlns="http://www.w3.org/2000/svg" width="19.658" height="21.367" viewBox="0 0 19.658 21.367">
  <g id="help.svg" transform="translate(-33.681 -454.809)" opacity="0.25">
    <g id="Rectangle_3_copy_4" data-name="Rectangle 3 copy 4" fill="none">
      <path d="M48.424,457.09l-3.155-1.8,0,0a3.456,3.456,0,0,0-3.47-.023l-2.87,1.638,0,.006-.331.188-2.881,1.644-.017.009-.014.006a3.44,3.44,0,0,0-1.463,1.256,3.346,3.346,0,0,0-.541,1.83v6.924h.014v.377a3.372,3.372,0,0,0,1.714,2.926l2.989,1.706.021.011.087.055.089.053,3.155,1.8,0,0a3.475,3.475,0,0,0,1.735.479,3.436,3.436,0,0,0,1.735-.456l2.87-1.637,0-.005.331-.188,2.881-1.644.017-.01.014-.005a3.44,3.44,0,0,0,1.463-1.256,3.345,3.345,0,0,0,.541-1.829v-6.925h-.014v-.377a3.368,3.368,0,0,0-1.714-2.926l-2.989-1.705L48.6,457.2l-.087-.055-.089-.054Z" stroke="none"/>
      <path d="M 43.50591278076172 456.8091735839844 C 43.25264739990234 456.8092041015625 43.01033782958984 456.8742065429688 42.78616714477539 457.0020751953125 L 41.59564971923828 457.6816101074219 L 41.59980010986328 457.6894836425781 L 39.91753768920898 458.6471252441406 L 39.58901214599609 458.8341369628906 L 36.70801162719727 460.4785461425781 L 36.67690658569336 460.496337890625 L 36.64522171020508 460.5129699707031 L 36.62785339355469 460.5220642089844 L 36.55995941162109 460.5576477050781 L 36.49563217163086 460.5853271484375 C 36.2518424987793 460.6984252929688 36.04543304443359 460.8774108886719 35.89906311035156 461.1021118164062 C 35.75627517700195 461.3218688964844 35.68080139160156 461.5777587890625 35.68080139160156 461.8421630859375 L 35.68080139160156 465.4931640625 L 35.68080139160156 466.7663879394531 L 35.69332504272461 466.7663879394531 L 35.69501113891602 468.7647094726562 L 35.69532775878906 469.1417541503906 C 35.69553756713867 469.3803405761719 35.76016998291016 469.6163940429688 35.88369369506836 469.8268737792969 C 36.00674819946289 470.0373229980469 36.17937850952148 470.2066040039062 36.40064239501953 470.3322143554688 L 39.37208938598633 472.0278625488281 L 39.37506484985352 472.0294799804688 L 39.44795608520508 472.0691223144531 L 39.51727294921875 472.1147155761719 C 39.52522277832031 472.1199035644531 39.53443145751953 472.1257934570312 39.5478515625 472.1339721679688 C 39.56116104125977 472.14208984375 39.57353591918945 472.1497497558594 39.58477020263672 472.1564025878906 L 39.58669281005859 472.1575012207031 L 42.74132537841797 473.9576110839844 L 42.75148391723633 473.96337890625 L 42.76153564453125 473.9692687988281 L 42.76848602294922 473.973388671875 C 42.99116897583008 474.1043395996094 43.24522018432617 474.1744384765625 43.50369644165039 474.1761169433594 L 43.51211547851562 474.1761169433594 C 43.76700973510742 474.1761169433594 44.00874710083008 474.1116638183594 44.23385238647461 473.9826965332031 L 45.34573364257812 473.3482666015625 L 45.34153747558594 473.3411254882812 L 47.10216903686523 472.3387451171875 L 47.43106460571289 472.1514892578125 L 50.28746032714844 470.5216064453125 L 50.42895889282227 470.4353332519531 L 50.54700088500977 470.3891906738281 C 50.78120803833008 470.2751770019531 50.97908782958984 470.1006469726562 51.12069320678711 469.8830261230469 C 51.26337814331055 469.6635437011719 51.33879852294922 469.4078674316406 51.33879852294922 469.1437072753906 L 51.33879852294922 465.4931640625 L 51.33879852294922 464.2190246582031 L 51.32769393920898 464.2190246582031 L 51.32490539550781 462.2218017578125 L 51.32437896728516 461.8434448242188 C 51.32422256469727 461.6050109863281 51.25942993164062 461.3685302734375 51.1368522644043 461.1593322753906 C 51.01348495483398 460.9486999511719 50.84080123901367 460.7794494628906 50.61916732788086 460.6537475585938 L 47.63027191162109 458.9485473632812 L 47.61801147460938 458.9415588378906 L 47.60580062866211 458.9343872070312 L 47.58490371704102 458.9220581054688 L 47.54180145263672 458.8966369628906 L 47.50323486328125 458.8712463378906 C 47.49322128295898 458.8648681640625 47.48211288452148 458.8582153320312 47.46990585327148 458.8507080078125 L 47.46358871459961 458.8468627929688 L 47.457275390625 458.8429565429688 L 47.4297981262207 458.8262329101562 C 47.42204284667969 458.8215637207031 47.41449356079102 458.8170166015625 47.40713882446289 458.8125610351562 L 44.27880096435547 457.0285034179688 L 44.18947219848633 456.9775695800781 C 43.98218154907227 456.8688049316406 43.75087738037109 456.8108215332031 43.51627349853516 456.8092346191406 L 43.50591278076172 456.8091735839844 M 43.50607299804688 454.8092041015625 C 43.513916015625 454.8092041015625 43.52185821533203 454.8092346191406 43.52969360351562 454.8092956542969 C 44.13922119140625 454.8133850097656 44.74000930786133 454.9791870117188 45.26511764526367 455.2879028320312 L 45.26958847045898 455.2911682128906 L 48.42448425292969 457.0903930664062 C 48.44948577880859 457.1059265136719 48.47922134399414 457.123291015625 48.51301193237305 457.144287109375 C 48.54658889770508 457.164794921875 48.57548522949219 457.1825866699219 48.60048294067383 457.1990661621094 L 48.62137985229492 457.2113952636719 L 51.61027526855469 458.9165954589844 C 52.14890670776367 459.2221374511719 52.57148361206055 459.6514892578125 52.86259078979492 460.1484985351562 C 53.16422271728516 460.6632385253906 53.32400894165039 461.2488098144531 53.32437896728516 461.8421630859375 L 53.32490539550781 462.2190246582031 L 53.33879852294922 462.2190246582031 L 53.33879852294922 465.4931640625 L 53.33879852294922 469.1437072753906 C 53.33879852294922 469.8179016113281 53.14022064208984 470.4459228515625 52.7974853515625 470.9731140136719 C 52.44269561767578 471.5184020996094 51.93490600585938 471.95703125 51.3344841003418 472.2286987304688 L 51.32048416137695 472.2341918945312 L 51.30322265625 472.2446899414062 L 48.42227554321289 473.8886108398438 L 48.09169387817383 474.0768127441406 L 48.09490585327148 474.082275390625 L 45.22500991821289 475.7198181152344 C 44.68419647216797 476.0296936035156 44.09410858154297 476.1761474609375 43.51212692260742 476.1761474609375 C 43.50478744506836 476.1761474609375 43.49745178222656 476.1761169433594 43.49011611938477 476.1760864257812 C 42.88058853149414 476.1720581054688 42.27980041503906 476.0061645507812 41.75469589233398 475.6973876953125 L 41.75011444091797 475.6947021484375 L 38.59548568725586 473.8945922851562 C 38.57032775878906 473.8804016113281 38.5402717590332 473.862060546875 38.50669479370117 473.8415832519531 C 38.47359085083008 473.8215026855469 38.44437789916992 473.8027954101562 38.41921997070312 473.7862854003906 L 38.3983268737793 473.77490234375 L 35.40937805175781 472.0692749023438 C 34.87100982666016 471.7637023925781 34.44811630249023 471.3339233398438 34.15722274780273 470.8364868164062 C 33.85569381713867 470.3226013183594 33.69590377807617 469.7366027832031 33.69532775878906 469.1437072753906 L 33.69501113891602 468.7663879394531 L 33.68080139160156 468.7663879394531 L 33.68080139160156 465.4931640625 L 33.68080139160156 461.8421630859375 C 33.68080139160156 461.16748046875 33.87948226928711 460.5394897460938 34.22211456298828 460.0122680664062 C 34.57701110839844 459.4673767089844 35.08480072021484 459.0280151367188 35.68527221679688 458.7567138671875 L 35.69922256469727 458.7507019042969 L 35.71659088134766 458.7416076660156 L 38.59758758544922 457.09716796875 L 38.92811584472656 456.9090270996094 L 38.92501068115234 456.9031372070312 L 41.79469299316406 455.26513671875 C 42.33509063720703 454.9568481445312 42.92467880249023 454.8091735839844 43.50607299804688 454.8092041015625 Z" stroke="none" fill="#fff"/>
    </g>
    <path id="_" data-name="?" d="M40.194,462.788q.708-.036,1.854-.108t1.866-.072a.775.775,0,0,1,.558.162.592.592,0,0,1,.162.438v1.02l-2.82,1.02v1.68h2.16v-.6l1.2-.42a2.592,2.592,0,0,0,1.26-.792,2.214,2.214,0,0,0,.36-1.368v-.54a1.979,1.979,0,0,0-2.28-2.28,42.091,42.091,0,0,0-4.32.24Zm1.62,6.66h2.16v-1.8h-2.16Z" fill="#fff"/>
  </g>
</svg>
