<svg xmlns="http://www.w3.org/2000/svg" width="19.075" height="19.46" viewBox="0 0 19.075 19.46">
  <g id="Group_1523" data-name="Group 1523" transform="translate(0.05 0.018)">
    <path id="Path_611" data-name="Path 611" d="M281.446,225.077a11.442,11.442,0,0,0-.168-1.977H272.1v3.747h5.256a4.5,4.5,0,0,1-1.945,2.957v2.431h3.135A9.5,9.5,0,0,0,281.446,225.077Z" transform="translate(-262.42 -215.141)" fill="#4285f4"/>
    <path id="Path_612" data-name="Path 612" d="M37.595,332.165a9.314,9.314,0,0,0,6.45-2.349l-3.135-2.431a5.9,5.9,0,0,1-8.774-3.085H28.9v2.506A9.731,9.731,0,0,0,37.595,332.165Z" transform="translate(-27.915 -312.723)" fill="#34a853"/>
    <path id="Path_613" data-name="Path 613" d="M4.217,156.232a5.828,5.828,0,0,1,0-3.725V150H.985a9.738,9.738,0,0,0,0,8.738Z" transform="translate(0 -144.655)" fill="#fbbc04"/>
    <path id="Path_614" data-name="Path 614" d="M37.595,3.833a5.287,5.287,0,0,1,3.732,1.459l2.778-2.778a9.351,9.351,0,0,0-6.51-2.531A9.728,9.728,0,0,0,28.9,5.345l3.232,2.506a5.82,5.82,0,0,1,5.463-4.019Z" transform="translate(-27.915)" fill="#ea4335"/>
  </g>
</svg>
