<svg xmlns="http://www.w3.org/2000/svg" width="20" height="20.226" viewBox="0 0 20 20.226">
  <g id="Group_1524" data-name="Group 1524" transform="translate(0 -1.02)">
    <circle id="Ellipse_88" data-name="Ellipse 88" cx="10" cy="10" r="10" transform="translate(0 1.02)" fill="#1977f3"/>
    <path id="Path_615" data-name="Path 615" d="M4202.175,2787.188l.453-2.956h-2.835v-1.918a1.478,1.478,0,0,1,1.667-1.6h1.29V2778.2a15.713,15.713,0,0,0-2.29-.2,3.609,3.609,0,0,0-3.862,3.979v2.253H4194v2.956h2.6v7.145a10.293,10.293,0,0,0,1.6.124,10.436,10.436,0,0,0,1.6-.124v-7.145Z" transform="translate(-4188.175 -2773.212)" fill="#fff"/>
  </g>
</svg>
